<svg width="16" height="9" viewBox="0 0 16 9" fill="none" xmlns="http://www.w3.org/2000/svg">
<path d="M14.8894 0.679359L7.99929 7.05527L1.10916 0.679359C0.986054 0.565213 0.820797 0.501309 0.648713 0.501309C0.476628 0.501309 0.311372 0.565213 0.188268 0.679359C0.128661 0.734801 0.0813067 0.800975 0.0489791 0.874008C0.0166514 0.947041 0 1.02546 0 1.10468C0 1.1839 0.0166514 1.26232 0.0489791 1.33536C0.0813067 1.40839 0.128661 1.47456 0.188268 1.53L7.51817 8.31423C7.64689 8.43334 7.81954 8.5 7.99929 8.5C8.17905 8.5 8.3517 8.43334 8.48042 8.31423L15.8103 1.53131C15.8703 1.47583 15.9181 1.40949 15.9506 1.33622C15.9832 1.26294 16 1.18422 16 1.10468C16 1.02515 15.9832 0.94642 15.9506 0.873145C15.9181 0.79987 15.8703 0.733533 15.8103 0.67805C15.6872 0.563903 15.522 0.5 15.3499 0.5C15.1778 0.5 15.0125 0.563903 14.8894 0.67805V0.679359Z" fill="#232726"/>
</svg>
