<svg width="28" height="28" viewBox="0 0 28 28" fill="none" xmlns="http://www.w3.org/2000/svg">
<path d="M4.24436 5.42424C4.16689 5.34676 4.10543 5.25479 4.06351 5.15357C4.02158 5.05235 4 4.94386 4 4.8343C4 4.72474 4.02158 4.61625 4.06351 4.51503C4.10543 4.4138 4.16689 4.32183 4.24436 4.24436C4.32183 4.16689 4.4138 4.10543 4.51503 4.06351C4.61625 4.02158 4.72474 4 4.8343 4C4.94386 4 5.05235 4.02158 5.15357 4.06351C5.25479 4.10543 5.34676 4.16689 5.42424 4.24436L14 12.8218L22.5758 4.24436C22.6532 4.16689 22.7452 4.10543 22.8464 4.06351C22.9477 4.02158 23.0561 4 23.1657 4C23.2753 4 23.3838 4.02158 23.485 4.06351C23.5862 4.10543 23.6782 4.16689 23.7556 4.24436C23.8331 4.32183 23.8946 4.4138 23.9365 4.51503C23.9784 4.61625 24 4.72474 24 4.8343C24 4.94386 23.9784 5.05235 23.9365 5.15357C23.8946 5.25479 23.8331 5.34676 23.7556 5.42424L15.1782 14L23.7556 22.5758C23.8331 22.6532 23.8946 22.7452 23.9365 22.8464C23.9784 22.9477 24 23.0561 24 23.1657C24 23.2753 23.9784 23.3838 23.9365 23.485C23.8946 23.5862 23.8331 23.6782 23.7556 23.7556C23.6782 23.8331 23.5862 23.8946 23.485 23.9365C23.3838 23.9784 23.2753 24 23.1657 24C23.0561 24 22.9477 23.9784 22.8464 23.9365C22.7452 23.8946 22.6532 23.8331 22.5758 23.7556L14 15.1782L5.42424 23.7556C5.34676 23.8331 5.25479 23.8946 5.15357 23.9365C5.05235 23.9784 4.94386 24 4.8343 24C4.72474 24 4.61625 23.9784 4.51503 23.9365C4.4138 23.8946 4.32183 23.8331 4.24436 23.7556C4.16689 23.6782 4.10543 23.5862 4.06351 23.485C4.02158 23.3838 4 23.2753 4 23.1657C4 23.0561 4.02158 22.9477 4.06351 22.8464C4.10543 22.7452 4.16689 22.6532 4.24436 22.5758L12.8218 14L4.24436 5.42424Z" fill="#68825A"/>
</svg>
