<svg width="76" height="64" viewBox="0 0 76 64" fill="none" xmlns="http://www.w3.org/2000/svg">
<path opacity="0.25" d="M64 18.8235H60.2353V0H22.5882V60.2353H75.2941V30.1176C75.2941 23.8682 70.2494 18.8235 64 18.8235ZM30.1176 7.52941H52.7059V18.8235H30.1176V7.52941ZM45.1765 48.9412H30.1176V30.1176H45.1765V48.9412ZM52.7059 48.9412C50.6353 48.9412 48.9412 47.2471 48.9412 45.1765C48.9412 43.1059 50.6353 41.4118 52.7059 41.4118C54.7765 41.4118 56.4706 43.1059 56.4706 45.1765C56.4706 47.2471 54.7765 48.9412 52.7059 48.9412ZM52.7059 37.6471C50.6353 37.6471 48.9412 35.9529 48.9412 33.8824C48.9412 31.8118 50.6353 30.1176 52.7059 30.1176C54.7765 30.1176 56.4706 31.8118 56.4706 33.8824C56.4706 35.9529 54.7765 37.6471 52.7059 37.6471ZM64 48.9412C61.9294 48.9412 60.2353 47.2471 60.2353 45.1765C60.2353 43.1059 61.9294 41.4118 64 41.4118C66.0706 41.4118 67.7647 43.1059 67.7647 45.1765C67.7647 47.2471 66.0706 48.9412 64 48.9412ZM64 37.6471C61.9294 37.6471 60.2353 35.9529 60.2353 33.8824C60.2353 31.8118 61.9294 30.1176 64 30.1176C66.0706 30.1176 67.7647 31.8118 67.7647 33.8824C67.7647 35.9529 66.0706 37.6471 64 37.6471ZM9.41176 15.0588C6.91561 15.0588 4.52169 16.0504 2.75664 17.8155C0.991594 19.5805 0 21.9744 0 24.4706V54.5882C0 57.0844 0.991594 59.4783 2.75664 61.2434C4.52169 63.0084 6.91561 64 9.41176 64C11.9079 64 14.3018 63.0084 16.0669 61.2434C17.8319 59.4783 18.8235 57.0844 18.8235 54.5882V24.4706C18.8235 23.2346 18.5801 22.0107 18.1071 20.8689C17.6341 19.727 16.9408 18.6894 16.0669 17.8155C15.1929 16.9415 14.1554 16.2482 13.0135 15.7753C11.8716 15.3023 10.6477 15.0588 9.41176 15.0588Z" fill="#B7BBBE"/>
<path d="M36 38.5882H33.8824V28H12.7059V61.8824H42.3529V44.9412C42.3529 41.4259 39.5153 38.5882 36 38.5882ZM16.9412 32.2353H29.6471V38.5882H16.9412V32.2353ZM25.4118 55.5294H16.9412V44.9412H25.4118V55.5294ZM29.6471 55.5294C28.4824 55.5294 27.5294 54.5765 27.5294 53.4118C27.5294 52.2471 28.4824 51.2941 29.6471 51.2941C30.8118 51.2941 31.7647 52.2471 31.7647 53.4118C31.7647 54.5765 30.8118 55.5294 29.6471 55.5294ZM29.6471 49.1765C28.4824 49.1765 27.5294 48.2235 27.5294 47.0588C27.5294 45.8941 28.4824 44.9412 29.6471 44.9412C30.8118 44.9412 31.7647 45.8941 31.7647 47.0588C31.7647 48.2235 30.8118 49.1765 29.6471 49.1765ZM36 55.5294C34.8353 55.5294 33.8824 54.5765 33.8824 53.4118C33.8824 52.2471 34.8353 51.2941 36 51.2941C37.1647 51.2941 38.1176 52.2471 38.1176 53.4118C38.1176 54.5765 37.1647 55.5294 36 55.5294ZM36 49.1765C34.8353 49.1765 33.8824 48.2235 33.8824 47.0588C33.8824 45.8941 34.8353 44.9412 36 44.9412C37.1647 44.9412 38.1176 45.8941 38.1176 47.0588C38.1176 48.2235 37.1647 49.1765 36 49.1765ZM5.29412 36.4706C3.89003 36.4706 2.54345 37.0284 1.55061 38.0212C0.557771 39.014 0 40.3606 0 41.7647V58.7059C0 60.11 0.557771 61.4566 1.55061 62.4494C2.54345 63.4422 3.89003 64 5.29412 64C6.6982 64 8.04478 63.4422 9.03762 62.4494C10.0305 61.4566 10.5882 60.11 10.5882 58.7059V41.7647C10.5882 41.0695 10.4513 40.381 10.1852 39.7387C9.91919 39.0964 9.52923 38.5128 9.03762 38.0212C8.54602 37.5296 7.9624 37.1396 7.32009 36.8736C6.67778 36.6075 5.98935 36.4706 5.29412 36.4706Z" fill="#68825A"/>
</svg>
