<svg width="64" height="64" viewBox="0 0 64 64" fill="none" xmlns="http://www.w3.org/2000/svg">
<path opacity="0.25" d="M62.8243 50.1328L48.2205 36.8548C47.5302 36.2273 46.623 35.8927 45.6906 35.9215C44.7582 35.9504 43.8735 36.3404 43.2232 37.0093L34.6262 45.8505C32.5569 45.4553 28.3967 44.1584 24.1143 39.8869C19.832 35.601 18.5351 31.43 18.1507 29.3751L26.9848 20.7746C27.6545 20.1248 28.0451 19.2399 28.0739 18.3072C28.1028 17.3745 27.7676 16.4672 27.1393 15.7773L13.8647 1.17725C13.2362 0.485168 12.3626 0.0653711 11.4295 0.00701188C10.4964 -0.0513474 9.57736 0.256329 8.86747 0.864697L1.0716 7.55041C0.450484 8.17377 0.0797605 9.00342 0.0297535 9.88197C-0.024135 10.7801 -1.05161 32.0551 15.4455 48.5593C29.8373 62.9474 47.8648 64 52.8298 64C53.5555 64 54.0009 63.9784 54.1195 63.9713C54.9979 63.9221 55.8271 63.5497 56.4475 62.9258L63.1297 55.1264C63.7404 54.4188 64.0504 53.5005 63.9933 52.5675C63.9363 51.6345 63.5167 50.7607 62.8243 50.1328Z" fill="#B7BBBE"/>
<path d="M35.3387 55.6997L27.124 48.2308C26.7357 47.8779 26.2255 47.6896 25.701 47.7059C25.1765 47.7221 24.6788 47.9415 24.3131 48.3177L19.4772 53.2909C18.3132 53.0686 15.9731 52.3391 13.5643 49.9364C11.1555 47.5255 10.426 45.1794 10.2098 44.0235L15.179 39.1857C15.5557 38.8202 15.7754 38.3224 15.7916 37.7978C15.8078 37.2732 15.6193 36.7628 15.2658 36.3747L7.79892 28.1622C7.44536 27.7729 6.95397 27.5368 6.42911 27.5039C5.90425 27.4711 5.38726 27.6442 4.98795 27.9864L0.602775 31.7471C0.253397 32.0977 0.0448653 32.5644 0.0167364 33.0586C-0.0135759 33.5638 -0.59153 45.531 8.68808 54.8146C16.7835 62.9079 26.924 63.5 29.7167 63.5C30.1249 63.5 30.3755 63.4879 30.4422 63.4838C30.9363 63.4562 31.4028 63.2467 31.7517 62.8958L35.5104 58.5086C35.854 58.1106 36.0283 57.594 35.9962 57.0692C35.9641 56.5444 35.7282 56.0529 35.3387 55.6997Z" fill="#68825A"/>
</svg>
