<svg width="50" height="64" viewBox="0 0 50 64" fill="none" xmlns="http://www.w3.org/2000/svg">
<path opacity="0.25" d="M24.9999 64C20.489 60.1701 16.3078 55.9714 12.5 51.4478C6.7857 44.6544 3.1389e-06 34.5373 3.1389e-06 24.8965C-0.00247506 19.9729 1.46253 15.1592 4.20961 11.0646C6.95669 6.97008 10.8624 3.77871 15.4323 1.89441C20.0023 0.0101198 25.0312 -0.482394 29.8825 0.479201C34.7338 1.4408 39.1895 3.81328 42.6856 7.29639C45.0133 9.60299 46.8583 12.3462 48.1138 15.3673C49.3693 18.3883 50.0103 21.6272 49.9999 24.8965C49.9999 34.5373 43.2142 44.6544 37.4999 51.4478C33.6921 55.9714 29.5108 60.1701 24.9999 64ZM24.9999 14.2319C22.1583 14.2319 19.4331 15.3555 17.4238 17.3555C15.4145 19.3555 14.2857 22.0681 14.2857 24.8965C14.2857 27.7249 15.4145 30.4375 17.4238 32.4375C19.4331 34.4375 22.1583 35.5611 24.9999 35.5611C27.8415 35.5611 30.5667 34.4375 32.5761 32.4375C34.5854 30.4375 35.7142 27.7249 35.7142 24.8965C35.7142 22.0681 34.5854 19.3555 32.5761 17.3555C30.5667 15.3555 27.8415 14.2319 24.9999 14.2319Z" fill="#B7BBBE"/>
<path d="M13.9973 64C11.4716 61.8457 9.13061 59.4839 6.99864 56.9394C3.79926 53.1181 1.75745e-06 47.4272 1.75745e-06 42.0043C-0.00138577 39.2348 0.818859 36.527 2.35693 34.2239C3.895 31.9207 6.08176 30.1255 8.64045 29.0656C11.1991 28.0057 14.0148 27.7287 16.731 28.2696C19.4472 28.8104 21.9419 30.145 23.8993 32.1042C25.2026 33.4017 26.2356 34.9447 26.9385 36.6441C27.6415 38.3434 28.0004 40.1653 27.9945 42.0043C27.9945 47.4272 24.1953 53.1181 20.9959 56.9394C18.8639 59.4839 16.5229 61.8457 13.9973 64ZM13.9973 36.0055C12.4063 36.0055 10.8805 36.6375 9.75546 37.7625C8.63046 38.8875 7.99844 40.4133 7.99844 42.0043C7.99844 43.5953 8.63046 45.1211 9.75546 46.2461C10.8805 47.3711 12.4063 48.0031 13.9973 48.0031C15.5883 48.0031 17.1141 47.3711 18.2391 46.2461C19.3641 45.1211 19.9961 43.5953 19.9961 42.0043C19.9961 40.4133 19.3641 38.8875 18.2391 37.7625C17.1141 36.6375 15.5883 36.0055 13.9973 36.0055Z" fill="#68825A"/>
</svg>
