<svg width="64" height="49" viewBox="0 0 64 49" fill="none" xmlns="http://www.w3.org/2000/svg">
<g opacity="0.25">
<path d="M60.7997 0.021068C60.5271 -0.00702266 60.2523 -0.00702266 59.9797 0.021068H3.97968C3.62077 0.0265983 3.26423 0.0804146 2.91968 0.181068L31.8197 28.9611L60.7997 0.021068Z" fill="#B7BBBE"/>
<path d="M63.76 2.80188L34.64 31.8019C33.8905 32.5469 32.8767 32.9651 31.82 32.9651C30.7633 32.9651 29.7495 32.5469 29 31.8019L0.14 3.02188C0.0512789 3.34796 0.00423737 3.68397 0 4.02188V44.0219C0 45.0827 0.421427 46.1002 1.17157 46.8503C1.92172 47.6005 2.93913 48.0219 4 48.0219H60C61.0609 48.0219 62.0783 47.6005 62.8284 46.8503C63.5786 46.1002 64 45.0827 64 44.0219V4.02188C63.9841 3.60519 63.9031 3.19355 63.76 2.80188ZM6.74 44.0219H3.96V41.1619L18.5 26.7419L21.32 29.5619L6.74 44.0219ZM59.96 44.0219H57.16L42.58 29.5619L45.4 26.7419L59.94 41.1619L59.96 44.0219Z" fill="#B7BBBE"/>
</g>
<path d="M34.1998 21.0119C34.0465 20.996 33.8919 20.996 33.7386 21.0119H2.23858C2.0367 21.015 1.83615 21.0452 1.64233 21.1019L17.8986 37.2906L34.1998 21.0119Z" fill="#68825A"/>
<path d="M35.865 22.576L19.485 38.8885C19.0634 39.3076 18.4932 39.5428 17.8988 39.5428C17.3043 39.5428 16.7341 39.3076 16.3125 38.8885L0.0787501 22.6998C0.0288444 22.8832 0.00238352 23.0722 0 23.2623V45.7623C0 46.359 0.237053 46.9313 0.65901 47.3533C1.08097 47.7752 1.65326 48.0123 2.25 48.0123H33.75C34.3467 48.0123 34.919 47.7752 35.341 47.3533C35.7629 46.9313 36 46.359 36 45.7623V23.2623C35.991 23.0279 35.9455 22.7964 35.865 22.576ZM3.79125 45.7623H2.2275V44.1535L10.4062 36.0423L11.9925 37.6286L3.79125 45.7623ZM33.7275 45.7623H32.1525L23.9512 37.6286L25.5375 36.0423L33.7162 44.1535L33.7275 45.7623Z" fill="#68825A"/>
</svg>
