<svg width="24" height="24" viewBox="0 0 24 24" fill="none" xmlns="http://www.w3.org/2000/svg">
<path d="M12.74 2.32007C12.6462 2.21695 12.532 2.13456 12.4046 2.07818C12.2771 2.0218 12.1393 1.99268 12 1.99268C11.8606 1.99268 11.7228 2.0218 11.5954 2.07818C11.4679 2.13456 11.3537 2.21695 11.26 2.32007L2.25997 12.3201C2.12726 12.4632 2.03932 12.642 2.00698 12.8344C1.97465 13.0269 1.99934 13.2246 2.07801 13.4032C2.15668 13.5818 2.28589 13.7335 2.44972 13.8395C2.61354 13.9456 2.80482 14.0014 2.99997 14.0001H4.99997V21.0001C4.99997 21.2653 5.10533 21.5196 5.29287 21.7072C5.4804 21.8947 5.73476 22.0001 5.99997 22.0001H18C18.2652 22.0001 18.5195 21.8947 18.7071 21.7072C18.8946 21.5196 19 21.2653 19 21.0001V14.0001H21C21.2652 14.0001 21.5195 13.8947 21.7071 13.7072C21.8946 13.5196 22 13.2653 22 13.0001C22.0018 12.7488 21.909 12.506 21.74 12.3201L12.74 2.32007Z" fill="#68825A"/>
</svg>
