<svg width="48" height="44" viewBox="0 0 48 44" fill="none" xmlns="http://www.w3.org/2000/svg">
<path d="M42.375 6.875H5.625C5.41875 6.875 5.25 7.02969 5.25 7.21875V9.96875C5.25 10.1578 5.41875 10.3125 5.625 10.3125H42.375C42.5812 10.3125 42.75 10.1578 42.75 9.96875V7.21875C42.75 7.02969 42.5812 6.875 42.375 6.875ZM42.375 33.6875H5.625C5.41875 33.6875 5.25 33.8422 5.25 34.0312V36.7812C5.25 36.9703 5.41875 37.125 5.625 37.125H42.375C42.5812 37.125 42.75 36.9703 42.75 36.7812V34.0312C42.75 33.8422 42.5812 33.6875 42.375 33.6875ZM42.375 20.2812H5.625C5.41875 20.2812 5.25 20.4359 5.25 20.625V23.375C5.25 23.5641 5.41875 23.7188 5.625 23.7188H42.375C42.5812 23.7188 42.75 23.5641 42.75 23.375V20.625C42.75 20.4359 42.5812 20.2812 42.375 20.2812Z" fill="white"/>
</svg>
