<svg width="132" height="150" viewBox="0 0 132 150" fill="none" xmlns="http://www.w3.org/2000/svg">
<path d="M0.43457 0V57.52C0.43457 96.1113 20.0901 131.995 66.0596 150C112.029 131.995 131.685 96.1113 131.685 57.52V0H0.43457Z" fill="#50653E"/>
<path d="M5.06738 4.63306V57.5213C5.06738 94.0433 22.9209 127.29 66.0598 144.899C109.199 127.29 127.052 94.0433 127.052 57.5213V4.63306H5.06738Z" fill="#50653E" stroke="black" stroke-width="0.377953" stroke-linecap="round" stroke-linejoin="round"/>
<path fill-rule="evenodd" clip-rule="evenodd" d="M66.06 125.533C61.2973 119.828 57.6445 113.266 55.4789 106.774H22.8838V24.0115C45.6356 34.3863 42.4356 64.5398 39.1791 88.5083H56.7226L56.1231 65.6599C55.6771 57.3955 55.4364 49.0666 54.7614 40.8905C53.7625 28.7909 57.6758 18.3232 66.06 9.1709C74.4442 18.3232 78.3576 28.7909 77.3586 40.8905C76.6836 49.0666 76.4429 57.3955 75.997 65.6599L75.3975 88.5083H92.9409C89.6845 64.5398 86.4844 34.3863 109.236 24.0115V106.774H76.6411C74.4755 113.266 70.8227 119.828 66.06 125.533Z" fill="#FFCC00"/>
<g opacity="0.15">
<path fill-rule="evenodd" clip-rule="evenodd" d="M66.06 125.533C61.2973 119.828 57.6445 113.266 55.4789 106.774H22.8838V24.0115C45.6356 34.3863 42.4356 64.5398 39.1791 88.5083H56.7226L56.1231 65.6599C55.6771 57.3955 55.4364 49.0666 54.7614 40.8905C53.7625 28.7909 57.6758 18.3232 66.06 9.1709C74.4442 18.3232 78.3576 28.7909 77.3586 40.8905C76.6836 49.0666 76.4429 57.3955 75.997 65.6599L75.3975 88.5083H92.9409C89.6845 64.5398 86.4845 34.3863 109.236 24.0115V106.774H76.6411C74.4755 113.266 70.8227 119.828 66.06 125.533Z" stroke="black" stroke-width="8.28866"/>
<path fill-rule="evenodd" clip-rule="evenodd" d="M66.436 9.5896L62.4384 13.5872C61.1603 15.3434 60.0363 17.1454 59.0665 18.9954L67.3855 10.6764C67.0761 10.3122 66.7591 9.94978 66.436 9.5896ZM68.8785 12.5182L56.5861 24.8105C56.272 25.7532 55.9966 26.7082 55.7568 27.6745L69.7489 13.6825C69.4664 13.2923 69.176 12.9038 68.8785 12.5182ZM71.1037 15.6639L54.9712 31.7965C54.8698 32.5485 54.7884 33.3067 54.7298 34.0726L71.8845 16.9179C71.6326 16.4974 71.3723 16.0794 71.1037 15.6639ZM73.0844 19.0543L54.6095 37.5292C54.6095 37.5295 54.6095 37.5298 54.6095 37.5301C54.614 38.1826 54.6364 38.8411 54.6708 39.5034L73.7594 20.4141C73.5428 19.9582 73.3194 19.5045 73.0844 19.0544V19.0543ZM74.7735 22.7362L54.8929 42.6169C54.9405 43.2485 54.9877 43.8803 55.031 44.5135L75.3282 24.2171C75.1536 23.7202 74.9689 23.2266 74.7735 22.7362ZM24.4082 24.7621L22.8838 26.2865V28.3213L25.7187 25.4856C25.2932 25.2358 24.8552 24.9956 24.4082 24.7621ZM106.129 25.6454C101.989 28.1353 98.8761 31.3949 96.5694 35.2038L106.129 25.6454ZM109.236 25.8715L93.6223 41.4857C93.2781 42.4533 92.9689 43.4431 92.6921 44.4522L109.236 27.9095V25.8715ZM76.1236 26.7573L55.2296 47.6512C55.2673 48.2927 55.3037 48.9344 55.3386 49.577L76.5313 28.385C76.4069 27.8389 76.2716 27.2959 76.1236 26.7573ZM27.7502 26.7912L22.8838 31.6576V33.6931L28.9137 27.664C28.5352 27.3662 28.15 27.0732 27.7502 26.7912ZM30.7078 29.2046L22.8838 37.0286V39.0642L31.7349 30.2131C31.404 29.8686 31.0595 29.5341 30.7078 29.2046ZM77.0634 31.1885L55.5025 52.7494C55.5342 53.3965 55.5649 54.0444 55.5954 54.6921L77.2919 32.9947C77.229 32.3883 77.1536 31.786 77.0634 31.1885ZM109.236 31.2434L91.7199 48.7598C91.5752 49.5592 91.4451 50.3664 91.3324 51.1829L109.236 33.2797V31.2434ZM33.2948 31.9886L22.8838 42.3997V44.4352L34.1782 33.1416C33.8938 32.7503 33.5996 32.3657 33.2948 31.9886ZM35.5129 35.1417L22.8838 47.7707V49.8063L36.2549 36.4352C36.0165 35.9978 35.771 35.5656 35.5129 35.1417ZM77.4938 36.1291L55.7431 57.8798C55.7728 58.5279 55.8051 59.1753 55.8352 59.8233L77.4978 38.1606C77.5125 37.4783 77.5114 36.8009 77.4937 36.1291H77.4938ZM109.236 36.6144L90.9335 54.9173C90.8743 55.6407 90.825 56.3683 90.7857 57.1006L109.236 38.6508V36.6144ZM37.3635 38.6621L22.8838 53.1418V55.1773L37.9699 40.092C37.7767 39.6096 37.5758 39.1321 37.3635 38.6621ZM77.2968 41.6988L55.9918 63.0038C56.0238 63.6496 56.0532 64.2964 56.0871 64.9416L77.1288 43.8999C77.1806 43.1648 77.2388 42.4317 77.2968 41.6988ZM109.236 41.9855L90.6646 60.5564C90.6548 61.2362 90.6502 61.9181 90.6541 62.6025L109.236 44.0218V41.9855ZM38.8564 42.5402L22.8838 58.5128V60.5484L39.3288 44.1026C39.1799 43.5767 39.0236 43.0549 38.8564 42.5402ZM40.0014 46.7663L22.8838 63.8839V65.9194L40.3437 48.4595C40.2375 47.8907 40.125 47.3252 40.0014 46.7663ZM109.236 47.3565L90.726 65.8669C90.7484 66.5179 90.7736 67.1691 90.8059 67.8217L109.236 49.3929V47.3565ZM76.9003 47.4663L56.1888 68.1778L56.2405 70.1601L76.7776 49.6238C76.8166 48.9039 76.8577 48.1849 76.9003 47.4663ZM40.8056 51.3331L22.8838 69.2549V71.2905L41.0236 53.1507C40.9583 52.5411 40.8871 51.9344 40.8056 51.3331ZM109.236 52.7276L90.9981 70.9659C91.0429 71.5965 91.0899 72.2268 91.1418 72.8569L109.236 54.7639V52.7276ZM76.5967 53.1402L56.3261 73.4116L56.3786 75.3939L76.4974 55.2758C76.5306 54.564 76.5622 53.8515 76.5967 53.1402ZM41.2836 56.2262L22.8838 74.626V76.6615L41.3894 58.1559C41.3629 57.509 41.3249 56.8668 41.2836 56.2262ZM109.236 58.101L91.4196 75.9171C91.4803 76.5335 91.5429 77.1482 91.6085 77.7621L109.236 60.135V58.101ZM76.3343 58.7744L56.4633 78.6454L56.5158 80.6276L76.2309 60.9125C76.2646 60.1996 76.3015 59.4876 76.3343 58.7744ZM41.4588 61.422L22.8838 79.997V82.0326L41.4515 63.4648C41.4609 62.7817 41.4627 62.101 41.4588 61.422ZM109.236 63.4721L91.9509 80.7568C92.0228 81.3641 92.0957 81.9691 92.1705 82.5719L109.236 65.5068V63.4721ZM76.0582 64.4216L56.6006 83.8792L56.6531 85.8614L75.9734 66.5411L75.9968 65.6602C76.019 65.248 76.0368 64.8342 76.0581 64.4216H76.0582ZM41.3555 66.8964L22.8838 85.3681V87.4036L41.2465 69.0401C41.2881 68.3249 41.3251 67.6102 41.3555 66.8964ZM109.236 68.8431L92.5468 85.532C92.6258 86.1335 92.705 86.7336 92.785 87.3285L109.236 70.8779V68.8431ZM75.8837 69.9671L39.0777 106.774H41.1108L75.8288 72.0567L75.8837 69.9671ZM40.997 72.626L22.8838 90.7391V92.7747L40.804 74.8545C40.8731 74.1126 40.9367 73.3697 40.997 72.626ZM109.236 74.2142L76.675 106.774H78.7106L109.236 76.2489V74.2142ZM75.7392 75.4827L44.4487 106.774H46.4819L75.6843 77.5723L75.7392 75.4827ZM40.4237 78.5727L22.8838 96.1126V98.1449L40.154 80.8747C40.2451 80.1077 40.3385 79.3456 40.4237 78.5727ZM109.236 79.5852L82.0461 106.774H84.0816L109.236 81.62V79.5852ZM75.5939 80.9991L49.8198 106.774H51.8529L75.539 83.0887L75.5939 80.9991ZM39.6857 84.6818L22.8838 101.484V103.517L39.3748 87.0257C39.479 86.248 39.5835 85.4703 39.6857 84.6818ZM109.236 84.9563L87.4171 106.774H89.4527L109.236 86.991V84.9563ZM75.4493 86.5146L55.1908 106.774H55.4783C55.6221 107.205 55.7737 107.636 55.9304 108.067L75.4905 88.5082H75.3969L75.4493 86.5146ZM41.2303 88.5082L22.9653 106.774H24.9968L43.2634 88.5082H41.2303ZM46.6014 88.5082L28.3356 106.774H30.3687L48.6345 88.5082H46.6014ZM51.9724 88.5082L33.7066 106.774H35.7398L54.0055 88.5082H51.9724ZM78.8285 88.5082L56.8687 110.468C57.0664 110.94 57.2738 111.412 57.4864 111.883L80.8616 88.5082H78.8285ZM84.1995 88.5082L58.5659 114.142C58.7918 114.589 59.0255 115.034 59.2643 115.478L86.2342 88.5082H84.1995ZM89.5706 88.5082L60.4666 117.612C60.7174 118.036 60.9746 118.457 61.2369 118.877L91.6053 88.5082H89.5706ZM109.236 90.3273L92.7882 106.774H94.8237L109.236 92.3621V90.3273ZM109.236 95.6984L98.1592 106.774H100.195L109.236 97.7331V95.6984ZM109.236 101.069L103.53 106.774H105.566L109.236 103.104V101.069ZM109.236 106.44L108.902 106.774H109.236V106.44ZM76.6226 106.826L62.5571 120.892C62.8313 121.294 63.1097 121.694 63.3944 122.09L75.4114 110.073C75.8544 108.992 76.2603 107.908 76.6226 106.826ZM72.2584 116.562L64.8243 123.997C65.1209 124.377 65.4225 124.754 65.7287 125.127L68.6273 122.228C69.9524 120.395 71.1651 118.497 72.2584 116.562Z" fill="black"/>
</g>
<path fill-rule="evenodd" clip-rule="evenodd" d="M66.06 125.533C61.2973 119.828 57.6445 113.266 55.4789 106.774H22.8838V24.0115C45.6356 34.3863 42.4356 64.5398 39.1791 88.5083H56.7226L56.1231 65.6599C55.6771 57.3955 55.4364 49.0666 54.7614 40.8905C53.7625 28.7909 57.6758 18.3232 66.06 9.1709C74.4442 18.3232 78.3576 28.7909 77.3586 40.8905C76.6836 49.0666 76.4429 57.3955 75.997 65.6599L75.3975 88.5083H92.9409C89.6845 64.5398 86.4844 34.3863 109.236 24.0115V106.774H76.6411C74.4755 113.266 70.8227 119.828 66.06 125.533V125.533Z" stroke="#FFCC00" stroke-width="2.90103"/>
</svg>
