<svg width="120" height="132" viewBox="0 0 120 132" fill="none" xmlns="http://www.w3.org/2000/svg">
<path fill-rule="evenodd" clip-rule="evenodd" d="M60.1972 0.0173938C55.4881 -0.260812 51.354 2.82894 49.397 7.08633V7.08714L1.40051 111.556C-0.578309 115.865 -0.352196 120.555 1.40133 124.372C3.15484 128.188 6.86661 131.46 11.607 131.461H11.6078H107.6C112.341 131.461 116.053 128.189 117.806 124.372C119.56 120.556 119.786 115.865 117.807 111.556L69.8107 7.08713L69.8099 7.08633C68.0278 3.20959 64.4869 0.271134 60.198 0.0173715L60.1972 0.0173938Z" fill="#0B1D41"/>
<path fill-rule="evenodd" clip-rule="evenodd" d="M59.9544 4.13444C57.1673 3.96956 54.5401 5.77305 53.1444 8.80915L5.14849 113.278C2.27885 119.526 5.86681 127.336 11.6079 127.337H107.6C113.341 127.337 116.929 119.526 114.06 113.278L66.0632 8.80915C64.793 6.04576 62.4912 4.28433 59.9544 4.13444Z" fill="#2C5B9A"/>
<path opacity="0.992" fill-rule="evenodd" clip-rule="evenodd" d="M57.802 125.38C56.9291 125.38 56.4397 125.102 56.76 124.163L57.4546 122.127C57.4546 122.127 57.5707 121.769 57.5707 121.121C57.5707 120.474 57.4546 120.116 57.4546 120.116L53.6341 109.19H32.8135L32.8135 57.4528C44.138 62.8361 47.4166 77.7478 44.2558 92.9563C43.7581 95.3514 42.8225 97.5064 41.9342 99.5935C41.3499 100.966 41.412 102.432 41.5543 103.808H49.8172C53.7293 103.808 55.3077 100.556 55.5939 97.0966C54.4265 97.179 53.4848 97.0388 53.7829 95.0355C53.7829 95.0355 55.9487 84.0446 55.9487 73.9615C55.9487 63.8784 54.2902 52.8875 54.2902 52.8875H59.6043H64.9183C64.9183 52.8875 63.2598 63.8784 63.2598 73.9615C63.2598 84.0446 65.4256 95.0355 65.4256 95.0355C65.7237 97.0388 64.782 97.179 63.6146 97.0966C63.9008 100.556 65.4793 103.808 69.3913 103.808H77.6542C77.7964 102.432 77.8585 100.966 77.2743 99.5935C76.3861 97.5064 75.4505 95.3514 74.9527 92.9563C71.7918 77.7478 75.0705 62.8361 86.395 57.4528V109.19H65.5745L61.7539 120.116C61.7539 120.116 61.6379 120.474 61.6379 121.121C61.6379 121.769 61.7539 122.127 61.7539 122.127L62.4485 124.163C62.7688 125.102 62.2794 125.38 61.4066 125.38H59.6043H57.802Z" fill="#FFCC00"/>
<path opacity="0.992" fill-rule="evenodd" clip-rule="evenodd" d="M57.802 125.38C56.9291 125.38 56.4397 125.102 56.76 124.163L57.4546 122.127C57.4546 122.127 57.5707 121.769 57.5707 121.121C57.5707 120.474 57.4546 120.116 57.4546 120.116L53.6341 109.19H32.8135L32.8135 57.4528C44.138 62.8361 47.4166 77.7478 44.2558 92.9563C43.7581 95.3514 42.8225 97.5064 41.9342 99.5935C41.3499 100.966 41.412 102.432 41.5543 103.808H49.8172C53.7293 103.808 55.3077 100.556 55.5939 97.0966C54.4265 97.179 53.4848 97.0388 53.7829 95.0355C53.7829 95.0355 55.9487 84.0446 55.9487 73.9615C55.9487 63.8784 54.2902 52.8875 54.2902 52.8875H59.6043H64.9183C64.9183 52.8875 63.2598 63.8784 63.2598 73.9615C63.2598 84.0446 65.4256 95.0355 65.4256 95.0355C65.7237 97.0388 64.782 97.179 63.6146 97.0966C63.9008 100.556 65.4793 103.808 69.3913 103.808H77.6542C77.7964 102.432 77.8585 100.966 77.2743 99.5935C76.3861 97.5064 75.4505 95.3514 74.9527 92.9563C71.7918 77.7478 75.0705 62.8361 86.395 57.4528V109.19H65.5745L61.7539 120.116C61.7539 120.116 61.6379 120.474 61.6379 121.121C61.6379 121.769 61.7539 122.127 61.7539 122.127L62.4485 124.163C62.7688 125.102 62.2794 125.38 61.4066 125.38H59.6043H57.802Z" stroke="#FFCC00" stroke-width="2.31529"/>
</svg>
