<svg width="126" height="150" viewBox="0 0 126 150" fill="none" xmlns="http://www.w3.org/2000/svg">
<path d="M0.137804 0V58.4587C0.137804 96.6505 19.2753 132.796 62.5723 149.999C62.5727 149.999 62.5732 149.999 62.5737 150C62.5738 150 62.5736 149.999 62.5737 149.999C105.871 132.796 125.008 96.6505 125.008 58.4587V0H124.236H0.909958H0.137695H0.137804Z" fill="#F2F2F2"/>
<path d="M3.00586 2.86865V58.4588C3.00586 95.3701 21.0635 129.904 62.5726 146.868C104.082 129.904 122.139 95.3702 122.139 58.4588V2.86865H3.00586Z" fill="#030128"/>
<path d="M122.877 22.6748H2.26855V25.5444H122.877V22.6748Z" fill="#F2F2F2"/>
<path d="M22.9452 20.4913C22.9452 20.5752 22.92 20.6508 22.8696 20.7179C22.8193 20.7767 22.7311 20.827 22.6052 20.869C22.4793 20.911 22.3073 20.9404 22.089 20.9571C21.8792 20.9823 21.6148 20.9949 21.2958 20.9949C20.9769 20.9949 20.7083 20.9823 20.49 20.9571C20.2802 20.9404 20.1123 20.911 19.9864 20.869C19.8605 20.827 19.7682 20.7767 19.7094 20.7179C19.6591 20.6508 19.6339 20.5752 19.6339 20.4913V7.38453H13.5652V20.4913C13.5652 20.5752 13.5359 20.6508 13.4771 20.7179C13.4267 20.7767 13.3386 20.827 13.2127 20.869C13.0868 20.911 12.9189 20.9404 12.7091 20.9571C12.4992 20.9823 12.2306 20.9949 11.9033 20.9949C11.5843 20.9949 11.3157 20.9823 11.0975 20.9571C10.8876 20.9404 10.7198 20.911 10.5939 20.869C10.468 20.827 10.3798 20.7767 10.3295 20.7179C10.2791 20.6508 10.2539 20.5752 10.2539 20.4913V5.67222C10.2539 5.31968 10.342 5.05948 10.5183 4.8916C10.6946 4.71533 10.9296 4.6272 11.2234 4.6272H21.9883C22.2905 4.6272 22.5255 4.71533 22.6934 4.8916C22.8613 5.05948 22.9452 5.31968 22.9452 5.67222V20.4913Z" fill="#FFD700"/>
<path d="M43.4039 12.5845C43.4039 13.9358 43.236 15.1445 42.9003 16.2105C42.5645 17.2765 42.0651 18.1831 41.402 18.9301C40.7389 19.6687 39.9163 20.2353 38.9343 20.6298C37.9606 21.0159 36.8316 21.209 35.5474 21.209C34.28 21.209 33.172 21.0453 32.2235 20.718C31.2834 20.3822 30.4986 19.8744 29.8691 19.1945C29.2395 18.5146 28.7653 17.6501 28.4463 16.6008C28.1358 15.5516 27.9805 14.3094 27.9805 12.874C27.9805 11.5562 28.1483 10.3727 28.4841 9.3235C28.8198 8.26589 29.3193 7.36777 29.9824 6.62913C30.6455 5.89048 31.4639 5.32391 32.4375 4.9294C33.4196 4.5349 34.5569 4.33765 35.8496 4.33765C37.0834 4.33765 38.1704 4.50132 39.1105 4.82868C40.059 5.15603 40.848 5.65965 41.4776 6.33954C42.1155 7.01943 42.5939 7.87979 42.9129 8.92061C43.2402 9.95303 43.4039 11.1743 43.4039 12.5845ZM39.9289 12.7607C39.9289 11.9046 39.8618 11.1282 39.7275 10.4315C39.5932 9.7264 39.3623 9.12625 39.035 8.63102C38.716 8.1274 38.2879 7.74129 37.7507 7.47269C37.2135 7.1957 36.542 7.0572 35.7363 7.0572C34.9221 7.0572 34.2422 7.21249 33.6966 7.52305C33.151 7.82523 32.7103 8.23232 32.3746 8.74434C32.0388 9.25635 31.7996 9.85651 31.6569 10.5448C31.5226 11.2247 31.4555 11.9465 31.4555 12.7104C31.4555 13.6001 31.5226 14.4017 31.6569 15.1152C31.7912 15.8202 32.0178 16.4246 32.3368 16.9282C32.6558 17.4318 33.0838 17.8179 33.621 18.0865C34.1582 18.3467 34.8339 18.4768 35.6481 18.4768C36.4623 18.4768 37.1422 18.3258 37.6878 18.0236C38.2334 17.7214 38.6741 17.3101 39.0098 16.7897C39.3455 16.2693 39.5806 15.6649 39.7149 14.9767C39.8576 14.28 39.9289 13.5413 39.9289 12.7607Z" fill="#FFD700"/>
<path d="M60.4005 20.4913C60.4005 20.5752 60.3754 20.6508 60.325 20.7179C60.2746 20.7767 60.1865 20.827 60.0606 20.869C59.9347 20.911 59.7626 20.9404 59.5444 20.9572C59.3345 20.9823 59.0701 20.9949 58.7512 20.9949C58.4238 20.9949 58.1552 20.9823 57.9454 20.9572C57.7355 20.9404 57.5677 20.911 57.4418 20.869C57.3159 20.827 57.2277 20.7767 57.1774 20.7179C57.127 20.6508 57.1018 20.5752 57.1018 20.4913V7.34676H53.6016C53.3666 9.26892 53.1274 10.9477 52.884 12.383C52.6406 13.8183 52.3804 15.048 52.1034 16.072C51.8264 17.096 51.52 17.9354 51.1843 18.5901C50.8569 19.2448 50.4792 19.7652 50.0511 20.1514C49.6314 20.5291 49.153 20.7893 48.6158 20.932C48.087 21.0747 47.4826 21.146 46.8028 21.146C46.6768 21.146 46.5677 21.1292 46.4754 21.0956C46.3831 21.0621 46.3075 20.9991 46.2488 20.9068C46.1984 20.8145 46.1606 20.6843 46.1354 20.5165C46.1103 20.3486 46.0977 20.1346 46.0977 19.8744C46.0977 19.5134 46.1061 19.2238 46.1228 19.0056C46.1396 18.779 46.169 18.6069 46.211 18.4894C46.2529 18.3635 46.3075 18.2796 46.3747 18.2376C46.4418 18.1956 46.5215 18.1746 46.6139 18.1746C46.8741 18.1746 47.1217 18.1243 47.3567 18.0236C47.6001 17.9144 47.831 17.7046 48.0492 17.394C48.2758 17.0835 48.4899 16.647 48.6913 16.0846C48.9011 15.5222 49.1026 14.7836 49.2957 13.8687C49.4971 12.9454 49.6944 11.8248 49.8874 10.507C50.0889 9.18079 50.2903 7.60696 50.4918 5.78553C50.5421 5.35745 50.6429 5.05948 50.7939 4.8916C50.945 4.71533 51.1675 4.6272 51.4612 4.6272H59.4562C59.7584 4.6272 59.9892 4.71533 60.1487 4.8916C60.3166 5.05948 60.4005 5.31968 60.4005 5.67222V20.4913H60.4005Z" fill="#FFD700"/>
<path d="M69.5163 20.466C69.5163 20.5499 69.4869 20.6255 69.4282 20.6926C69.3778 20.7598 69.2897 20.8143 69.1637 20.8563C69.0378 20.8983 68.87 20.9318 68.6601 20.957C68.4503 20.9822 68.1817 20.9948 67.8543 20.9948C67.5354 20.9948 67.2668 20.9822 67.0485 20.957C66.8387 20.9318 66.6708 20.8983 66.5449 20.8563C66.419 20.8143 66.3267 20.7598 66.2679 20.6926C66.2176 20.6255 66.1924 20.5499 66.1924 20.466V5.08033C66.1924 4.9964 66.2176 4.92085 66.2679 4.8537C66.3267 4.78655 66.419 4.73199 66.5449 4.69003C66.6792 4.64806 66.8513 4.61448 67.0611 4.5893C67.271 4.56411 67.5354 4.55151 67.8543 4.55151C68.1817 4.55151 68.4503 4.56411 68.6601 4.5893C68.87 4.61449 69.0378 4.64807 69.1637 4.69003C69.2897 4.73199 69.3778 4.78655 69.4282 4.8537C69.4869 4.92085 69.5163 4.9964 69.5163 5.08033V20.466Z" fill="#FFD700"/>
<path d="M76.9818 4.55176C76.6628 4.55176 76.3941 4.56399 76.1759 4.58918C75.966 4.60597 75.7987 4.63512 75.6728 4.67708C75.5469 4.71905 75.4539 4.77356 75.3952 4.84071C75.3448 4.89946 75.3203 4.97088 75.3203 5.05481V19.8741C75.3203 20.2266 75.404 20.4916 75.5718 20.6678C75.7481 20.8357 75.983 20.9194 76.2768 20.9194H87.0542V22.6748H89.9498V18.854C89.9498 18.5938 89.9084 18.4181 89.8245 18.3257C89.749 18.225 89.6061 18.1743 89.3963 18.1743H87.9611V5.05481C87.9611 4.97088 87.9358 4.89946 87.8854 4.84071C87.835 4.77356 87.7467 4.71905 87.6208 4.67708C87.4949 4.63511 87.3276 4.60597 87.1178 4.58918C86.9079 4.56399 86.6392 4.55176 86.3118 4.55176C85.9929 4.55176 85.7241 4.56399 85.5059 4.58918C85.296 4.60597 85.1279 4.63512 85.002 4.67708C84.8761 4.71905 84.784 4.77356 84.7252 4.84071C84.6748 4.89946 84.6495 4.97088 84.6495 5.05481V18.1743H78.6311V5.05481C78.6311 4.97088 78.6066 4.89946 78.5562 4.84071C78.5059 4.77356 78.4176 4.71905 78.2917 4.67708C78.1657 4.63511 77.9976 4.60597 77.7877 4.58918C77.5779 4.56399 77.3091 4.55176 76.9818 4.55176Z" fill="#FFD700"/>
<path d="M97.8434 20.466C97.8434 20.5499 97.8141 20.6255 97.7553 20.6926C97.7049 20.7598 97.6168 20.8143 97.4909 20.8563C97.365 20.8983 97.1971 20.9318 96.9873 20.957C96.7774 20.9822 96.5088 20.9948 96.1815 20.9948C95.8625 20.9948 95.5939 20.9822 95.3757 20.957C95.1658 20.9318 94.998 20.8983 94.8721 20.8563C94.7462 20.8143 94.6538 20.7598 94.5951 20.6926C94.5447 20.6255 94.5195 20.5499 94.5195 20.466V5.08033C94.5195 4.9964 94.5447 4.92085 94.5951 4.8537C94.6538 4.78655 94.7462 4.73199 94.8721 4.69003C95.0064 4.64806 95.1784 4.61448 95.3883 4.5893C95.5981 4.56411 95.8625 4.55151 96.1815 4.55151C96.5088 4.55151 96.7774 4.56411 96.9873 4.5893C97.1971 4.61449 97.365 4.64807 97.4909 4.69003C97.6168 4.73199 97.7049 4.78655 97.7553 4.8537C97.8141 4.92085 97.8434 4.9964 97.8434 5.08033V20.466Z" fill="#FFD700"/>
<path d="M114.891 20.4913C114.891 20.5753 114.865 20.6508 114.815 20.718C114.765 20.7767 114.677 20.8271 114.551 20.869C114.433 20.911 114.265 20.9404 114.047 20.9572C113.837 20.9824 113.573 20.9949 113.254 20.9949C112.926 20.9949 112.658 20.9824 112.448 20.9572C112.238 20.9404 112.066 20.911 111.932 20.869C111.806 20.8271 111.718 20.7767 111.667 20.718C111.617 20.6508 111.592 20.5753 111.592 20.4913V14.3975H110.371C109.867 14.3975 109.481 14.4478 109.212 14.5486C108.952 14.6493 108.717 14.8046 108.507 15.0144C108.306 15.2243 108.125 15.4887 107.966 15.8076C107.806 16.1182 107.651 16.4875 107.5 16.9156L106.266 20.441C106.224 20.5417 106.17 20.6298 106.102 20.7054C106.035 20.7725 105.93 20.8313 105.788 20.8816C105.653 20.9236 105.473 20.953 105.246 20.9698C105.02 20.9865 104.73 20.9949 104.377 20.9949C103.991 20.9949 103.685 20.9823 103.458 20.9571C103.24 20.932 103.072 20.8984 102.955 20.8564C102.837 20.8061 102.762 20.7515 102.728 20.6927C102.695 20.634 102.678 20.571 102.678 20.5039C102.678 20.42 102.69 20.3192 102.716 20.2017C102.749 20.0758 102.812 19.8911 102.904 19.6477L104.126 16.4497C104.285 16.03 104.449 15.6649 104.617 15.3544C104.785 15.0438 104.969 14.7668 105.171 14.5234C105.381 14.2716 105.599 14.0617 105.825 13.8938C106.06 13.726 106.316 13.5917 106.593 13.4909C106.073 13.3483 105.611 13.1636 105.208 12.937C104.814 12.7019 104.478 12.4207 104.201 12.0934C103.933 11.7576 103.727 11.3757 103.584 10.9477C103.45 10.5112 103.383 10.0243 103.383 9.48715C103.383 8.7485 103.509 8.08121 103.761 7.48525C104.021 6.88091 104.403 6.36889 104.906 5.94921C105.41 5.52952 106.035 5.20636 106.782 4.97973C107.538 4.74471 108.587 4.6272 109.93 4.6272H113.921C114.19 4.6272 114.416 4.71114 114.601 4.87901C114.794 5.03849 114.891 5.30289 114.891 5.67222V20.4913L114.891 20.4913ZM111.592 7.1831H109.892C109.179 7.1831 108.646 7.23766 108.293 7.34678C107.941 7.4559 107.651 7.61538 107.424 7.82522C107.206 8.02667 107.047 8.27428 106.946 8.56807C106.845 8.85345 106.795 9.17241 106.795 9.52494C106.795 9.86908 106.849 10.188 106.959 10.4818C107.068 10.7672 107.236 11.019 107.462 11.2373C107.689 11.4471 107.978 11.6108 108.331 11.7283C108.683 11.8458 109.187 11.9046 109.842 11.9046H111.592V7.1831Z" fill="#FFD700"/>
<path d="M62.5747 125.04H62.5709C62.4071 125.038 62.2569 124.978 62.1205 124.862C60.9564 123.861 60.2587 122.613 59.9847 121.043C59.825 120.13 59.8268 119.242 59.8703 118.376C59.6594 118.788 59.4062 119.154 59.1083 119.481C59.1005 119.489 59.0934 119.498 59.0851 119.506C58.9516 119.648 58.7955 119.681 58.6901 119.681C58.6835 119.681 58.674 119.681 58.6668 119.68C58.6174 119.678 58.5685 119.667 58.5232 119.65C58.4237 119.616 58.3183 119.551 58.2319 119.419C57.7011 118.603 57.4288 117.62 57.399 116.412C57.3877 115.973 57.4079 115.543 57.4455 115.121C57.2572 115.397 57.0457 115.646 56.8104 115.87L56.8002 115.88C56.6424 116.025 56.5095 116.046 56.3856 116.034C56.3701 116.032 56.3558 116.031 56.3409 116.029C56.3278 116.027 56.3147 116.024 56.3016 116.02C56.2021 115.997 56.0561 115.93 55.9537 115.744C55.514 114.951 55.3257 114.02 55.3764 112.898C55.3907 112.567 55.4246 112.243 55.4699 111.925C55.2781 112.159 55.0678 112.367 54.8378 112.551C54.7121 112.651 54.5965 112.692 54.4303 112.676C54.3981 112.673 54.3665 112.666 54.3362 112.655C54.2426 112.626 54.0991 112.55 54.0097 112.358C53.6469 111.565 53.5313 110.669 53.6552 109.611C53.6826 109.383 53.7183 109.16 53.7612 108.94C53.52 109.212 53.2555 109.445 52.9665 109.643C52.9558 109.651 52.9445 109.657 52.9337 109.664C52.8194 109.733 52.7068 109.764 52.5644 109.739C52.5245 109.733 52.4863 109.723 52.45 109.706C52.3612 109.669 52.2277 109.582 52.1545 109.387C51.853 108.57 51.8059 107.666 52.0097 106.623C52.021 106.564 52.033 106.507 52.0454 106.45C51.7339 106.78 51.3931 107.049 51.0195 107.261C50.873 107.344 50.6972 107.359 50.556 107.306C50.5495 107.304 50.5435 107.301 50.5375 107.299C50.4529 107.264 50.3022 107.172 50.2355 106.952L50.2301 106.934C50.1151 106.518 50.0645 106.085 50.0782 105.63C50.0472 105.678 50.015 105.727 49.9823 105.776C49.3883 106.658 48.7163 107.264 47.9292 107.626C47.9173 107.632 47.9054 107.637 47.8935 107.641C47.7875 107.683 47.6862 107.695 47.5646 107.666C47.5253 107.659 47.4878 107.646 47.452 107.628L47.4449 107.624C47.3644 107.582 47.2256 107.48 47.1756 107.262C47.1737 107.253 47.1723 107.244 47.1702 107.236C47.1053 106.891 47.0838 106.538 47.1059 106.175C46.9802 106.361 46.8479 106.545 46.7049 106.725C46.0448 107.56 45.3293 108.112 44.5167 108.415C44.4672 108.434 44.3623 108.453 44.3087 108.453C44.267 108.453 44.2176 108.445 44.1693 108.432C44.1247 108.421 44.0806 108.404 44.0388 108.379C43.9584 108.33 43.819 108.212 43.791 107.972C43.7582 107.677 43.7565 107.379 43.7863 107.076C43.5938 107.334 43.3883 107.587 43.1643 107.832C42.4064 108.661 41.6147 109.185 40.7437 109.435C40.7234 109.441 40.7026 109.446 40.6811 109.449C40.5572 109.47 40.4773 109.457 40.3844 109.422C40.335 109.405 40.2891 109.38 40.2474 109.348C40.1765 109.291 40.0567 109.161 40.049 108.929C40.0401 108.601 40.0669 108.272 40.1294 107.942C39.8577 108.266 39.5682 108.584 39.2495 108.888C38.3755 109.719 37.4878 110.222 36.5369 110.424C36.5065 110.43 36.4321 110.439 36.4005 110.439C36.3427 110.439 36.2694 110.422 36.2021 110.396C36.1324 110.373 36.071 110.334 36.0216 110.282C35.9703 110.236 35.8607 110.098 35.8691 109.86C35.8887 109.42 35.9674 108.982 36.1068 108.545C35.5277 109.185 34.9033 109.81 34.1479 110.341C32.9903 111.155 31.7815 111.551 30.4535 111.551C30.2837 111.551 30.1127 111.544 29.9412 111.532C29.9173 111.53 29.8923 111.526 29.8691 111.52C29.7201 111.495 29.6075 111.442 29.5164 111.36C29.4979 111.344 29.4813 111.327 29.4651 111.309C29.4586 111.301 29.4521 111.293 29.4461 111.285C29.3746 111.218 29.3126 111.078 29.2954 110.908C29.2931 110.889 29.292 110.87 29.292 110.851C29.1776 109.357 29.5673 107.98 30.483 106.677C31.0174 105.918 31.6471 105.29 32.2911 104.708C31.8479 104.851 31.407 104.931 30.9626 104.951C30.7469 104.967 30.5896 104.86 30.5157 104.779L30.505 104.766C30.4413 104.693 30.3424 104.533 30.3924 104.289C30.5944 103.334 31.0972 102.447 31.9301 101.572C32.2327 101.253 32.5515 100.963 32.8762 100.691C32.5866 100.746 32.2989 100.773 32.0117 100.773H32.0113L31.894 100.772C31.6759 100.763 31.5496 100.664 31.4847 100.591C31.4752 100.58 31.4656 100.568 31.4567 100.556C31.4001 100.48 31.3143 100.316 31.3804 100.08C31.6306 99.2065 32.1555 98.4141 32.9854 97.6563C33.2303 97.4322 33.4835 97.2267 33.7414 97.0337C33.5967 97.048 33.4531 97.0551 33.3101 97.0551C33.154 97.0551 33.0009 97.0461 32.8502 97.0295C32.8407 97.0291 32.8311 97.0273 32.8222 97.0252C32.6035 96.9918 32.4915 96.8644 32.4439 96.7887C32.4355 96.7756 32.4278 96.7625 32.4212 96.7488C32.4194 96.7458 32.4183 96.7434 32.4165 96.7404C32.3884 96.6946 32.3271 96.542 32.3915 96.3371C32.3953 96.3252 32.3986 96.3138 32.4028 96.3025C32.7055 95.4899 33.2583 94.7744 34.093 94.1149C34.2741 93.9719 34.4588 93.839 34.6447 93.7133C34.5524 93.7187 34.46 93.7216 34.3683 93.7216C34.1073 93.7216 33.8482 93.6978 33.5967 93.6514C33.589 93.6499 33.5812 93.6491 33.5735 93.6471C33.3465 93.6006 33.2404 93.4606 33.1975 93.3814C33.1946 93.376 33.1916 93.37 33.1886 93.3653C33.1882 93.3634 33.1871 93.3623 33.1868 93.3605C33.1468 93.2777 33.0938 93.1079 33.1901 92.8946C33.5535 92.104 34.1588 91.432 35.0423 90.8374C35.09 90.8053 35.1383 90.7737 35.1859 90.7427C34.7361 90.7558 34.3054 90.7058 33.8973 90.5938C33.8907 90.5919 33.8836 90.5904 33.877 90.5878C33.6679 90.5246 33.5714 90.393 33.5279 90.2935C33.5184 90.2732 33.5112 90.2523 33.5053 90.2309C33.4773 90.1368 33.4618 89.9831 33.5601 89.8073C33.7733 89.4314 34.0426 89.0888 34.3745 88.7766C34.3185 88.7886 34.2631 88.7998 34.2065 88.8112C33.1692 89.0126 32.2523 88.9655 31.4457 88.6682C31.2449 88.5961 31.1573 88.4567 31.1198 88.365C31.1085 88.3369 31.0995 88.3084 31.0936 88.2786V88.2767C31.0775 88.2332 31.0512 88.0551 31.1841 87.8591C31.3831 87.5672 31.6184 87.3009 31.8919 87.059C31.6715 87.1019 31.4469 87.1376 31.2175 87.165C30.1576 87.2889 29.2634 87.1745 28.4752 86.8129C28.3036 86.7319 28.2237 86.6122 28.1868 86.521C28.1695 86.4817 28.1582 86.44 28.1534 86.3965C28.1409 86.2988 28.1505 86.1451 28.275 85.9872C28.4608 85.7548 28.6712 85.5427 28.9065 85.3491C28.5878 85.395 28.2631 85.429 27.9312 85.4438C26.7998 85.4963 25.8782 85.3056 25.0858 84.8659C24.8904 84.7557 24.8261 84.6014 24.8058 84.5043C24.798 84.4715 24.7939 84.4376 24.7939 84.4042C24.7867 84.3637 24.7939 84.1874 24.953 84.0176C25.18 83.7781 25.432 83.5636 25.712 83.3735C25.3652 83.4039 25.0137 83.4236 24.6569 83.4236L24.4174 83.4206C23.2097 83.3903 22.2267 83.118 21.4123 82.5889C21.2395 82.4745 21.1794 82.3316 21.1591 82.2303C21.152 82.1993 21.1484 82.1671 21.1484 82.1344V82.1333C21.1441 82.0642 21.1621 81.8818 21.3414 81.718C21.6673 81.4195 22.0331 81.1663 22.4436 80.9542C21.5076 81.0031 20.5746 80.9793 19.7787 80.8398C18.2094 80.5664 16.9607 79.8687 15.9622 78.707C15.846 78.5711 15.7864 78.424 15.7829 78.2685C15.7814 78.2429 15.7825 78.2167 15.7858 78.1904C15.784 78.0802 15.8436 77.9313 15.9574 77.7961C16.9601 76.6295 18.2082 75.9313 19.7781 75.6578C20.574 75.5184 21.5094 75.4964 22.4447 75.5434C22.0313 75.3314 21.6625 75.0764 21.3348 74.7761C21.1543 74.611 21.1364 74.4288 21.1418 74.3352C21.1422 74.3281 21.1433 74.3221 21.1436 74.315C21.1474 74.2715 21.1579 74.228 21.1752 74.1869C21.2092 74.091 21.2747 73.9897 21.4034 73.9057C22.219 73.3748 23.202 73.1026 24.4097 73.0722L24.6486 73.0692C25.0054 73.0692 25.3569 73.0883 25.7031 73.1193C25.429 72.9322 25.1812 72.7231 24.9584 72.4896C24.958 72.4884 24.9565 72.4877 24.9554 72.4866C24.9536 72.4844 24.9516 72.4818 24.9495 72.4794C24.9495 72.4794 24.9491 72.4795 24.9491 72.4791C24.7864 72.3015 24.7799 72.1282 24.7894 72.0394C24.7913 72.0269 24.7927 72.015 24.7954 72.0025C24.7996 71.9798 24.8061 71.9572 24.8138 71.9351C24.8448 71.841 24.9157 71.7183 25.0766 71.6277C25.8725 71.1869 26.7906 70.9956 27.9249 71.0492C28.2562 71.0635 28.5797 71.0975 28.8972 71.1428C28.6637 70.9509 28.4552 70.7406 28.2705 70.51C28.1317 70.3313 28.1329 70.1645 28.1501 70.0704C28.1549 70.0454 28.1614 70.0209 28.1698 69.9971C28.2026 69.903 28.2806 69.7665 28.4676 69.6807C29.2547 69.3191 30.1489 69.2035 31.2106 69.328C31.4393 69.3549 31.6633 69.3912 31.8838 69.4341C31.6109 69.1922 31.3768 68.9277 31.179 68.6376C31.1742 68.631 31.17 68.6245 31.1659 68.6179C31.0473 68.4309 31.07 68.2617 31.0968 68.1741C31.1057 68.1425 31.1188 68.1109 31.1349 68.0823C31.182 67.993 31.2719 67.8833 31.4453 67.8226C32.2484 67.5259 33.1552 67.477 34.2008 67.682C34.2419 67.6898 34.283 67.6981 34.3241 67.707C34.0113 67.405 33.7551 67.0767 33.552 66.7174C33.4346 66.5083 33.4745 66.3332 33.5091 66.2474C33.5156 66.2301 33.5234 66.2134 33.5323 66.1973C33.5776 66.1109 33.6723 65.9918 33.8618 65.9346C33.8672 65.9328 33.8725 65.9313 33.8785 65.9298V65.9295C34.308 65.8115 34.7638 65.7615 35.2368 65.7805C35.1737 65.74 35.1099 65.6989 35.0474 65.6566C34.1644 65.0626 33.5591 64.3906 33.1963 63.6036C33.1117 63.4123 33.1403 63.2604 33.1761 63.1699C33.1764 63.1687 33.1775 63.1669 33.1779 63.1656C33.1827 63.153 33.188 63.1411 33.194 63.1286C33.1962 63.1239 33.1983 63.1197 33.2012 63.1149C33.2446 63.0339 33.3513 62.8915 33.5813 62.8462C33.9334 62.7795 34.2873 62.7599 34.6495 62.7807C34.463 62.655 34.2783 62.5221 34.0972 62.3786C33.2625 61.719 32.7097 61.0035 32.4076 60.1909C32.4033 60.1795 32.3998 60.1682 32.3963 60.1569C32.3373 59.9686 32.3843 59.8233 32.4284 59.7405C32.4344 59.7286 32.4415 59.7166 32.4487 59.7053C32.4975 59.629 32.6125 59.4974 32.8377 59.467C32.8597 59.4637 32.8818 59.4616 32.9038 59.4616C33.0975 59.4342 33.4424 59.43 33.7456 59.4605C33.4883 59.2674 33.2351 59.0619 32.9896 58.8379C32.1603 58.0801 31.636 57.2883 31.3864 56.4179C31.3203 56.1772 31.4055 56.014 31.4621 55.9377L31.48 55.9145C31.5407 55.8418 31.6694 55.7304 31.8934 55.7227L32.0161 55.7208C32.3033 55.7208 32.5911 55.7477 32.8812 55.8024C32.5565 55.5307 32.2378 55.2412 31.9345 54.9231C31.1022 54.0473 30.6 53.1602 30.3986 52.2099C30.3474 51.9609 30.4469 51.8006 30.5106 51.7267C30.5184 51.7178 30.5267 51.7095 30.5351 51.7012L30.5404 51.6958C30.581 51.6499 30.7126 51.5421 30.9354 51.5421C31.3918 51.5623 31.8392 51.6422 32.2849 51.7839C31.6426 51.2037 31.0147 50.5775 30.4821 49.8197C29.5664 48.5167 29.1767 47.1405 29.2923 45.6129C29.2927 45.607 29.2934 45.6016 29.2942 45.5957C29.3108 45.4223 29.374 45.2787 29.4836 45.1679C29.4925 45.159 29.5021 45.1495 29.5122 45.1412C29.6236 45.0393 29.7654 44.9809 29.934 44.9666C31.5056 44.848 32.8414 45.2377 34.1473 46.1558C34.9045 46.6884 35.5307 47.3163 36.1109 47.958C35.9697 47.5177 35.8899 47.0786 35.8702 46.6371C35.8619 46.403 35.9644 46.2648 36.0347 46.1986C36.0418 46.1909 36.0502 46.1832 36.0585 46.1766C36.0604 46.1744 36.0628 46.1723 36.065 46.1707C36.0907 46.1498 36.1181 46.1319 36.1484 46.1165L36.1488 46.1183C36.1542 46.1161 36.1595 46.1136 36.1643 46.1112C36.2918 46.0534 36.4217 46.0414 36.542 46.0688C37.4875 46.2684 38.3752 46.7712 39.2504 47.6041C39.5685 47.9068 39.8581 48.2249 40.1297 48.549C40.0672 48.2202 40.041 47.8937 40.0493 47.5678C40.0577 47.3307 40.1774 47.2008 40.2483 47.1442C40.2483 47.1442 40.2483 47.1438 40.2487 47.1438C40.2588 47.1355 40.2689 47.1277 40.2796 47.1206C40.291 47.1128 40.3041 47.1057 40.3178 47.0985C40.3387 47.0872 40.3607 47.0777 40.3833 47.0699C40.5108 47.0235 40.6282 47.0235 40.7414 47.0557C41.6148 47.3059 42.4071 47.8307 43.1644 48.6601C43.3884 48.9049 43.5939 49.1581 43.7864 49.4149C43.7566 49.114 43.7583 48.8173 43.7906 48.5242C43.818 48.3062 43.9306 48.1894 44.0099 48.1328C44.0593 48.0971 44.1153 48.072 44.1749 48.0583C44.2976 48.025 44.3995 48.0351 44.5073 48.0738C45.3301 48.3789 46.0456 48.9317 46.7051 49.767C46.8481 49.9475 46.981 50.131 47.1061 50.3169C47.0841 49.9535 47.1061 49.6014 47.171 49.2564C47.2169 49.0277 47.3509 48.9198 47.4361 48.8728C47.4689 48.8555 47.5035 48.8411 47.5386 48.8322C47.6745 48.7947 47.7918 48.8078 47.908 48.8567C47.9158 48.8597 47.9223 48.8627 47.9295 48.8657C48.7171 49.2285 49.3885 49.8338 49.9831 50.7167C50.0152 50.765 50.0474 50.8132 50.0784 50.8615C50.0647 50.4081 50.116 49.9768 50.2303 49.5627C50.2947 49.331 50.449 49.2356 50.5354 49.1987C50.5639 49.1868 50.5943 49.1772 50.6247 49.1713C50.7677 49.1403 50.8845 49.1648 51.0066 49.2291C51.3885 49.4453 51.7334 49.7176 52.048 50.0507C52.0355 49.9941 52.0236 49.9374 52.0123 49.8797C51.8085 48.8359 51.8556 47.9327 52.1553 47.1195C52.2339 46.9139 52.3721 46.8275 52.4633 46.7918C52.474 46.787 52.4841 46.7835 52.4954 46.7799C52.6426 46.7322 52.8207 46.7602 52.9637 46.8561C53.2556 47.0551 53.5213 47.2898 53.7632 47.5633C53.7209 47.3435 53.6852 47.1195 53.6578 46.8907C53.5339 45.8338 53.6495 44.9371 54.0099 44.1489C54.0993 43.9559 54.241 43.8791 54.334 43.8481C54.3351 43.8477 54.3373 43.847 54.3394 43.8462C54.368 43.8367 54.3983 43.8301 54.4287 43.8265C54.5521 43.8128 54.6772 43.8206 54.8386 43.9499C55.0698 44.1346 55.2801 44.3431 55.4725 44.5772C55.4272 44.2597 55.3933 43.9356 55.3784 43.6043C55.3278 42.4819 55.5166 41.5513 55.9557 40.7589C56.0689 40.5558 56.2333 40.4944 56.3298 40.4759C56.3352 40.4748 56.3411 40.4741 56.3465 40.473C56.3715 40.4687 56.3906 40.4665 56.4216 40.4676C56.5246 40.4676 56.667 40.4956 56.8058 40.6261C57.0442 40.8525 57.258 41.1033 57.4481 41.3821C57.4105 40.9597 57.3903 40.5302 57.401 40.0905C57.4314 38.8829 57.7037 37.8999 58.2327 37.0854C58.3555 36.896 58.5175 36.8418 58.6176 36.8275C58.6241 36.8264 58.6307 36.8256 58.6367 36.8245C58.6498 36.8234 58.6599 36.8167 58.676 36.8223C58.6927 36.8219 58.7099 36.8227 58.7272 36.8241C58.8368 36.8325 58.9644 36.873 59.0871 36.9957C59.0936 37.0023 59.1002 37.0088 59.1062 37.016C59.4046 37.3419 59.6584 37.7083 59.8699 38.1199C59.8264 37.2549 59.8252 36.3678 59.9843 35.4551C60.2584 33.8852 60.956 32.6371 62.1177 31.6386C62.1326 31.626 62.1493 31.6135 62.1654 31.6028C62.2572 31.5206 62.4055 31.4616 62.5634 31.4592H62.5807C62.7451 31.4611 62.8946 31.5206 63.0311 31.6362L63.0394 31.644C64.1976 32.6419 64.8934 33.8888 65.1669 35.4551C65.3259 36.3666 65.3248 37.2525 65.2813 38.1158C65.4928 37.7053 65.7466 37.3395 66.0444 37.0137C66.1946 36.8528 66.3513 36.82 66.4573 36.82H66.4662C66.5258 36.82 66.5854 36.8326 66.6402 36.8569C66.7319 36.8903 66.8267 36.9529 66.9065 37.0691C66.9103 37.0738 66.913 37.0786 66.916 37.0834H66.9164C67.4454 37.8978 67.7177 38.8808 67.7481 40.0884C67.7588 40.5287 67.7386 40.9595 67.7011 41.3825C67.8905 41.1036 68.1038 40.8534 68.3409 40.6276C68.5 40.4775 68.637 40.459 68.7603 40.4668C68.7758 40.4671 68.7907 40.469 68.8056 40.4715C68.8187 40.4737 68.8306 40.4763 68.8432 40.4792C68.9409 40.503 69.088 40.5686 69.1923 40.7539C69.6325 41.5486 69.822 42.4798 69.7714 43.6023C69.7565 43.9341 69.7231 44.2588 69.6772 44.5775C69.8697 44.3428 70.08 44.1343 70.3105 43.9496L70.3249 43.9389C70.503 43.8024 70.6555 43.8066 70.7687 43.8328C70.7896 43.8371 70.8092 43.8429 70.8277 43.8501C70.9212 43.8828 71.0553 43.9615 71.1399 44.1468C71.5015 44.9332 71.6165 45.8304 71.4926 46.8891C71.4658 47.1179 71.4294 47.3425 71.3871 47.5629C71.6266 47.2912 71.8899 47.0583 72.1783 46.8611C72.1837 46.8568 72.1902 46.8527 72.1962 46.8485C72.3332 46.7598 72.5048 46.7312 72.6478 46.7753C72.6621 46.7795 72.677 46.7848 72.6907 46.7908C72.783 46.8277 72.9254 46.9165 72.9981 47.1226C73.296 47.9293 73.3424 48.8325 73.1387 49.878C73.1274 49.9352 73.116 49.9918 73.1035 50.0484C73.4151 49.7172 73.7559 49.4485 74.1294 49.2364C74.1372 49.2321 74.1443 49.2286 74.1521 49.2245C74.2611 49.1661 74.3898 49.1405 74.5328 49.1738C74.5578 49.1792 74.5822 49.1864 74.606 49.1959C74.6948 49.2322 74.8539 49.3276 74.9176 49.5641C75.0326 49.9775 75.0833 50.4089 75.0702 50.8623C75.1 50.8152 75.1309 50.7687 75.1619 50.7223C75.7571 49.8393 76.4285 49.2334 77.2155 48.8712C77.2227 48.8679 77.2304 48.864 77.2382 48.8611C77.3519 48.8134 77.464 48.7985 77.598 48.8348C77.626 48.842 77.6534 48.8515 77.6796 48.8634C77.6834 48.8653 77.6862 48.8672 77.6898 48.8682C77.6981 48.8729 77.7077 48.8777 77.7166 48.883C77.8035 48.9331 77.931 49.0409 77.9727 49.2584C78.0389 49.6051 78.0603 49.9596 78.0383 50.3242C78.164 50.1377 78.2968 49.953 78.4398 49.7719C79.0999 48.9373 79.8154 48.3844 80.6275 48.0817C80.6775 48.0638 80.783 48.0436 80.836 48.0436C80.9176 48.0436 80.9957 48.062 81.0672 48.0978C81.0815 48.1044 81.0952 48.1127 81.1095 48.1211C81.1893 48.1705 81.3257 48.2885 81.3537 48.525C81.3865 48.8205 81.3883 49.1184 81.3585 49.4211C81.5515 49.1637 81.7571 48.9099 81.9811 48.665C82.7389 47.8357 83.5307 47.3108 84.4011 47.0612C84.4416 47.0499 84.5292 47.0368 84.5709 47.0368C84.6799 47.0368 84.7836 47.0689 84.87 47.1291L84.8879 47.1417C84.9051 47.1554 84.9218 47.1697 84.9379 47.1858C84.9838 47.2186 85.0874 47.346 85.0958 47.5653C85.1047 47.8953 85.0779 48.2254 85.016 48.5572C85.2882 48.2319 85.5778 47.9132 85.8965 47.6094C86.7717 46.7771 87.6588 46.2748 88.6096 46.0729C88.64 46.0669 88.7145 46.058 88.7449 46.058C88.8742 46.058 88.9921 46.1003 89.0868 46.1801C89.1035 46.1944 89.1184 46.2093 89.1333 46.2254C89.1352 46.2273 89.1363 46.2287 89.1376 46.2308C89.2049 46.3041 89.2835 46.4357 89.2758 46.6371C89.2567 47.0827 89.1763 47.5242 89.0345 47.9669C89.616 47.3228 90.2439 46.6925 91.003 46.1587C92.3101 45.2406 93.6988 44.8563 95.2109 44.9689C95.2131 44.9689 95.2156 44.9693 95.218 44.9693C95.4283 44.9866 95.5648 45.0742 95.644 45.148L95.6547 45.1588C95.6577 45.161 95.6601 45.1635 95.6631 45.1666C95.7739 45.2804 95.8364 45.4198 95.8555 45.5872C95.8585 45.6074 95.8603 45.6289 95.8603 45.6498C95.9741 47.1433 95.5844 48.5196 94.6687 49.8231C94.1391 50.5768 93.5147 51.2 92.876 51.7778C93.3127 51.639 93.7477 51.561 94.1855 51.5413H94.1878C94.3999 51.5413 94.5268 51.617 94.5977 51.6795C94.6084 51.6891 94.6191 51.6998 94.6286 51.7105C94.6346 51.7159 94.6399 51.7224 94.6453 51.7284V51.7281C94.7091 51.8031 94.808 51.9646 94.7538 52.21C94.5524 53.1591 94.0507 54.0468 93.2178 54.9214C92.9152 55.2395 92.5965 55.5291 92.2718 55.8013C92.5619 55.7465 92.8497 55.7191 93.1368 55.7191L93.2548 55.7209C93.371 55.7239 93.4615 55.7555 93.53 55.7948C93.6814 55.8651 93.7868 56.0177 93.7886 56.1946C93.7946 56.2583 93.7901 56.3316 93.7666 56.4138C93.5169 57.286 92.9921 58.0784 92.1628 58.8368C91.9173 59.0608 91.6641 59.2658 91.4067 59.4594C91.7082 59.429 92.0085 59.4308 92.2986 59.4627L92.3129 59.4646C92.5214 59.492 92.6358 59.6046 92.6918 59.685C92.7103 59.7106 92.7258 59.7381 92.7377 59.7672C92.7771 59.853 92.8098 59.9877 92.7562 60.1569C92.7532 60.1676 92.7496 60.1789 92.7454 60.189C92.4428 61.0017 91.8905 61.7178 91.0552 62.3767C90.8741 62.5203 90.69 62.6531 90.5035 62.7788C90.8628 62.7562 91.2191 62.7777 91.5628 62.8426L91.5718 62.8444C91.7809 62.8856 91.8881 63.0059 91.9399 63.0923C91.9418 63.0945 91.9422 63.097 91.9442 63.0994C91.9639 63.1328 91.9788 63.1673 91.9895 63.2025C92.0187 63.2978 92.0318 63.4348 91.9585 63.5975C91.5945 64.3875 90.9892 65.0595 90.1057 65.6547C90.0556 65.6887 90.0056 65.7214 89.9555 65.7536C90.4161 65.7405 90.8474 65.7912 91.2603 65.9055C91.4801 65.9627 91.579 66.1111 91.6189 66.198C91.6211 66.2046 91.6249 66.2111 91.6273 66.2183C91.6642 66.307 91.7071 66.487 91.5849 66.6961C91.3728 67.0702 91.103 67.4116 90.7711 67.7244C90.8277 67.7119 90.8849 67.6999 90.9427 67.6887C91.9793 67.4861 92.8962 67.5344 93.7041 67.8316C93.9025 67.9115 93.9906 68.0366 94.03 68.1379C94.0365 68.1527 94.0419 68.1683 94.0466 68.1838C94.0722 68.2701 94.0955 68.4417 93.9722 68.6306C93.9692 68.6354 93.9662 68.6395 93.9632 68.6437C93.7648 68.9344 93.5307 69.1995 93.2572 69.4408C93.4782 69.3979 93.7029 69.3622 93.9316 69.3348C94.9921 69.2103 95.8857 69.3252 96.6745 69.6875C96.8539 69.7703 96.9325 69.899 96.9671 69.9907C96.9742 70.008 96.9802 70.0253 96.9843 70.0431C97.0296 70.1617 97.0141 70.2713 96.9552 70.3851C96.9509 70.3935 96.9456 70.4018 96.9408 70.4096C96.9265 70.4375 96.9087 70.4662 96.8878 70.4948C96.8824 70.5026 96.8771 70.5096 96.8717 70.5168C96.6864 70.7474 96.4779 70.9583 96.2432 71.1507C96.5613 71.1048 96.886 71.0709 97.2179 71.056C98.3522 71.0041 99.2709 71.1942 100.063 71.6339C100.257 71.7441 100.322 71.8966 100.343 71.9919C100.349 72.0163 100.353 72.0414 100.355 72.067C100.361 72.1671 100.343 72.3285 100.195 72.4846C100.191 72.4894 100.186 72.4936 100.182 72.4984C99.9607 72.7307 99.7141 72.9392 99.4395 73.1263C99.8625 73.0893 100.296 73.0709 100.732 73.0793C101.939 73.1096 102.922 73.3813 103.737 73.9115C103.905 74.0218 103.967 74.1594 103.988 74.2601C103.998 74.2976 104.002 74.3363 104.001 74.3744C104.005 74.4436 103.983 74.6175 103.812 74.7784C103.486 75.0769 103.121 75.3307 102.713 75.5422C103.646 75.4957 104.576 75.5195 105.368 75.6571C106.937 75.9306 108.185 76.6288 109.184 77.7906C109.191 77.7984 109.197 77.8061 109.203 77.815C109.306 77.9425 109.36 78.0819 109.363 78.2303C109.363 78.2416 109.363 78.2529 109.363 78.2642C109.358 78.4263 109.298 78.5716 109.186 78.7033C108.186 79.8674 106.937 80.5657 105.368 80.8397C104.828 80.9333 104.255 80.9791 103.614 80.9791C103.309 80.9791 103.004 80.969 102.703 80.9541C103.114 81.1656 103.482 81.42 103.808 81.7185C103.979 81.8782 104.007 82.0438 104.002 82.1552C104 82.2064 103.988 82.2571 103.969 82.3041C103.935 82.403 103.869 82.5061 103.739 82.5901C102.925 83.1203 101.942 83.3926 100.734 83.4224C100.653 83.4246 100.563 83.4295 100.493 83.4257C100.136 83.4257 99.7857 83.4061 99.4396 83.3757C99.7184 83.5651 99.9692 83.7778 100.195 84.0155C100.202 84.0221 100.208 84.0292 100.213 84.0364C100.343 84.1841 100.362 84.3349 100.356 84.4314C100.354 84.4612 100.35 84.4915 100.342 84.5201C100.318 84.619 100.252 84.7638 100.069 84.8663C100.066 84.8681 100.063 84.8696 100.06 84.871C99.3508 85.263 98.5346 85.4537 97.5647 85.4537C97.4527 85.4537 97.3377 85.4515 97.2203 85.4459C96.8878 85.4311 96.5631 85.3971 96.2444 85.3512C96.4791 85.5436 96.6877 85.7545 96.8729 85.9851L96.8726 85.9855L96.8815 85.9962C97.0156 86.1696 97.0102 86.3388 96.9912 86.4329C96.9879 86.4496 96.9835 86.4663 96.9786 86.4829C96.9506 86.5729 96.8773 86.7177 96.6855 86.8094C96.6826 86.8113 96.6789 86.8127 96.6754 86.8142C95.8872 87.1764 94.9953 87.2908 93.9324 87.1669C93.7043 87.1395 93.4802 87.1037 93.2592 87.0608C93.5327 87.3021 93.7668 87.5672 93.9646 87.8574C94.0897 88.0444 94.0766 88.2107 94.0516 88.3048C94.0456 88.3286 94.0373 88.3518 94.0272 88.3739C93.9878 88.4686 93.8979 88.6021 93.6983 88.6718C92.897 88.9685 91.9908 89.0173 90.9446 88.813C90.888 88.8016 90.8314 88.7903 90.7754 88.7778C91.1055 89.0894 91.3742 89.4302 91.5863 89.8043C91.5885 89.8076 91.5906 89.8115 91.5928 89.8157C91.6947 90.0045 91.6685 90.166 91.6339 90.2601L91.6286 90.275C91.594 90.3638 91.501 90.5228 91.2663 90.5901C91.2616 90.5913 91.2568 90.5924 91.2515 90.5935C90.8428 90.7061 90.409 90.7573 89.9592 90.743C90.0063 90.7734 90.054 90.8044 90.101 90.8359C90.9834 91.4305 91.5893 92.1019 91.9521 92.8896C92.0361 93.079 92.0087 93.2304 91.9723 93.3221C91.967 93.3358 91.9622 93.3483 91.9557 93.362C91.9151 93.4448 91.8151 93.5896 91.5916 93.6409C91.5815 93.6438 91.5714 93.6462 91.5619 93.648C91.2181 93.7135 90.8612 93.7344 90.4996 93.7123C90.6855 93.8381 90.8702 93.9703 91.0507 94.1133C91.8859 94.7734 92.4382 95.4895 92.7409 96.3016C92.7993 96.4732 92.7808 96.6054 92.7431 96.7001C92.727 96.7448 92.7032 96.7877 92.6734 96.8247C92.6126 96.9027 92.4976 97.0046 92.2975 97.0278C91.9996 97.06 91.7035 97.0618 91.4008 97.0321C91.6588 97.2251 91.9126 97.4313 92.1575 97.6553C92.9862 98.4131 93.511 99.2043 93.7613 100.075C93.8238 100.302 93.75 100.461 93.6975 100.539C93.6904 100.549 93.6826 100.56 93.6755 100.569C93.6183 100.641 93.4872 100.764 93.2519 100.77L93.1298 100.772C92.8432 100.772 92.556 100.744 92.2665 100.69C92.5912 100.962 92.9099 101.251 93.2132 101.57C94.0461 102.446 94.5483 103.333 94.7491 104.283C94.7717 104.382 94.7687 104.468 94.752 104.54C94.7294 104.694 94.6281 104.824 94.4905 104.885C94.4196 104.922 94.3076 104.959 94.1854 104.95C93.7434 104.93 93.3061 104.852 92.8664 104.712C93.508 105.291 94.136 105.918 94.668 106.674C95.5849 107.979 95.974 109.355 95.8584 110.882C95.8562 110.908 95.8518 110.935 95.8453 110.961C95.8137 111.138 95.7416 111.246 95.6796 111.314C95.6659 111.329 95.6522 111.343 95.6373 111.356C95.5283 111.455 95.3889 111.513 95.2209 111.529C95.0398 111.542 94.8688 111.549 94.6984 111.549C93.3698 111.549 92.1616 111.154 91.0034 110.34C90.2444 109.806 89.6165 109.176 89.035 108.532C89.1774 108.974 89.2578 109.416 89.2775 109.86C89.2853 110.074 89.2 110.208 89.1315 110.28C89.1268 110.286 89.1214 110.291 89.116 110.296C89.1035 110.309 89.088 110.322 89.0714 110.334C89.0404 110.357 89.0076 110.375 88.9725 110.39C88.8748 110.433 88.7967 110.453 88.6579 110.436C88.6418 110.435 88.6257 110.432 88.6109 110.429C87.6606 110.228 86.7735 109.726 85.8983 108.892C85.5796 108.59 85.2895 108.271 85.0178 107.946C85.0803 108.276 85.1065 108.603 85.0982 108.929C85.0899 109.138 85.0017 109.262 84.9207 109.335C84.907 109.348 84.8921 109.359 84.8766 109.371C84.8611 109.381 84.8426 109.392 84.8235 109.402C84.8092 109.409 84.7944 109.416 84.7795 109.422C84.6824 109.459 84.5972 109.476 84.4667 109.454C84.4447 109.452 84.4232 109.447 84.4023 109.441C83.5319 109.191 82.7408 108.666 81.9829 107.837C81.7589 107.592 81.5534 107.339 81.3604 107.082C81.3907 107.383 81.3889 107.68 81.3561 107.973C81.3304 108.191 81.2155 108.309 81.1333 108.366C81.1184 108.377 81.1016 108.387 81.085 108.396C81.0689 108.405 81.0511 108.413 81.032 108.42C81.0254 108.422 81.0189 108.425 81.0129 108.427C80.9551 108.446 80.8884 108.459 80.8377 108.459C80.7877 108.459 80.687 108.44 80.6393 108.423C79.8172 108.118 79.1017 107.565 78.4416 106.73C78.2986 106.549 78.1651 106.365 78.04 106.178C78.0627 106.542 78.0404 106.896 77.9757 107.241C77.9286 107.48 77.782 107.587 77.698 107.63L77.6915 107.634C77.6861 107.637 77.6802 107.639 77.6748 107.641C77.6676 107.644 77.6593 107.648 77.6504 107.652C77.6355 107.657 77.6194 107.662 77.6039 107.666C77.5562 107.679 77.5032 107.687 77.4627 107.687C77.399 107.687 77.2792 107.659 77.2208 107.632C76.4303 107.269 75.7582 106.663 75.1636 105.78C75.132 105.732 75.1005 105.684 75.0695 105.637C75.0826 106.09 75.032 106.521 74.917 106.934C74.8574 107.165 74.699 107.262 74.6102 107.299C74.5893 107.308 74.5678 107.315 74.5458 107.32C74.3951 107.36 74.2599 107.335 74.1312 107.262C73.7541 107.048 73.4115 106.777 73.0987 106.444C73.1106 106.5 73.1225 106.557 73.1333 106.614C73.337 107.659 73.2899 108.561 72.9897 109.375C72.9563 109.468 72.9093 109.536 72.8586 109.587C72.8008 109.652 72.724 109.7 72.6364 109.722C72.5292 109.768 72.4267 109.758 72.3147 109.711C72.2998 109.703 72.2849 109.696 72.2712 109.688C72.2414 109.674 72.2122 109.658 72.183 109.639C71.8905 109.439 71.6236 109.204 71.3811 108.929C71.424 109.15 71.4604 109.375 71.4866 109.603C71.6111 110.663 71.4961 111.559 71.1351 112.346C71.0957 112.43 71.0469 112.492 70.9963 112.538C70.917 112.618 70.8074 112.669 70.6865 112.67C70.5334 112.676 70.4249 112.636 70.3105 112.547C70.077 112.36 69.8649 112.15 69.6719 111.914C69.7171 112.233 69.7505 112.557 69.766 112.89C69.8166 114.013 69.6272 114.943 69.1887 115.734C69.1351 115.83 69.0719 115.893 69.0094 115.936C68.9343 115.993 68.8414 116.027 68.7395 116.027C68.7365 116.027 68.7318 116.027 68.7282 116.027C68.7253 116.027 68.7222 116.027 68.7193 116.027V116.028C68.6275 116.028 68.4917 116.002 68.3576 115.884C68.3457 115.875 68.3344 115.865 68.3243 115.854C68.0919 115.634 67.8828 115.387 67.6958 115.113C67.7333 115.535 67.7535 115.965 67.7422 116.405C67.7124 117.612 67.4402 118.595 66.9105 119.409C66.8414 119.516 66.7586 119.581 66.6829 119.618C66.6174 119.654 66.537 119.672 66.4625 119.673H66.4566C66.4555 119.673 66.4536 119.673 66.4518 119.673V119.673C66.3464 119.673 66.1897 119.64 66.0437 119.485C66.0366 119.478 66.0294 119.469 66.0229 119.46C65.7333 119.139 65.4873 118.783 65.2817 118.387C65.3253 119.249 65.3258 120.134 65.1674 121.044C64.8933 122.614 64.195 123.862 63.0339 124.861H63.0335C63.0324 124.862 63.0313 124.863 63.0302 124.864C62.8997 124.975 62.7568 125.034 62.6048 125.039C62.5947 125.039 62.5852 125.04 62.575 125.04" fill="#B1B1B1"/>
<path d="M62.5724 31.9236C62.5718 31.9236 62.5712 31.9237 62.5705 31.9238C62.5196 31.9242 62.4675 31.9457 62.4115 31.9931C62.4107 31.9937 62.4099 31.9942 62.4091 31.9948V31.9949C62.409 31.995 62.4089 31.9951 62.4087 31.9952C61.3751 32.8835 60.6902 34.0283 60.425 35.5481C60.1718 36.9993 60.3431 38.3852 60.425 39.7962L62.5194 75.8528L62.5241 77.7074H62.5735V31.9236C62.5732 31.9236 62.5728 31.9236 62.5724 31.9236L62.5724 31.9236Z" fill="white"/>
<path d="M108.899 78.2445C108.899 78.2439 108.899 78.2433 108.899 78.2427C108.898 78.1917 108.877 78.1396 108.83 78.0836C108.829 78.0828 108.828 78.082 108.828 78.0813C108.828 78.0811 108.827 78.081 108.827 78.0808C107.939 77.0472 106.794 76.3623 105.275 76.0972C103.823 75.8439 102.437 76.0152 101.026 76.0972L64.9698 78.1915L63.1152 78.1962V78.2456H108.899C108.899 78.2453 108.899 78.2449 108.899 78.2445L108.899 78.2445Z" fill="white"/>
<path d="M16.2471 78.2517H62.0308V78.3011L60.1763 78.3058L24.1196 80.4002C22.7086 80.4822 21.3227 80.6535 19.8715 80.4002C18.3517 80.1351 17.2069 79.4502 16.3186 78.4166C16.3184 78.4164 16.3183 78.4162 16.3182 78.4161C16.3179 78.4157 16.3177 78.4154 16.3175 78.4151C16.2693 78.3586 16.2476 78.306 16.2472 78.2547C16.2471 78.2537 16.2471 78.2527 16.2471 78.2517L16.2471 78.2517Z" fill="white"/>
<path d="M62.5782 124.576C62.5788 124.576 62.5795 124.576 62.5801 124.576C62.6311 124.575 62.6832 124.554 62.7392 124.507C62.74 124.506 62.7407 124.505 62.7415 124.505C62.7416 124.505 62.7417 124.505 62.7419 124.504C63.7756 123.616 64.4604 122.471 64.7256 120.952C64.9788 119.5 64.8075 118.114 64.7256 116.703L62.6313 80.6468L62.6266 78.7922H62.5771V124.576C62.5775 124.576 62.5779 124.576 62.5782 124.576L62.5782 124.576Z" fill="white"/>
<path d="M95.33 45.4914C95.3296 45.4909 95.3291 45.4906 95.3286 45.4901C95.2922 45.4544 95.2402 45.4328 95.1671 45.4267C95.1661 45.4266 95.1653 45.4264 95.1643 45.4262V45.4263C95.1643 45.4263 95.1639 45.4263 95.1637 45.4262C93.8047 45.3235 92.5109 45.6487 91.2488 46.5358C90.0435 47.383 89.1847 48.4841 88.2449 49.5397L64.2299 76.5165L62.9219 77.8312L62.9568 77.8662L95.3309 45.4921C95.3304 45.4919 95.3304 45.4916 95.3301 45.4914L95.33 45.4914Z" fill="white"/>
<path d="M95.3338 111.003C95.3342 111.003 95.3346 111.002 95.335 111.002C95.3707 110.966 95.3923 110.914 95.3984 110.84C95.3984 110.839 95.3989 110.839 95.3989 110.838C95.3989 110.838 95.3989 110.837 95.3989 110.837C95.5017 109.478 95.1764 108.184 94.2893 106.922C93.4422 105.717 92.3411 104.858 91.2854 103.918L64.3086 79.9033L62.9939 78.5952L62.959 78.6302L95.333 111.004C95.3334 111.004 95.3335 111.004 95.3338 111.003V111.003Z" fill="white"/>
<path d="M29.8138 45.4937L62.1878 77.8676L62.1528 77.9026L60.8382 76.5946L33.8613 52.5796C32.8056 51.6399 31.7045 50.781 30.8574 49.5757C29.9703 48.3136 29.645 47.0198 29.7478 45.6608C29.7478 45.6605 29.7478 45.6604 29.7478 45.6601C29.7479 45.6597 29.748 45.6594 29.7481 45.659C29.754 45.585 29.7758 45.5324 29.8117 45.4958C29.8124 45.4951 29.8131 45.4943 29.8138 45.4937L29.8138 45.4937Z" fill="white"/>
<path d="M29.8191 111.011C29.8196 111.011 29.8201 111.012 29.8206 111.012C29.8569 111.048 29.909 111.07 29.9821 111.076C29.9831 111.076 29.9839 111.076 29.9849 111.076H29.985C29.9851 111.076 29.9853 111.076 29.9855 111.076C31.3445 111.179 32.6383 110.854 33.9004 109.967C35.1057 109.119 35.9646 108.018 36.9043 106.963L60.9193 79.9859L62.2273 78.6712L62.1924 78.6362L29.8184 111.01C29.8186 111.011 29.8189 111.011 29.8191 111.011H29.8191Z" fill="white"/>
<path d="M33.9343 66.4177L62.0615 78.0684L62.0531 78.0888L60.913 77.6188L38.4041 69.3061C37.5233 68.9809 36.6427 68.6987 35.7943 68.2251C34.9059 67.7291 34.3194 67.1557 33.9501 66.5038C33.95 66.5037 33.95 66.5036 33.9499 66.5035C33.9498 66.5033 33.9498 66.5032 33.9496 66.503C33.9297 66.4674 33.9253 66.4403 33.9338 66.419C33.9339 66.4186 33.9341 66.4181 33.9342 66.4177L33.9343 66.4177Z" fill="white"/>
<path d="M91.2015 90.1071L63.0742 78.4564L63.0827 78.436L64.2228 78.906L86.7316 87.2187C87.6124 87.544 88.4931 87.8261 89.3414 88.2997C90.2298 88.7957 90.8163 89.3691 91.1857 90.021C91.1857 90.0211 91.1857 90.0212 91.1857 90.0213C91.1857 90.0215 91.1857 90.0217 91.1861 90.0218C91.206 90.0574 91.2104 90.0846 91.2019 90.1058C91.2019 90.1063 91.2015 90.1067 91.2015 90.1071L91.2015 90.1071Z" fill="white"/>
<path d="M74.4308 49.621L62.7801 77.7483L62.7598 77.7398L63.2298 76.5997L71.5424 54.0909C71.8677 53.2101 72.1498 52.3294 72.6234 51.4811C73.1194 50.5926 73.6929 50.0062 74.3447 49.6368C74.3448 49.6367 74.3449 49.6367 74.345 49.6367C74.3452 49.6366 74.3454 49.6365 74.3456 49.6364C74.3811 49.6165 74.4083 49.6121 74.4296 49.6206C74.43 49.6207 74.4304 49.6209 74.4308 49.621L74.4308 49.621Z" fill="white"/>
<path d="M50.7163 106.879C50.7165 106.879 50.7168 106.879 50.7171 106.879C50.7382 106.888 50.7651 106.883 50.8003 106.864C50.8007 106.863 50.8012 106.863 50.8016 106.863H50.8017C50.8017 106.863 50.8018 106.863 50.8019 106.863C51.4538 106.494 52.0272 105.907 52.5232 105.019C52.9968 104.17 53.2789 103.29 53.6042 102.409L61.9169 79.8998L62.3869 78.7597L62.3665 78.7512L50.7158 106.879C50.716 106.879 50.7161 106.879 50.7163 106.879L50.7163 106.879Z" fill="white"/>
<path d="M33.9453 90.1089L62.0726 78.4583L62.081 78.4786L60.9425 78.9525L39.1484 88.9907C38.2956 89.3835 37.4734 89.8067 36.5386 90.0717C35.5597 90.3492 34.7395 90.3584 34.0174 90.1587C34.0172 90.1586 34.0172 90.1586 34.017 90.1586C34.0168 90.1585 34.0167 90.1584 34.0165 90.1583C33.9772 90.1473 33.9549 90.1312 33.9459 90.1101C33.9457 90.1098 33.9455 90.1094 33.9453 90.1089Z" fill="white"/>
<path d="M91.2011 66.3907L63.0739 78.0413L63.0654 78.021L64.2039 77.5471L85.998 67.5089C86.8509 67.1161 87.6731 66.6929 88.6078 66.4279C89.5868 66.1504 90.407 66.1412 91.1291 66.3409C91.1291 66.341 91.1295 66.341 91.1295 66.341C91.1295 66.3411 91.1299 66.3412 91.13 66.3413C91.1693 66.3523 91.1916 66.3684 91.2006 66.3894C91.2006 66.3898 91.201 66.3902 91.2012 66.3907H91.2011Z" fill="white"/>
<path d="M50.7144 49.6218L62.3651 77.7491L62.3447 77.7575L61.8709 76.619L51.8326 54.8249C51.4398 53.9721 51.0166 53.1499 50.7516 52.2151C50.4741 51.2362 50.4649 50.416 50.6647 49.6939C50.6647 49.6938 50.6647 49.6937 50.6648 49.6935C50.6648 49.6933 50.6649 49.6932 50.665 49.693C50.676 49.6537 50.6921 49.6314 50.7132 49.6224C50.7136 49.6222 50.714 49.622 50.7144 49.6218H50.7144Z" fill="white"/>
<path d="M74.4319 106.878L62.7812 78.7504L62.8016 78.7419L63.2755 79.8805L73.3137 101.675C73.7065 102.527 74.1297 103.35 74.3947 104.284C74.6722 105.263 74.6814 106.083 74.4817 106.806C74.4816 106.806 74.4816 106.806 74.4816 106.806C74.4815 106.806 74.4814 106.806 74.4813 106.807C74.4703 106.846 74.4542 106.868 74.4331 106.877C74.4328 106.877 74.4323 106.878 74.4319 106.878L74.4319 106.878Z" fill="white"/>
<path d="M33.6025 63.3362L60.6603 77.2915L60.6502 77.3111L59.5533 76.7477L37.8159 66.5873C36.9653 66.1897 36.1112 65.8351 35.3053 65.2924C34.4614 64.7241 33.9247 64.1037 33.611 63.4233C33.6109 63.4232 33.6109 63.4231 33.6109 63.423C33.6108 63.4228 33.6107 63.4226 33.6107 63.4224C33.5938 63.3853 33.5917 63.3579 33.6019 63.3374C33.6021 63.337 33.6022 63.3366 33.6025 63.3362L33.6025 63.3362Z" fill="white"/>
<path d="M32.8344 59.9565L58.7548 75.9256L58.7433 75.9444L57.6922 75.2993L36.7889 63.5181C35.9709 63.0571 35.1462 62.6387 34.3838 62.0364C33.5854 61.4056 33.0975 60.7463 32.8363 60.0441C32.8363 60.0439 32.8362 60.0439 32.8362 60.0437C32.8361 60.0435 32.8361 60.0434 32.836 60.0431C32.822 60.0049 32.822 59.9774 32.8337 59.9577C32.8339 59.9573 32.8342 59.9569 32.8344 59.9565L32.8344 59.9565Z" fill="white"/>
<path d="M31.8316 56.2139L58.0752 75.1304L58.0612 75.149L56.9969 74.3845L35.736 60.2733C34.9041 59.7211 34.0612 59.2127 33.301 58.5181C32.5049 57.7906 32.0425 57.0604 31.8259 56.3053C31.8259 56.3052 31.8259 56.3051 31.8258 56.3049C31.8258 56.3047 31.8258 56.3045 31.8257 56.3043C31.8141 56.2632 31.8165 56.2345 31.8308 56.215C31.8311 56.2146 31.8313 56.2142 31.8316 56.2139L31.8316 56.2139Z" fill="white"/>
<path d="M30.8598 52.0317L57.7378 74.4205L57.7213 74.4394L56.631 73.5343L34.7631 56.7039C33.9073 56.0453 33.0364 55.4331 32.2691 54.6265C31.4656 53.7818 31.0225 52.9599 30.8467 52.1298C30.8466 52.1297 30.8466 52.1296 30.8466 52.1294C30.8465 52.1292 30.8465 52.129 30.8465 52.1287C30.8371 52.0835 30.842 52.0528 30.8589 52.0329C30.8592 52.0325 30.8595 52.0321 30.8598 52.0317L30.8598 52.0317Z" fill="white"/>
<path d="M91.5464 63.3342C91.5464 63.334 91.546 63.3338 91.5459 63.3335C91.5352 63.3135 91.5119 63.2994 91.4724 63.2916C91.4719 63.2915 91.4715 63.2913 91.471 63.2912V63.2912C91.471 63.2912 91.471 63.2912 91.4706 63.2912C90.7343 63.1523 89.9178 63.2299 88.9654 63.588C88.056 63.93 87.2719 64.4203 86.4548 64.8829L65.5736 76.7033L64.4785 77.2704L64.4886 77.29L91.5465 63.3346C91.5465 63.3345 91.5466 63.3343 91.5461 63.3342L91.5464 63.3342Z" fill="white"/>
<path d="M92.3157 59.9546C92.3157 59.9543 92.3153 59.9541 92.3151 59.9539C92.303 59.9347 92.2786 59.9224 92.2387 59.9177C92.2382 59.9176 92.2377 59.9175 92.2372 59.9174V59.9174C92.2372 59.9174 92.2372 59.9174 92.2368 59.9174C91.4921 59.8348 90.6838 59.9742 89.7614 60.4036C88.8805 60.8136 88.1359 61.362 87.3563 61.8853L67.4327 75.2567L66.3838 75.9053L66.3953 75.9241L92.3158 59.955C92.3158 59.9549 92.3158 59.9547 92.3154 59.9546L92.3157 59.9546Z" fill="white"/>
<path d="M93.3179 56.2117C93.3179 56.2115 93.3175 56.2113 93.3173 56.2111C93.3026 56.1922 93.2756 56.1815 93.2325 56.18C93.232 56.18 93.2315 56.1799 93.2309 56.1798V56.1799C93.2309 56.1799 93.2309 56.1799 93.2305 56.1799C92.4288 56.1588 91.5787 56.3747 90.6325 56.903C89.729 57.4076 88.9831 58.0445 88.1975 58.6582L68.1223 74.3422L67.0605 75.1102L67.0745 75.1287L93.3182 56.2121C93.3182 56.212 93.3182 56.2119 93.3178 56.2117L93.3179 56.2117Z" fill="white"/>
<path d="M94.2898 52.0295C94.2893 52.0293 94.2893 52.0291 94.289 52.0289C94.2717 52.0096 94.2417 52.0002 94.1951 52.0019C94.1945 52.0019 94.194 52.0018 94.1934 52.0018V52.0019C94.1934 52.0019 94.1934 52.0019 94.193 52.0019C93.3259 52.0406 92.4248 52.3383 91.4439 52.98C90.5072 53.5927 89.7509 54.336 88.95 55.0573L68.4827 73.4911L67.3955 74.3998L67.412 74.4187L94.2901 52.0299C94.2901 52.0298 94.2897 52.0297 94.2897 52.0295L94.2898 52.0295Z" fill="white"/>
<path d="M91.5432 93.1632L64.4854 79.2078L64.4955 79.1882L65.5924 79.7516L87.3298 89.9121C88.1804 90.3097 89.0344 90.6643 89.8404 91.207C90.6843 91.7753 91.221 92.3957 91.5347 93.076C91.5347 93.0762 91.5347 93.0763 91.5347 93.0764C91.5347 93.0766 91.5347 93.0768 91.5347 93.077C91.5516 93.114 91.5537 93.1415 91.5435 93.162C91.5435 93.1624 91.543 93.1628 91.5429 93.1632L91.5432 93.1632Z" fill="white"/>
<path d="M92.312 96.5428L66.3916 80.5737L66.4032 80.5549L67.4542 81.2L88.3575 92.9812C89.1755 93.4423 90.0002 93.8607 90.7626 94.463C91.561 95.0937 92.049 95.753 92.3101 96.4553C92.3101 96.4554 92.3101 96.4555 92.3101 96.4556C92.3101 96.4558 92.3101 96.456 92.3101 96.4562C92.3242 96.4944 92.3242 96.522 92.3124 96.5416C92.3124 96.542 92.312 96.5424 92.3118 96.5428L92.312 96.5428Z" fill="white"/>
<path d="M93.3149 100.286L67.0713 81.3691L67.0853 81.3506L68.1496 82.1151L89.4105 96.2263C90.2424 96.7785 91.0853 97.2868 91.8455 97.9815C92.6416 98.709 93.104 99.4392 93.3206 100.194V100.195C93.3206 100.195 93.3206 100.195 93.3206 100.195C93.3322 100.236 93.3298 100.265 93.3155 100.285C93.3151 100.285 93.315 100.285 93.3147 100.286L93.3149 100.286Z" fill="white"/>
<path d="M94.2872 104.468L67.4092 82.079L67.4257 82.0601L68.516 82.9651L90.3839 99.7956C91.2397 100.454 92.1105 101.066 92.8779 101.873C93.6814 102.718 94.1245 103.54 94.3003 104.37C94.3004 104.37 94.3004 104.37 94.3003 104.37C94.3004 104.37 94.3004 104.371 94.3003 104.371C94.3097 104.416 94.3049 104.447 94.288 104.467C94.2876 104.467 94.2874 104.467 94.2871 104.468L94.2872 104.468Z" fill="white"/>
<path d="M33.5998 93.1652C33.5999 93.1655 33.6002 93.1657 33.6003 93.1659C33.611 93.186 33.6343 93.2001 33.6738 93.2078C33.6743 93.208 33.6747 93.2081 33.6753 93.2083L33.6753 93.2082C33.6754 93.2082 33.6755 93.2083 33.6756 93.2083C34.4118 93.3472 35.2284 93.2696 36.1808 92.9115C37.0902 92.5695 37.8743 92.0791 38.6914 91.6166L59.5726 79.7962L60.6677 79.2291L60.6575 79.2095L33.5996 93.1648C33.5997 93.165 33.5997 93.1651 33.5998 93.1653L33.5998 93.1652Z" fill="white"/>
<path d="M32.8313 96.5447C32.8315 96.545 32.8317 96.5452 32.8318 96.5454C32.844 96.5646 32.8684 96.5768 32.9083 96.5816C32.9088 96.5817 32.9093 96.5818 32.9098 96.5819L32.9098 96.5818C32.9099 96.5818 32.91 96.5819 32.9101 96.5819C33.6548 96.6645 34.4631 96.5251 35.3855 96.0957C36.2664 95.6857 37.011 95.1372 37.7906 94.614L57.7142 81.2426L58.7631 80.594L58.7515 80.5752L32.8311 96.5443C32.8311 96.5444 32.8312 96.5446 32.8313 96.5447L32.8313 96.5447Z" fill="white"/>
<path d="M31.8284 100.288C31.8287 100.288 31.8289 100.288 31.8291 100.288C31.8438 100.307 31.8708 100.318 31.9139 100.319C31.9144 100.32 31.9149 100.319 31.9155 100.319L31.9155 100.319C31.9156 100.319 31.9157 100.319 31.9158 100.319C32.7175 100.341 33.5676 100.125 34.5138 99.5963C35.4174 99.0918 36.1633 98.4548 36.9489 97.8411L57.0241 82.1572L58.0858 81.3892L58.0718 81.3706L31.8281 100.287C31.8282 100.287 31.8283 100.288 31.8284 100.288L31.8284 100.288Z" fill="white"/>
<path d="M30.8568 104.47C30.857 104.47 30.8573 104.47 30.8575 104.47C30.8748 104.49 30.9049 104.499 30.9514 104.497C30.9521 104.497 30.9526 104.497 30.9532 104.497L30.9532 104.497C30.9534 104.497 30.9534 104.497 30.9536 104.497C31.8207 104.459 32.7218 104.161 33.7026 103.519C34.6393 102.907 35.3956 102.163 36.1966 101.442L56.6638 83.0082L57.751 82.0995L57.7345 82.0806L30.8564 104.469C30.8565 104.469 30.8567 104.47 30.8568 104.47L30.8568 104.47Z" fill="white"/>
<path d="M52.6334 47.2192L61.8983 76.22L61.8773 76.2267L61.5 75.0526L53.3139 52.4975C52.9936 51.6149 52.6404 50.7602 52.4542 49.8066C52.2593 48.8079 52.3185 47.9898 52.5778 47.2869C52.5779 47.2868 52.5779 47.2867 52.5779 47.2866C52.578 47.2864 52.5781 47.2862 52.5782 47.286C52.5925 47.2478 52.6104 47.227 52.6321 47.2197C52.6325 47.2195 52.6329 47.2194 52.6334 47.2192L52.6334 47.2192Z" fill="white"/>
<path d="M54.4793 44.2859L61.516 73.9063L61.4946 73.9114L61.2075 72.7121L54.7572 49.6006C54.5048 48.6962 54.2175 47.8172 54.1043 46.8522C53.9858 45.8416 54.1069 45.0304 54.4188 44.3492C54.4188 44.3491 54.4189 44.349 54.419 44.3488C54.4191 44.3486 54.4192 44.3485 54.4193 44.3483C54.4364 44.3113 54.4559 44.2919 54.4781 44.2863C54.4785 44.2861 54.4789 44.286 54.4794 44.2859L54.4793 44.2859Z" fill="white"/>
<path d="M56.4171 40.9302L61.5981 72.8633L61.5751 72.8665L61.3631 71.5733L56.3075 46.5615C56.1097 45.5827 55.8731 44.6273 55.8268 43.5985C55.7783 42.5212 55.9676 41.6779 56.3484 40.9908C56.3485 40.9907 56.3485 40.9906 56.3486 40.9905C56.3487 40.9903 56.3488 40.9902 56.349 40.99C56.3698 40.9527 56.3918 40.9341 56.4157 40.9304C56.4161 40.9303 56.4166 40.9303 56.4171 40.9302L56.4171 40.9302Z" fill="white"/>
<path d="M58.6868 37.2857L61.8612 72.1225L61.8361 72.1242L61.7051 70.7133L58.1431 43.3494C58.0037 42.2786 57.8207 41.2299 57.8485 40.117C57.8776 38.9515 58.1456 38.057 58.6081 37.3457C58.6082 37.3456 58.6083 37.3455 58.6083 37.3454C58.6085 37.3452 58.6086 37.345 58.6088 37.3448C58.6341 37.3063 58.6592 37.2879 58.6853 37.2858C58.6858 37.2857 58.6863 37.2857 58.6868 37.2856L58.6868 37.2857Z" fill="white"/>
<path d="M93.6073 88.19C93.6073 88.1898 93.6073 88.1894 93.6073 88.1892C93.6139 88.1674 93.6073 88.1409 93.585 88.1076C93.5845 88.1071 93.5845 88.1067 93.5842 88.1062V88.1062C93.5842 88.1061 93.5842 88.1061 93.5842 88.106C93.1618 87.4872 92.5296 86.9646 91.6029 86.5445C90.718 86.1432 89.8169 85.9355 88.912 85.6848L65.7885 79.2778L64.6132 78.9045L64.6064 78.9255L93.6072 88.1904C93.6072 88.1903 93.6072 88.1902 93.6072 88.19L93.6073 88.19Z" fill="white"/>
<path d="M96.5403 86.3441C96.5403 86.3438 96.5403 86.3435 96.5403 86.3432C96.5453 86.321 96.5368 86.2951 96.5119 86.2635C96.5114 86.2631 96.5113 86.2627 96.511 86.2623V86.2623C96.511 86.2622 96.511 86.2622 96.511 86.262C96.0428 85.6771 95.3728 85.204 94.4168 84.8554C93.504 84.5225 92.5898 84.3838 91.6685 84.2025L68.1253 79.5694L66.925 79.2864L66.9199 79.3078L96.5403 86.3445C96.5403 86.3444 96.5403 86.3442 96.5403 86.344L96.5403 86.3441Z" fill="white"/>
<path d="M99.8959 84.4062C99.8959 84.4059 99.8959 84.4056 99.8959 84.4053C99.8989 84.3815 99.8873 84.3549 99.8579 84.3234C99.8575 84.323 99.8572 84.3226 99.8569 84.3221V84.3221C99.8569 84.3221 99.8569 84.322 99.8569 84.3219C99.3049 83.7401 98.5511 83.2916 97.5084 82.9962C96.5128 82.714 95.5349 82.6369 94.5455 82.5154L69.26 79.4103L67.9661 79.2026L67.9629 79.2257L99.896 84.4067C99.8961 84.4065 99.896 84.4064 99.896 84.4062L99.8959 84.4062Z" fill="white"/>
<path d="M103.54 82.1362C103.54 82.1359 103.54 82.1356 103.54 82.1352C103.542 82.1094 103.527 82.0814 103.493 82.0497C103.492 82.0493 103.492 82.0489 103.492 82.0485V82.0485C103.492 82.0484 103.492 82.0483 103.491 82.0482C102.851 81.4624 102.003 81.0358 100.856 80.7959C99.7601 80.5669 98.6997 80.5577 97.6233 80.5014L70.1161 79.0635L68.7048 78.9373L68.7031 78.9623L103.54 82.1367C103.54 82.1366 103.54 82.1363 103.54 82.1362L103.54 82.1362Z" fill="white"/>
<path d="M72.5129 109.28L63.248 80.2794L63.269 80.2727L63.6463 81.4468L71.8324 104.002C72.1527 104.885 72.5059 105.739 72.6921 106.693C72.887 107.691 72.8278 108.51 72.5685 109.212C72.5685 109.212 72.5684 109.212 72.5684 109.213C72.5683 109.213 72.5682 109.213 72.5681 109.213C72.5538 109.252 72.5359 109.273 72.5142 109.28C72.5138 109.28 72.5134 109.28 72.5129 109.28L72.5129 109.28Z" fill="white"/>
<path d="M70.6666 112.214L63.6299 82.5932L63.6513 82.5881L63.9384 83.7874L70.3887 106.899C70.6411 107.803 70.9284 108.682 71.0416 109.647C71.1601 110.658 71.039 111.469 70.7271 112.15C70.727 112.15 70.727 112.15 70.7269 112.151C70.7268 112.151 70.7267 112.151 70.7266 112.151C70.7095 112.188 70.69 112.208 70.6678 112.213C70.6674 112.213 70.667 112.214 70.6665 112.214L70.6666 112.214Z" fill="white"/>
<path d="M68.7289 115.569L63.5479 83.6363L63.5709 83.6331L63.7829 84.9262L68.8384 109.938C69.0363 110.917 69.2728 111.872 69.3192 112.901C69.3677 113.978 69.1783 114.822 68.7976 115.509C68.7975 115.509 68.7974 115.509 68.7974 115.509C68.7973 115.509 68.7971 115.51 68.797 115.51C68.7761 115.547 68.7541 115.566 68.7303 115.569C68.7298 115.569 68.7294 115.569 68.7289 115.57L68.7289 115.569Z" fill="white"/>
<path d="M66.4596 119.214L63.2852 84.3769L63.3102 84.3752L63.4412 85.7862L67.0032 113.15C67.1426 114.221 67.3256 115.27 67.2978 116.382C67.2687 117.548 67.0008 118.442 66.5382 119.154C66.5381 119.154 66.538 119.154 66.538 119.154C66.5378 119.154 66.5377 119.155 66.5375 119.155C66.5122 119.193 66.4871 119.212 66.4611 119.214C66.4606 119.214 66.4601 119.214 66.4596 119.214L66.4596 119.214Z" fill="white"/>
<path d="M31.5388 68.3093C31.5387 68.3095 31.5387 68.3098 31.5386 68.3101C31.532 68.3319 31.5385 68.3583 31.5609 68.3917C31.5612 68.3922 31.5614 68.3926 31.5617 68.393L31.5617 68.3931C31.5618 68.3931 31.5618 68.3932 31.5619 68.3933C31.9843 69.0121 32.6165 69.5347 33.5432 69.9548C34.4281 70.3561 35.3292 70.5638 36.2341 70.8145L59.3576 77.2214L60.533 77.5947L60.5397 77.5738L31.5389 68.3088C31.5389 68.309 31.5388 68.3091 31.5388 68.3093L31.5388 68.3093Z" fill="white"/>
<path d="M28.6059 70.1555C28.6059 70.1558 28.6059 70.156 28.6058 70.1563C28.6009 70.1785 28.6094 70.2044 28.6343 70.236C28.6346 70.2364 28.6348 70.2368 28.6352 70.2372L28.6352 70.2373C28.6353 70.2373 28.6353 70.2374 28.6354 70.2375C29.1035 70.8224 29.7736 71.2955 30.7295 71.6441C31.6423 71.977 32.5566 72.1157 33.4779 72.297L57.021 76.9302L58.2214 77.2132L58.2264 77.1917L28.606 70.155C28.606 70.1552 28.6059 70.1553 28.6059 70.1555L28.6059 70.1555Z" fill="white"/>
<path d="M25.2505 72.0932C25.2504 72.0935 25.2505 72.0938 25.2505 72.0941C25.2475 72.1179 25.259 72.1446 25.2884 72.1761C25.2888 72.1765 25.2891 72.1769 25.2894 72.1773L25.2895 72.1773C25.2896 72.1774 25.2896 72.1775 25.2897 72.1776C25.8417 72.7594 26.5955 73.2079 27.6381 73.5033C28.6338 73.7855 29.6116 73.8625 30.6011 73.984L55.8866 77.0892L57.1804 77.2968L57.1837 77.2738L25.2505 72.0928C25.2505 72.0929 25.2505 72.0931 25.2505 72.0933L25.2505 72.0932Z" fill="white"/>
<path d="M21.6055 74.3633C21.6055 74.3637 21.6055 74.364 21.6056 74.3643C21.6042 74.3902 21.6187 74.4181 21.6529 74.4498C21.6533 74.4502 21.6536 74.4506 21.6541 74.4511L21.6542 74.4511C21.6542 74.4511 21.6543 74.4512 21.6544 74.4513C22.2949 75.0371 23.1426 75.4637 24.2899 75.7036C25.3855 75.9326 26.4459 75.9419 27.5223 75.9981L55.0295 77.4361L56.4408 77.5623L56.4425 77.5372L21.6056 74.3628C21.6056 74.363 21.6055 74.3632 21.6055 74.3633L21.6055 74.3633Z" fill="white"/>
<path d="M77.4867 49.2795L63.5313 76.3373L63.5117 76.3272L64.0751 75.2303L74.2356 53.4929C74.6332 52.6423 74.9878 51.7883 75.5305 50.9823C76.0988 50.1384 76.7192 49.6017 77.3995 49.288C77.3997 49.2879 77.3997 49.2879 77.3999 49.2879C77.4001 49.2878 77.4002 49.2877 77.4005 49.2877C77.4375 49.2708 77.465 49.2687 77.4855 49.2789C77.4859 49.2791 77.4863 49.2792 77.4867 49.2795L77.4867 49.2795Z" fill="white"/>
<path d="M80.8668 48.5106L64.8977 74.4311L64.8789 74.4195L65.524 73.3685L77.3052 52.4652C77.7662 51.6472 78.1846 50.8225 78.7869 50.0601C79.4177 49.2617 80.077 48.7737 80.7792 48.5126C80.7794 48.5125 80.7794 48.5125 80.7796 48.5124C80.7798 48.5124 80.7799 48.5124 80.7802 48.5123C80.8184 48.4983 80.8459 48.4983 80.8656 48.51C80.866 48.5102 80.8664 48.5104 80.8668 48.5106L80.8668 48.5106Z" fill="white"/>
<path d="M84.6089 47.5078L65.6924 73.7515L65.6738 73.7375L66.4383 72.6731L80.5496 51.4123C81.1018 50.5803 81.6101 49.7374 82.3048 48.9772C83.0322 48.1812 83.7624 47.7188 84.5175 47.5022C84.5176 47.5021 84.5177 47.5021 84.5179 47.5021C84.5181 47.502 84.5183 47.502 84.5185 47.502C84.5596 47.4904 84.5883 47.4928 84.6078 47.5071C84.6082 47.5073 84.6086 47.5076 84.609 47.5079L84.6089 47.5078Z" fill="white"/>
<path d="M88.7914 46.5358L66.4027 73.4138L66.3838 73.3973L67.2889 72.307L84.1193 50.4391C84.7779 49.5834 85.3901 48.7125 86.1967 47.9452C87.0413 47.1416 87.8633 46.6985 88.6934 46.5227C88.6935 46.5226 88.6936 46.5226 88.6938 46.5226C88.694 46.5226 88.6942 46.5226 88.6945 46.5226C88.7396 46.5132 88.7704 46.518 88.7903 46.5349C88.7906 46.5352 88.7911 46.5355 88.7914 46.5358L88.7914 46.5358Z" fill="white"/>
<path d="M77.489 107.223C77.4892 107.223 77.4894 107.223 77.4897 107.223C77.5097 107.212 77.5238 107.189 77.5316 107.149C77.5317 107.149 77.5319 107.148 77.532 107.148H77.532C77.532 107.148 77.532 107.148 77.532 107.147C77.6709 106.411 77.5933 105.595 77.2352 104.642C76.8932 103.733 76.4029 102.949 75.9403 102.132L64.1199 81.2504L63.5528 80.1553L63.5332 80.1654L77.4886 107.223C77.4887 107.223 77.4889 107.223 77.489 107.223L77.489 107.223Z" fill="white"/>
<path d="M80.868 107.992C80.8682 107.992 80.8684 107.992 80.8686 107.991C80.8878 107.979 80.9001 107.955 80.9048 107.915C80.9049 107.914 80.905 107.914 80.9051 107.913H80.9051C80.9051 107.913 80.9051 107.913 80.9051 107.913C80.9877 107.168 80.8484 106.36 80.419 105.438C80.0089 104.557 79.4605 103.812 78.9372 103.033L65.5659 83.1089L64.9172 82.0601L64.8984 82.0716L80.8675 107.992C80.8677 107.992 80.8678 107.992 80.868 107.992L80.868 107.992Z" fill="white"/>
<path d="M84.6113 108.994C84.6116 108.994 84.6118 108.994 84.612 108.994C84.6309 108.979 84.6416 108.952 84.6431 108.909C84.6431 108.908 84.6432 108.908 84.6432 108.907H84.6432C84.6432 108.907 84.6432 108.907 84.6432 108.907C84.6643 108.105 84.4484 107.255 83.92 106.309C83.4155 105.405 82.7786 104.659 82.1648 103.874L66.4809 83.7986L65.7129 82.7368L65.6943 82.7508L84.6109 108.995C84.6111 108.995 84.6112 108.994 84.6113 108.994V108.994Z" fill="white"/>
<path d="M88.7935 109.966C88.7937 109.966 88.7939 109.966 88.7941 109.965C88.8134 109.948 88.8228 109.918 88.8211 109.871C88.8211 109.871 88.8212 109.87 88.8212 109.87H88.8211C88.8211 109.87 88.8211 109.87 88.8211 109.869C88.7824 109.002 88.4847 108.101 87.843 107.12C87.2303 106.184 86.487 105.427 85.7657 104.626L67.3319 84.159L66.4232 83.0718L66.4043 83.0883L88.7931 109.966C88.7932 109.966 88.7934 109.966 88.7935 109.966L88.7935 109.966Z" fill="white"/>
<path d="M47.6592 107.22L61.6145 80.1621L61.6341 80.1722L61.0707 81.2692L50.9102 103.007C50.5126 103.857 50.1581 104.711 49.6154 105.517C49.047 106.361 48.4267 106.898 47.7463 107.211C47.7462 107.211 47.7461 107.211 47.746 107.211C47.7458 107.211 47.7456 107.211 47.7454 107.211C47.7083 107.228 47.6809 107.23 47.6604 107.22C47.66 107.22 47.6596 107.22 47.6592 107.22L47.6592 107.22Z" fill="white"/>
<path d="M44.2803 107.989L60.2494 82.0684L60.2681 82.0799L59.6231 83.1309L47.8418 104.034C47.3808 104.852 46.9624 105.677 46.3601 106.439C45.7293 107.238 45.07 107.726 44.3678 107.987C44.3677 107.987 44.3676 107.987 44.3675 107.987C44.3673 107.987 44.3671 107.987 44.3669 107.987C44.3286 108.001 44.3011 108.001 44.2814 107.989C44.281 107.989 44.2806 107.989 44.2803 107.989L44.2803 107.989Z" fill="white"/>
<path d="M40.5371 108.992L59.4537 82.748L59.4722 82.762L58.7078 83.8264L44.5965 105.087C44.0443 105.919 43.536 106.762 42.8413 107.522C42.1138 108.318 41.3837 108.781 40.6286 108.997C40.6284 108.997 40.6284 108.997 40.6282 108.997C40.628 108.997 40.6278 108.997 40.6275 108.997C40.5864 109.009 40.5577 109.007 40.5383 108.992C40.5379 108.992 40.5375 108.992 40.5371 108.991L40.5371 108.992Z" fill="white"/>
<path d="M36.3555 109.963L58.7442 83.0854L58.7631 83.102L57.858 84.1923L41.0276 106.06C40.369 106.916 39.7569 107.787 38.9503 108.554C38.1056 109.358 37.2836 109.801 36.4535 109.977C36.4534 109.977 36.4533 109.977 36.4532 109.977C36.4529 109.977 36.4527 109.977 36.4525 109.977C36.4073 109.986 36.3765 109.981 36.3567 109.964C36.3563 109.964 36.3559 109.964 36.3555 109.963L36.3555 109.963Z" fill="white"/>
<path d="M47.6577 49.2763C47.6574 49.2765 47.6572 49.2767 47.657 49.2768C47.6369 49.2875 47.6228 49.3109 47.6151 49.3503C47.615 49.3508 47.6148 49.3512 47.6147 49.3518L47.6147 49.3518C47.6147 49.3519 47.6147 49.352 47.6146 49.3521C47.4758 50.0883 47.5533 50.9049 47.9115 51.8573C48.2535 52.7667 48.7438 53.5508 49.2064 54.3679L61.0267 75.2491L61.5939 76.3442L61.6135 76.3341L47.6581 49.2761C47.658 49.2762 47.6578 49.2762 47.6577 49.2763L47.6577 49.2763Z" fill="white"/>
<path d="M44.2776 48.5076C44.2773 48.5077 44.2771 48.5079 44.2769 48.5081C44.2577 48.5203 44.2454 48.5446 44.2407 48.5846C44.2406 48.5851 44.2405 48.5855 44.2404 48.5861L44.2404 48.5861C44.2404 48.5862 44.2404 48.5863 44.2404 48.5864C44.1578 49.331 44.2971 50.1394 44.7266 51.0618C45.1366 51.9427 45.685 52.6872 46.2083 53.4669L59.5797 73.3905L60.2283 74.4394L60.2471 74.4278L44.278 48.5073C44.2778 48.5074 44.2777 48.5075 44.2776 48.5076L44.2776 48.5076Z" fill="white"/>
<path d="M40.5352 47.505C40.535 47.5052 40.5348 47.5054 40.5346 47.5056C40.5156 47.5203 40.505 47.5473 40.5035 47.5904C40.5035 47.5909 40.5034 47.5914 40.5033 47.592L40.5034 47.592C40.5034 47.5921 40.5034 47.5922 40.5034 47.5923C40.4823 48.3941 40.6982 49.2441 41.2265 50.1903C41.7311 51.0939 42.368 51.8398 42.9817 52.6254L58.6656 72.7006L59.4337 73.7623L59.4522 73.7483L40.5356 47.5046C40.5355 47.5047 40.5354 47.5048 40.5352 47.5049V47.505Z" fill="white"/>
<path d="M36.353 46.5333C36.3528 46.5335 36.3526 46.5338 36.3524 46.534C36.3331 46.5514 36.3237 46.5814 36.3254 46.628C36.3254 46.6286 36.3253 46.6291 36.3253 46.6297L36.3254 46.6297C36.3254 46.6299 36.3254 46.63 36.3254 46.6301C36.3641 47.4972 36.6618 48.3983 37.3034 49.3792C37.9162 50.3158 38.6595 51.0722 39.3808 51.8731L57.8146 72.3404L58.7233 73.4275L58.7422 73.411L36.3534 46.533C36.3533 46.533 36.3531 46.5332 36.353 46.5333L36.353 46.5333Z" fill="white"/>
<path d="M93.6031 68.3101L64.6024 77.575L64.5957 77.554L65.7698 77.1767L88.3249 68.9907C89.2075 68.6703 90.0622 68.3171 91.0158 68.131C92.0144 67.9361 92.8326 67.9953 93.5355 68.2546C93.5355 68.2546 93.5355 68.2547 93.5359 68.2547C93.5359 68.2548 93.5363 68.2549 93.5365 68.255C93.5746 68.2693 93.5955 68.2872 93.6028 68.3089C93.6028 68.3093 93.6032 68.3097 93.6033 68.3101L93.6031 68.3101Z" fill="white"/>
<path d="M96.5366 70.1561L66.9162 77.1928L66.9111 77.1713L68.1104 76.8843L91.2219 70.434C92.1263 70.1816 93.0053 69.8943 93.9703 69.7811C94.9809 69.6625 95.7921 69.7837 96.4733 70.0956C96.4733 70.0956 96.4733 70.0957 96.4738 70.0957C96.4738 70.0959 96.4742 70.0959 96.4743 70.0961C96.5113 70.1132 96.5308 70.1326 96.5364 70.1548C96.5364 70.1553 96.5368 70.1557 96.5368 70.1561L96.5366 70.1561Z" fill="white"/>
<path d="M99.8924 72.0938L67.9593 77.2749L67.9561 77.2519L69.2492 77.0398L94.2611 71.9843C95.2398 71.7865 96.1953 71.5499 97.224 71.5036C98.3014 71.4551 99.1446 71.6444 99.8317 72.0252C99.8317 72.0252 99.8317 72.0253 99.8321 72.0253C99.8321 72.0255 99.8326 72.0256 99.8327 72.0257C99.8699 72.0466 99.8885 72.0686 99.8922 72.0924C99.8922 72.0929 99.8922 72.0934 99.8926 72.0938L99.8924 72.0938Z" fill="white"/>
<path d="M103.538 74.3635L68.7009 77.5379L68.6992 77.5129L70.1102 77.3819L97.474 73.8198C98.5448 73.6804 99.5935 73.4975 100.706 73.5253C101.872 73.5544 102.766 73.8223 103.478 74.2849C103.478 74.285 103.478 74.2851 103.478 74.2851C103.478 74.2853 103.479 74.2854 103.479 74.2856C103.517 74.3109 103.536 74.336 103.538 74.362C103.538 74.3625 103.538 74.363 103.538 74.3635L103.538 74.3635Z" fill="white"/>
<path d="M52.6333 109.284C52.6335 109.284 52.6338 109.284 52.6341 109.284C52.6558 109.29 52.6823 109.284 52.7157 109.261C52.7162 109.261 52.7166 109.261 52.717 109.261H52.717C52.7171 109.261 52.7172 109.261 52.7173 109.261C53.3361 108.838 53.8586 108.206 54.2788 107.279C54.68 106.395 54.8878 105.493 55.1385 104.589L61.5454 81.4651L61.9187 80.2897L61.8977 80.283L52.6328 109.284C52.633 109.284 52.6331 109.284 52.6333 109.284L52.6333 109.284Z" fill="white"/>
<path d="M54.479 112.217C54.4793 112.217 54.4795 112.217 54.4798 112.217C54.502 112.222 54.5279 112.214 54.5595 112.189C54.5599 112.188 54.5603 112.188 54.5607 112.188H54.5607C54.5608 112.188 54.5609 112.188 54.561 112.188C55.1459 111.72 55.619 111.05 55.9676 110.094C56.3005 109.181 56.4392 108.267 56.6205 107.345L61.2536 83.8021L61.5366 82.6018L61.5152 82.5967L54.4785 112.217C54.4786 112.217 54.4788 112.217 54.479 112.217L54.479 112.217Z" fill="white"/>
<path d="M56.4165 115.573C56.4168 115.573 56.4171 115.573 56.4174 115.573C56.4412 115.576 56.4679 115.564 56.4993 115.535C56.4997 115.534 56.5001 115.534 56.5006 115.534H56.5006C56.5007 115.534 56.5007 115.534 56.5008 115.534C57.0827 114.982 57.5311 114.228 57.8266 113.185C58.1087 112.19 58.1858 111.212 58.3073 110.222L61.4124 84.937L61.6201 83.6431L61.5971 83.6399L56.416 115.573C56.4162 115.573 56.4164 115.573 56.4165 115.573L56.4165 115.573Z" fill="white"/>
<path d="M58.687 119.217C58.6874 119.217 58.6877 119.217 58.688 119.217C58.7139 119.219 58.7418 119.204 58.7735 119.17C58.7739 119.169 58.7743 119.169 58.7748 119.169H58.7748C58.7749 119.169 58.7749 119.169 58.775 119.168C59.3608 118.528 59.7875 117.68 60.0273 116.533C60.2564 115.437 60.2656 114.377 60.3219 113.3L61.7598 85.7931L61.886 84.3818L61.8609 84.3801L58.6865 119.217C58.6867 119.217 58.6869 119.217 58.6871 119.217L58.687 119.217Z" fill="white"/>
<path d="M31.543 88.1895L60.5437 78.9246L60.5504 78.9456L59.3764 79.3228L36.8212 87.5089C35.9386 87.8293 35.0839 88.1825 34.1303 88.3686C33.1317 88.5635 32.3136 88.5043 31.6106 88.245C31.6105 88.245 31.6104 88.2449 31.6103 88.2449C31.6101 88.2448 31.61 88.2447 31.6098 88.2446C31.5716 88.2303 31.5507 88.2124 31.5434 88.1907C31.5433 88.1903 31.5431 88.1899 31.543 88.1894L31.543 88.1895Z" fill="white"/>
<path d="M28.6094 86.3431L58.2298 79.3064L58.2349 79.3278L57.0356 79.6149L33.9241 86.0652C33.0197 86.3176 32.1407 86.6049 31.1757 86.7181C30.1651 86.8366 29.3539 86.7155 28.6727 86.4036C28.6725 86.4036 28.6725 86.4035 28.6723 86.4034C28.6721 86.4033 28.672 86.4032 28.6718 86.4031C28.6348 86.386 28.6153 86.3665 28.6098 86.3443C28.6096 86.3439 28.6095 86.3435 28.6094 86.343L28.6094 86.3431Z" fill="white"/>
<path d="M25.2539 84.4056L57.187 79.2246L57.1902 79.2476L55.8971 79.4597L30.8852 84.5152C29.9065 84.713 28.951 84.9496 27.9223 84.9959C26.8449 85.0444 26.0017 84.8551 25.3146 84.4743C25.3144 84.4743 25.3144 84.4742 25.3142 84.4741C25.314 84.474 25.3139 84.4739 25.3137 84.4738C25.2764 84.4529 25.2578 84.4309 25.2542 84.407C25.2541 84.4066 25.254 84.4061 25.2539 84.4057L25.2539 84.4056Z" fill="white"/>
<path d="M21.6094 82.1358L56.4462 78.9614L56.4479 78.9865L55.037 79.1175L27.6731 82.6795C26.6023 82.8189 25.5537 83.0018 24.4407 82.9741C23.2753 82.945 22.3807 82.677 21.6694 82.2145C21.6693 82.2144 21.6692 82.2143 21.6691 82.2142C21.6689 82.2141 21.6688 82.214 21.6686 82.2138C21.63 82.1885 21.6116 82.1633 21.6095 82.1373C21.6095 82.1368 21.6094 82.1363 21.6094 82.1358L21.6094 82.1358Z" fill="white"/>
<path d="M72.514 47.2155C72.5137 47.2154 72.5134 47.2154 72.5131 47.2153C72.4914 47.2087 72.4649 47.2153 72.4315 47.2377C72.4311 47.238 72.4307 47.2382 72.4302 47.2384L72.4302 47.2385C72.4301 47.2385 72.43 47.2386 72.43 47.2386C71.8112 47.6611 71.2886 48.2933 70.8684 49.22C70.4672 50.1049 70.2595 51.006 70.0088 51.9109L63.6018 75.0343L63.2285 76.2097L63.2495 76.2164L72.5144 47.2157C72.5143 47.2156 72.5141 47.2156 72.514 47.2155L72.514 47.2155Z" fill="white"/>
<path d="M70.6671 44.2822C70.6668 44.2822 70.6665 44.2822 70.6662 44.2821C70.644 44.2772 70.6181 44.2857 70.5865 44.3106C70.5861 44.3109 70.5857 44.3111 70.5853 44.3114L70.5853 44.3115C70.5852 44.3115 70.5852 44.3116 70.585 44.3116C70.0001 44.7798 69.527 45.4499 69.1784 46.4058C68.8455 47.3186 68.7068 48.2329 68.5255 49.1542L63.8924 72.6973L63.6094 73.8976L63.6308 73.9027L70.6675 44.2823C70.6674 44.2823 70.6672 44.2822 70.667 44.2822L70.6671 44.2822Z" fill="white"/>
<path d="M68.73 40.9267C68.7297 40.9267 68.7294 40.9267 68.7291 40.9267C68.7053 40.9237 68.6786 40.9353 68.6471 40.9647C68.6467 40.9651 68.6463 40.9653 68.6459 40.9657L68.6459 40.9658C68.6458 40.9658 68.6457 40.9659 68.6456 40.966C68.0638 41.518 67.6153 42.2717 67.3199 43.3144C67.0377 44.3101 66.9607 45.2879 66.8392 46.2774L63.7341 71.5629L63.5264 72.8567L63.5494 72.8599L68.7304 40.9268C68.7303 40.9268 68.7301 40.9268 68.7299 40.9267L68.73 40.9267Z" fill="white"/>
<path d="M66.4597 37.2825C66.4594 37.2825 66.459 37.2825 66.4587 37.2826C66.4328 37.2812 66.4049 37.2957 66.3732 37.3299C66.3728 37.3303 66.3724 37.3306 66.372 37.3311L66.3719 37.3312C66.3719 37.3312 66.3718 37.3313 66.3717 37.3314C65.7859 37.9719 65.3593 38.8196 65.1194 39.9669C64.8904 41.0625 64.8811 42.1229 64.8249 43.1993L63.3869 70.7065L63.2607 72.1178L63.2858 72.1195L66.4602 37.2826C66.46 37.2826 66.4598 37.2825 66.4597 37.2825L66.4597 37.2825Z" fill="white"/>
<path d="M47.4521 59.7403V61.0492V90.3999V90.4006C47.4551 92.8896 48.9043 95.2624 51.3127 96.3301L62.573 101.327L73.8327 96.3301L73.8334 96.3294C76.2412 95.2615 77.6905 92.8893 77.6933 90.4006V90.3999V59.7402L47.4521 59.7403Z" fill="#FFD700"/>
<path d="M48.7607 61.0491V90.3991C48.763 92.3836 49.9126 94.2777 51.8428 95.1334L62.5725 99.8947L73.3022 95.1334C75.2324 94.2777 76.3821 92.3836 76.3843 90.3991V61.0491H48.7607Z" fill="#0057B8"/>
<path d="M62.5727 63.207C61.7681 64.12 61.2778 65.3152 61.2778 66.6269C61.3255 69.5072 61.6788 72.3816 61.7095 75.261C61.7733 77.9445 60.9684 80.465 59.9897 82.9237C59.6636 83.6031 59.3109 84.2681 58.9579 84.9338L57.9193 84.7247C56.9848 84.5378 56.3769 83.629 56.5638 82.6943C56.7272 81.8765 57.447 81.3085 58.2498 81.3048L58.6274 81.3453L57.7844 74.3031C57.5089 71.1672 55.8913 68.4165 53.5087 66.6269C53.0993 66.3194 52.6654 66.0382 52.2139 65.7905V90.8022H57.9867C58.4184 93.1459 59.708 95.1877 61.5206 96.5897C61.9518 96.887 62.3129 97.279 62.5727 97.7364C62.8324 97.279 63.1936 96.887 63.6248 96.5897C65.4374 95.1877 66.727 93.1459 67.1586 90.8022H72.9315V65.7905C72.4799 66.0382 72.0461 66.3194 71.6366 66.6269C69.254 68.4165 67.6365 71.1672 67.361 74.3031L66.5179 81.3453L66.8956 81.3048C67.6984 81.3086 68.4181 81.8765 68.5816 82.6943C68.7685 83.629 68.1606 84.5378 67.2261 84.7247L66.1875 84.9338C65.8345 84.2681 65.4818 83.6031 65.1556 82.9237C64.177 80.465 63.3721 77.9445 63.4359 75.261C63.4666 72.3816 63.8199 69.5072 63.8675 66.6269C63.8675 65.3152 63.3772 64.12 62.5727 63.207ZM53.9403 69.3925C55.0576 70.704 55.8074 72.3383 56.031 74.1345L56.7256 79.9422C55.8411 80.3826 55.1706 81.1907 54.9182 82.1682H53.9403V69.3925ZM71.205 69.3925V82.1682H70.2272C69.9748 81.1907 69.3043 80.3826 68.4198 79.9422L69.1144 74.1345C69.338 72.3383 70.0878 70.704 71.205 69.3925ZM62.5727 81.0687C63.0364 82.5859 63.6745 84.0265 64.4677 85.3655C63.7132 85.5947 63.0566 86.0407 62.5727 86.6403C62.0888 86.0407 61.4321 85.5947 60.6776 85.3655C61.4709 84.0265 62.1089 82.5859 62.5727 81.0687ZM53.9403 83.895H54.9182C55.2265 85.0867 56.1567 86.0283 57.3393 86.357L58.1688 86.5459C57.9467 87.3513 57.8249 88.1998 57.8249 89.0754H53.9403V83.895ZM70.2272 83.895H71.205V89.0754H67.3205C67.3205 88.1998 67.1987 87.3513 66.9765 86.5459L67.806 86.357C68.9886 86.0283 69.9188 85.0867 70.2272 83.895ZM59.8548 86.9439C60.9022 87.0919 61.7095 87.9873 61.7095 89.0754H59.5514C59.5514 88.3352 59.661 87.6219 59.8548 86.9439ZM65.2905 86.9439C65.4844 87.6219 65.594 88.3352 65.594 89.0754H63.4359C63.4359 87.9873 64.2432 87.0919 65.2905 86.9439ZM59.7469 90.8022H61.7095V94.438C60.757 93.4421 60.0652 92.1916 59.7469 90.8022ZM63.4359 90.8022H65.3984C65.0802 92.1916 64.3884 93.4421 63.4359 94.438V90.8022Z" fill="#FFD700"/>
</svg>
