<svg width="20" height="16" viewBox="0 0 20 16" fill="none" xmlns="http://www.w3.org/2000/svg">
<path d="M18.9996 0.00658375C18.9144 -0.00219458 18.8286 -0.00219458 18.7434 0.00658375H1.24336C1.1312 0.00831196 1.01978 0.0251296 0.912109 0.0565837L9.94336 9.05033L18.9996 0.00658375Z" fill="white"/>
<path d="M19.925 0.875488L10.825 9.93799C10.5908 10.1708 10.274 10.3015 9.94375 10.3015C9.61352 10.3015 9.2967 10.1708 9.0625 9.93799L0.04375 0.944238C0.0160246 1.04614 0.00132418 1.15114 0 1.25674V13.7567C0 14.0883 0.131696 14.4062 0.366117 14.6406C0.600537 14.875 0.918479 15.0067 1.25 15.0067H18.75C19.0815 15.0067 19.3995 14.875 19.6339 14.6406C19.8683 14.4062 20 14.0883 20 13.7567V1.25674C19.995 1.12652 19.9697 0.997885 19.925 0.875488ZM2.10625 13.7567H1.2375V12.863L5.78125 8.35674L6.6625 9.23799L2.10625 13.7567ZM18.7375 13.7567H17.8625L13.3062 9.23799L14.1875 8.35674L18.7312 12.863L18.7375 13.7567Z" fill="white"/>
</svg>
