<svg width="19" height="18" viewBox="0 0 19 18" fill="none" xmlns="http://www.w3.org/2000/svg">
<g clip-path="url(#clip0_459_4178)">
<path fill-rule="evenodd" clip-rule="evenodd" d="M5.79736 0.054C6.75709 0.00981817 7.06309 0 9.50781 0C11.9525 0 12.2585 0.0106364 13.2174 0.054C14.1764 0.0973636 14.8309 0.250364 15.4036 0.472091C16.0034 0.698727 16.5474 1.053 16.9974 1.51118C17.4556 1.96036 17.8091 2.50364 18.0349 3.10418C18.2575 3.67691 18.4096 4.33145 18.4538 5.28873C18.498 6.25009 18.5078 6.55609 18.5078 9C18.5078 11.4447 18.4972 11.7507 18.4538 12.7105C18.4104 13.6677 18.2575 14.3223 18.0349 14.895C17.8091 15.4956 17.455 16.0398 16.9974 16.4896C16.5474 16.9478 16.0034 17.3013 15.4036 17.5271C14.8309 17.7496 14.1764 17.9018 13.2191 17.946C12.2585 17.9902 11.9525 18 9.50781 18C7.06309 18 6.75709 17.9894 5.79736 17.946C4.84009 17.9026 4.18554 17.7496 3.61281 17.5271C3.0122 17.3012 2.46803 16.9472 2.01818 16.4896C1.56031 16.0402 1.20598 15.4963 0.979903 14.8958C0.758176 14.3231 0.605994 13.6685 0.561812 12.7113C0.517631 11.7499 0.507812 11.4439 0.507812 9C0.507812 6.55527 0.518449 6.24927 0.561812 5.29036C0.605176 4.33145 0.758176 3.67691 0.979903 3.10418C1.20631 2.5037 1.56091 1.9598 2.01899 1.51036C2.46821 1.05259 3.01184 0.698272 3.61199 0.472091C4.18472 0.250364 4.83927 0.0981818 5.79654 0.054H5.79736ZM13.1446 1.674C12.1955 1.63064 11.9108 1.62164 9.50781 1.62164C7.10481 1.62164 6.82009 1.63064 5.87099 1.674C4.99308 1.71409 4.5169 1.86055 4.19945 1.98409C3.77972 2.14773 3.47945 2.34164 3.16445 2.65664C2.86585 2.94713 2.63605 3.30078 2.4919 3.69164C2.36836 4.00909 2.2219 4.48527 2.18181 5.36318C2.13845 6.31227 2.12945 6.597 2.12945 9C2.12945 11.403 2.13845 11.6877 2.18181 12.6368C2.2219 13.5147 2.36836 13.9909 2.4919 14.3084C2.6359 14.6986 2.86581 15.0529 3.16445 15.3434C3.4549 15.642 3.80918 15.8719 4.19945 16.0159C4.5169 16.1395 4.99308 16.2859 5.87099 16.326C6.82009 16.3694 7.10399 16.3784 9.50781 16.3784C11.9116 16.3784 12.1955 16.3694 13.1446 16.326C14.0225 16.2859 14.4987 16.1395 14.8162 16.0159C15.2359 15.8523 15.5362 15.6584 15.8512 15.3434C16.1498 15.0529 16.3797 14.6986 16.5237 14.3084C16.6473 13.9909 16.7937 13.5147 16.8338 12.6368C16.8772 11.6877 16.8862 11.403 16.8862 9C16.8862 6.597 16.8772 6.31227 16.8338 5.36318C16.7937 4.48527 16.6473 4.00909 16.5237 3.69164C16.3601 3.27191 16.1662 2.97164 15.8512 2.65664C15.5607 2.35806 15.207 2.12826 14.8162 1.98409C14.4987 1.86055 14.0225 1.71409 13.1446 1.674ZM8.35827 11.7745C9.00026 12.0417 9.71512 12.0778 10.3808 11.8765C11.0464 11.6752 11.6215 11.2491 12.0079 10.6709C12.3942 10.0927 12.5679 9.39835 12.4991 8.70636C12.4304 8.01437 12.1235 7.3677 11.631 6.87682C11.317 6.56303 10.9373 6.32276 10.5194 6.1733C10.1014 6.02385 9.65544 5.96893 9.21367 6.0125C8.77191 6.05608 8.3453 6.19705 7.96456 6.42529C7.58382 6.65352 7.25842 6.96334 7.01179 7.33242C6.76515 7.70151 6.60342 8.12069 6.53823 8.55979C6.47305 8.99888 6.50603 9.44697 6.6348 9.87179C6.76357 10.2966 6.98493 10.6876 7.28295 11.0166C7.58096 11.3456 7.94821 11.6044 8.35827 11.7745ZM6.23672 5.72891C6.66629 5.29934 7.17626 4.95859 7.73751 4.72611C8.29877 4.49363 8.90031 4.37398 9.50781 4.37398C10.1153 4.37398 10.7169 4.49363 11.2781 4.72611C11.8394 4.95859 12.3493 5.29934 12.7789 5.72891C13.2085 6.15847 13.5492 6.66844 13.7817 7.2297C14.0142 7.79095 14.1338 8.3925 14.1338 9C14.1338 9.6075 14.0142 10.209 13.7817 10.7703C13.5492 11.3316 13.2085 11.8415 12.7789 12.2711C11.9114 13.1386 10.7347 13.626 9.50781 13.626C8.28092 13.626 7.10427 13.1386 6.23672 12.2711C5.36917 11.4035 4.88179 10.2269 4.88179 9C4.88179 7.7731 5.36917 6.59646 6.23672 5.72891ZM15.1598 5.06291C15.2663 4.96249 15.3515 4.84174 15.4104 4.7078C15.4694 4.57385 15.5008 4.42945 15.503 4.28312C15.5051 4.1368 15.4779 3.99154 15.4228 3.85594C15.3678 3.72033 15.2862 3.59715 15.1827 3.49367C15.0792 3.39019 14.956 3.30853 14.8204 3.25351C14.6848 3.1985 14.5396 3.17125 14.3932 3.17339C14.2469 3.17552 14.1025 3.20699 13.9686 3.26593C13.8346 3.32488 13.7139 3.4101 13.6134 3.51655C13.4182 3.72357 13.3112 3.99855 13.3154 4.28312C13.3195 4.5677 13.4344 4.83945 13.6357 5.04069C13.8369 5.24193 14.1087 5.35682 14.3932 5.36097C14.6778 5.36512 14.9528 5.2582 15.1598 5.06291Z" fill="#232726"/>
</g>
<defs>
<clipPath id="clip0_459_4178">
<rect width="18" height="18" fill="white" transform="translate(0.507812)"/>
</clipPath>
</defs>
</svg>
