<svg width="260" height="100" viewBox="0 0 260 100" fill="none" xmlns="http://www.w3.org/2000/svg">
<g clip-path="url(#clip0_459_4278)">
<path d="M245.885 13.4761V80.9999H245.499L239.044 20.238H201.516V13.4761H245.885Z" fill="#68825A"/>
<path d="M189.28 27.0001L186.967 5.52393H186.582V73.0001H229.554L231.818 94.4763H232.204V27.0001H189.28ZM193.423 66.2382L189.954 33.7144H225.363L228.783 66.2382H193.423Z" fill="#68825A"/>
<path d="M172.949 86.5238V19H173.335L179.79 79.7619H217.318V86.5238H172.949Z" fill="#68825A"/>
<path d="M159.314 100V32.5239H159.7L166.107 93.2382H203.684V100H159.314Z" fill="#68825A"/>
<path d="M259.518 0V67.4762H259.181L252.725 6.7619H214.186V0H259.518Z" fill="#68825A"/>
<path d="M11.6102 95.8097C8.23791 95.8097 5.49194 94.7145 3.27589 92.524C1.10802 90.3335 0 87.6669 0 84.4764C0 81.2859 1.10802 78.6193 3.27589 76.4288C5.49194 74.2383 8.23791 73.1431 11.6102 73.1431C13.6335 73.1431 15.5123 73.6193 17.2466 74.6193C18.9327 75.5716 20.2816 76.905 21.197 78.524L19.2218 79.6669C18.5473 78.3335 17.4875 77.2859 16.1386 76.4764C14.7897 75.6669 13.2481 75.2859 11.6102 75.2859C8.86418 75.2859 6.59996 76.1907 4.81749 77.9526C3.08319 79.7145 2.16787 81.905 2.16787 84.4764C2.16787 87.0478 3.03502 89.2383 4.81749 91.0002C6.55179 92.7621 8.81601 93.6669 11.6102 93.6669C13.2481 93.6669 14.7415 93.2859 16.1386 92.4764C17.4875 91.6669 18.5473 90.6193 19.2218 89.2859L21.197 90.3812C20.2816 92.0478 18.9809 93.3335 17.2466 94.3335C15.5605 95.3335 13.6335 95.8097 11.6102 95.8097Z" fill="white"/>
<path d="M38.444 73.5239V75.5715H31.6513V95.3811H29.4352V75.5715H22.6426V73.5239H38.444Z" fill="white"/>
<path d="M50.6805 95.8097C47.3082 95.8097 44.5623 94.7145 42.3462 92.524C40.1302 90.3335 39.0703 87.6669 39.0703 84.4764C39.0703 81.2859 40.1783 78.6193 42.3462 76.4288C44.5623 74.2383 47.3082 73.1431 50.6805 73.1431C52.7038 73.1431 54.5826 73.6193 56.3169 74.6193C58.0031 75.5716 59.3519 76.905 60.2673 78.524L58.2921 79.6669C57.6177 78.3335 56.5578 77.2859 55.2089 76.4764C53.86 75.6669 52.3184 75.2859 50.6805 75.2859C47.9345 75.2859 45.6703 76.1907 43.8878 77.9526C42.1535 79.7145 41.2382 81.905 41.2382 84.4764C41.2382 87.0478 42.1053 89.2383 43.8878 91.0002C45.6221 92.7621 47.8863 93.6669 50.6805 93.6669C52.3184 93.6669 53.8118 93.2859 55.2089 92.4764C56.5578 91.6669 57.6177 90.6193 58.2921 89.2859L60.2673 90.3812C59.3519 92.0478 58.0512 93.3335 56.3169 94.3335C54.6308 95.3335 52.752 95.8097 50.6805 95.8097Z" fill="white"/>
<path d="M63.2539 86.7622V84.7622H74.6714V86.7622H63.2539Z" fill="white"/>
<path d="M86.5699 82.6189C88.3524 82.857 89.7977 83.5237 90.9539 84.6189C92.1101 85.7141 92.6881 87.1903 92.6881 89.0475C92.6881 91.1427 91.9655 92.7618 90.5203 93.9522C89.075 95.1427 87.3407 95.7618 85.2692 95.7618C83.6313 95.7618 82.1378 95.3808 80.8853 94.6189C79.5846 93.857 78.6692 92.8094 78.1875 91.3808L80.0181 90.3332C80.3554 91.4284 81.0298 92.238 81.9451 92.8094C82.8605 93.3808 83.9685 93.6189 85.3174 93.6189C86.859 93.6189 88.0634 93.238 89.075 92.4284C90.0385 91.6189 90.5685 90.4761 90.5685 89.0475C90.5685 87.5713 90.0867 86.476 89.075 85.6665C88.1115 84.857 86.859 84.476 85.3174 84.476V84.4284L85.2692 84.476H84.6911L83.7276 83.0475L89.2196 75.6189H78.8138V73.5713H91.7728V75.6189L86.5699 82.6189Z" fill="white"/>
<path d="M110.127 92.7145C108.682 94.7621 106.61 95.8097 103.961 95.8097C101.311 95.8097 99.2394 94.7621 97.7942 92.7145C96.3489 90.6669 95.5781 87.905 95.5781 84.4764C95.5781 81.0478 96.3008 78.2859 97.7942 76.2383C99.2394 74.1907 101.311 73.1431 103.961 73.1431C106.61 73.1431 108.682 74.1907 110.127 76.2383C111.572 78.2859 112.343 81.0478 112.343 84.4764C112.343 87.905 111.572 90.6669 110.127 92.7145ZM99.3839 91.2859C100.492 92.905 101.985 93.7145 103.912 93.7145C105.839 93.7145 107.381 92.905 108.441 91.2859C109.549 89.6669 110.079 87.4288 110.079 84.4764C110.079 81.5716 109.549 79.2859 108.441 77.6669C107.333 76.0478 105.839 75.2383 103.912 75.2383C101.985 75.2383 100.444 76.0478 99.3839 77.6669C98.2759 79.2859 97.746 81.524 97.746 84.4764C97.746 87.3812 98.3241 89.6669 99.3839 91.2859Z" fill="white"/>
<path d="M130.025 92.7145C128.58 94.7621 126.509 95.8097 123.859 95.8097C121.209 95.8097 119.138 94.7621 117.693 92.7145C116.247 90.6669 115.477 87.905 115.477 84.4764C115.477 81.0478 116.199 78.2859 117.693 76.2383C119.138 74.1907 121.209 73.1431 123.859 73.1431C126.509 73.1431 128.58 74.1907 130.025 76.2383C131.471 78.2859 132.241 81.0478 132.241 84.4764C132.241 87.905 131.519 90.6669 130.025 92.7145ZM119.331 91.2859C120.439 92.905 121.932 93.7145 123.859 93.7145C125.786 93.7145 127.328 92.905 128.387 91.2859C129.495 89.6669 130.025 87.4288 130.025 84.4764C130.025 81.5716 129.495 79.2859 128.387 77.6669C127.279 76.0478 125.786 75.2383 123.859 75.2383C121.932 75.2383 120.39 76.0478 119.331 77.6669C118.223 79.2859 117.693 81.524 117.693 84.4764C117.693 87.3812 118.223 89.6669 119.331 91.2859Z" fill="white"/>
<path d="M149.969 92.7145C148.523 94.7621 146.452 95.8097 143.802 95.8097C141.153 95.8097 139.081 94.7621 137.636 92.7145C136.191 90.6669 135.42 87.905 135.42 84.4764C135.42 81.0478 136.143 78.2859 137.636 76.2383C139.081 74.1907 141.153 73.1431 143.802 73.1431C146.452 73.1431 148.523 74.1907 149.969 76.2383C151.414 78.2859 152.185 81.0478 152.185 84.4764C152.185 87.905 151.462 90.6669 149.969 92.7145ZM139.274 91.2859C140.382 92.905 141.875 93.7145 143.802 93.7145C145.729 93.7145 147.271 92.905 148.331 91.2859C149.439 89.6669 149.969 87.4288 149.969 84.4764C149.969 81.5716 149.439 79.2859 148.331 77.6669C147.223 76.0478 145.729 75.2383 143.802 75.2383C141.875 75.2383 140.334 76.0478 139.274 77.6669C138.166 79.2859 137.636 81.524 137.636 84.4764C137.636 87.3812 138.166 89.6669 139.274 91.2859Z" fill="white"/>
<path d="M5.0584 21.1431L0.722656 16.8574V5.42878L5.0584 1.14307H19.0773V6.28592H8.38247L7.08174 7.57164V14.7145L8.38247 16.0002H19.0773V21.1431H5.0584Z" fill="white"/>
<path d="M22.6895 21.1431V1.14307H42.9229V21.1431H36.5638V6.28592H29.0485V21.1431H22.6895Z" fill="white"/>
<path d="M47.8379 21.1431V1.14307H66.3371V6.28592H54.197V8.71449H63.1575V13.2859H54.197V16.0002H66.6261V21.1431H47.8379Z" fill="white"/>
<path d="M89.8936 16.0002H93.0732V25.7145H87.0032V21.1431H70.2383V1.14307H76.5974V16.0002H83.5346V1.14307H89.8936V16.0002Z" fill="white"/>
<path d="M99.7225 21.1431L95.3867 16.8574V5.42878L99.7225 1.14307H112.73L117.065 5.42878V16.8574L112.73 21.1431H99.7225ZM103.047 16.0002H109.406L110.706 14.7145V7.57164L109.406 6.28592H103.047L101.746 7.57164V14.7145L103.047 16.0002Z" fill="white"/>
<path d="M118.945 25.7145V16.0002H121.402L123.088 13.7145L124.148 1.14307H141.636V16.0002H145.104V25.7145H139.034V21.1431H125.015V25.7145H118.945ZM128.388 16.0002H135.277V6.28592H130.026L129.351 14.7145L128.388 16.0002Z" fill="white"/>
<path d="M147.561 21.1431V19.4288L150.933 14.3335L147.994 11.4288V4.85735L151.752 1.14307H168.083V21.1431H161.724V15.4288H157.436L153.775 21.1431H147.561ZM155.365 10.4288H161.724V6.14307H155.365L154.353 7.14307V9.42878L155.365 10.4288Z" fill="white"/>
<path d="M172.996 21.1431V1.14307H190.05V6.28592H179.355V21.1431H172.996Z" fill="white"/>
<path d="M1.30078 55.4287V35.4287H21.5342V55.4287H15.1752V40.5716H7.65987V55.4287H1.30078Z" fill="white"/>
<path d="M26.4473 55.4287V35.4287H42.4895L46.2472 39.143V46.7144L42.4895 50.4287H32.8064V55.4287H26.4473ZM32.8064 45.2859H39.0209L39.8881 44.4287V41.4287L39.0209 40.5716H32.8064V45.2859Z" fill="white"/>
<path d="M50.0059 55.4287V35.4287H56.2204V48.5716H56.7985L62.724 35.4287H71.6846V55.4287H65.47V42.2859H64.8919L58.9664 55.4287H50.0059Z" fill="white"/>
<path d="M76.5977 55.4287V35.4287H82.9567V42.5716H85.51L90.6166 35.4287H96.9756V37.143L90.7611 45.0954L97.5537 53.7144V55.4287H90.9056L85.6064 48.0001H82.9567V55.4287H76.5977Z" fill="white"/>
<path d="M114.848 35.4287L122.556 53.7144V55.4287H116.39L115.137 52.143H105.743L104.491 55.4287H98.4688V53.7144L106.321 35.4287H114.848ZM107.718 47.0001H113.21L110.85 40.8573H110.127L107.718 47.0001Z" fill="white"/>
<path d="M125.447 55.4287V35.4287H141.49L145.247 39.143V46.7144L141.49 50.4287H131.806V55.4287H125.447ZM131.806 45.2859H138.021L138.888 44.4287V41.4287L138.021 40.5716H131.806V45.2859Z" fill="white"/>
<path d="M149.006 55.4287V35.4287H169.239V55.4287H162.88V40.5716H155.365V55.4287H149.006Z" fill="white"/>
<path d="M188.555 35.4287L196.263 53.7144V55.4287H190.097L188.844 52.143H179.45L178.198 55.4287H172.176V53.7144L180.028 35.4287H188.555ZM181.425 47.0001H186.917L184.557 40.8573H183.834L181.425 47.0001Z" fill="white"/>
<path d="M202.047 55.4287V40.5716H194.676V35.4287H215.776V40.5716H208.406V55.4287H202.047Z" fill="white"/>
<path d="M224.302 55.4287V40.5716H216.932V35.4287H238.032V40.5716H230.661V55.4287H224.302Z" fill="white"/>
<path d="M239.477 55.4287V53.7144L242.849 48.6192L239.91 45.7144V39.143L243.668 35.4287H259.999V55.4287H253.64V49.7144H249.352L245.691 55.4287H239.477ZM247.281 44.7144H253.64V40.4287H247.281L246.269 41.4287V43.7144L247.281 44.7144Z" fill="white"/>
</g>
<defs>
<clipPath id="clip0_459_4278">
<rect width="260" height="100" fill="white"/>
</clipPath>
</defs>
</svg>
