<svg width="146" height="59" viewBox="0 0 146 59" fill="none" xmlns="http://www.w3.org/2000/svg">
<g clip-path="url(#clip0_459_4107)">
<path d="M138.075 8.3161V47.4799H137.859L134.234 12.238H113.16V8.3161H138.075Z" fill="#68825A"/>
<path d="M106.288 16.1599L104.99 3.7037H104.773V42.8399H128.904L130.175 55.2961H130.392V16.1599H106.288ZM108.615 38.918L106.667 20.0542H126.55L128.471 38.918H108.615Z" fill="#68825A"/>
<path d="M97.1172 50.6837V11.5199H97.3336L100.959 46.7618H122.032V50.6837H97.1172Z" fill="#68825A"/>
<path d="M89.4609 58.4999V19.3637H89.6774L93.2753 54.578H114.376V58.4999H89.4609Z" fill="#68825A"/>
<path d="M145.729 0.499908V39.6361H145.54L141.915 4.42181H120.273V0.499908H145.729Z" fill="#68825A"/>
<path d="M6.51955 56.0694C4.6259 56.0694 3.08394 55.4342 1.83954 54.1637C0.622198 52.8932 0 51.3466 0 49.4961C0 47.6456 0.622198 46.0989 1.83954 44.8285C3.08394 43.558 4.6259 42.9228 6.51955 42.9228C7.65573 42.9228 8.71076 43.1989 9.68464 43.7789C10.6315 44.3313 11.3889 45.1047 11.9029 46.0437L10.7938 46.7066C10.415 45.9332 9.8199 45.3256 9.06244 44.8561C8.30498 44.3866 7.43932 44.1656 6.51955 44.1656C4.97758 44.1656 3.70613 44.6904 2.70521 45.7123C1.73133 46.7342 1.21734 48.0047 1.21734 49.4961C1.21734 50.9875 1.70428 52.258 2.70521 53.2799C3.67908 54.3018 4.95053 54.8266 6.51955 54.8266C7.43932 54.8266 8.27793 54.6056 9.06244 54.1361C9.8199 53.6666 10.415 53.0589 10.7938 52.2856L11.9029 52.9209C11.3889 53.8875 10.6585 54.6332 9.68464 55.2132C8.73782 55.7932 7.65573 56.0694 6.51955 56.0694Z" fill="white"/>
<path d="M21.5879 43.1437V44.3313H17.7736V55.8209H16.5292V44.3313H12.7148V43.1437H21.5879Z" fill="white"/>
<path d="M28.459 56.0694C26.5654 56.0694 25.0234 55.4342 23.779 54.1637C22.5346 52.8932 21.9395 51.3466 21.9395 49.4961C21.9395 47.6456 22.5617 46.0989 23.779 44.8285C25.0234 43.558 26.5654 42.9228 28.459 42.9228C29.5952 42.9228 30.6502 43.1989 31.6241 43.7789C32.5709 44.3313 33.3284 45.1047 33.8424 46.0437L32.7332 46.7066C32.3545 45.9332 31.7594 45.3256 31.0019 44.8561C30.2444 44.3866 29.3788 44.1656 28.459 44.1656C26.917 44.1656 25.6456 44.6904 24.6447 45.7123C23.6708 46.7342 23.1568 48.0047 23.1568 49.4961C23.1568 50.9875 23.6437 52.258 24.6447 53.2799C25.6185 54.3018 26.89 54.8266 28.459 54.8266C29.3788 54.8266 30.2174 54.6056 31.0019 54.1361C31.7594 53.6666 32.3545 53.0589 32.7332 52.2856L33.8424 52.9209C33.3284 53.8875 32.598 54.6332 31.6241 55.2132C30.6773 55.7932 29.6222 56.0694 28.459 56.0694Z" fill="white"/>
<path d="M35.5195 50.8218V49.6618H41.9309V50.8218H35.5195Z" fill="white"/>
<path d="M48.6133 48.4189C49.6142 48.557 50.4258 48.9437 51.075 49.5789C51.7243 50.2142 52.0489 51.0704 52.0489 52.1475C52.0489 53.3628 51.6431 54.3018 50.8316 54.9923C50.02 55.6828 49.0461 56.0418 47.8829 56.0418C46.9631 56.0418 46.1245 55.8208 45.4212 55.3789C44.6908 54.937 44.1768 54.3294 43.9062 53.5008L44.9342 52.8932C45.1236 53.5285 45.5023 53.998 46.0163 54.3294C46.5303 54.6608 47.1525 54.7989 47.91 54.7989C48.7756 54.7989 49.4519 54.578 50.02 54.1085C50.5611 53.6389 50.8586 52.9761 50.8586 52.1475C50.8586 51.2913 50.5881 50.6561 50.02 50.1866C49.479 49.717 48.7756 49.4961 47.91 49.4961V49.4685L47.8829 49.4961H47.5583L47.0172 48.6675L50.1012 44.3589H44.2579V43.1713H51.5349V44.3589L48.6133 48.4189Z" fill="white"/>
<path d="M61.8416 54.2742C61.03 55.4618 59.8668 56.0694 58.3789 56.0694C56.8911 56.0694 55.7278 55.4618 54.9163 54.2742C54.1047 53.0866 53.6719 51.4847 53.6719 49.4961C53.6719 47.5075 54.0777 45.9056 54.9163 44.718C55.7278 43.5304 56.8911 42.9228 58.3789 42.9228C59.8668 42.9228 61.03 43.5304 61.8416 44.718C62.6532 45.9056 63.086 47.5075 63.086 49.4961C63.086 51.4847 62.6532 53.0866 61.8416 54.2742ZM55.809 53.4456C56.4312 54.3847 57.2698 54.8542 58.3519 54.8542C59.434 54.8542 60.2996 54.3847 60.8948 53.4456C61.517 52.5066 61.8145 51.2085 61.8145 49.4961C61.8145 47.8113 61.517 46.4856 60.8948 45.5466C60.2726 44.6075 59.434 44.138 58.3519 44.138C57.2698 44.138 56.4041 44.6075 55.809 45.5466C55.1868 46.4856 54.8892 47.7837 54.8892 49.4961C54.8892 51.1809 55.2138 52.5066 55.809 53.4456Z" fill="white"/>
<path d="M73.0135 54.2742C72.2019 55.4618 71.0387 56.0694 69.5508 56.0694C68.0629 56.0694 66.8997 55.4618 66.0881 54.2742C65.2766 53.0866 64.8438 51.4847 64.8438 49.4961C64.8438 47.5075 65.2495 45.9056 66.0881 44.718C66.8997 43.5304 68.0629 42.9228 69.5508 42.9228C71.0387 42.9228 72.2019 43.5304 73.0135 44.718C73.825 45.9056 74.2579 47.5075 74.2579 49.4961C74.2579 51.4847 73.8521 53.0866 73.0135 54.2742ZM67.0079 53.4456C67.6301 54.3847 68.4687 54.8542 69.5508 54.8542C70.6329 54.8542 71.4986 54.3847 72.0937 53.4456C72.7159 52.5066 73.0135 51.2085 73.0135 49.4961C73.0135 47.8113 72.7159 46.4856 72.0937 45.5466C71.4715 44.6075 70.6329 44.138 69.5508 44.138C68.4687 44.138 67.6031 44.6075 67.0079 45.5466C66.3857 46.4856 66.0881 47.7837 66.0881 49.4961C66.0881 51.1809 66.3857 52.5066 67.0079 53.4456Z" fill="white"/>
<path d="M84.2127 54.2742C83.4011 55.4618 82.2379 56.0694 80.75 56.0694C79.2622 56.0694 78.0989 55.4618 77.2874 54.2742C76.4758 53.0866 76.043 51.4847 76.043 49.4961C76.043 47.5075 76.4488 45.9056 77.2874 44.718C78.0989 43.5304 79.2622 42.9228 80.75 42.9228C82.2379 42.9228 83.4011 43.5304 84.2127 44.718C85.0243 45.9056 85.4571 47.5075 85.4571 49.4961C85.4571 51.4847 85.0513 53.0866 84.2127 54.2742ZM78.2071 53.4456C78.8293 54.3847 79.6679 54.8542 80.75 54.8542C81.8321 54.8542 82.6978 54.3847 83.2929 53.4456C83.9151 52.5066 84.2127 51.2085 84.2127 49.4961C84.2127 47.8113 83.9151 46.4856 83.2929 45.5466C82.6707 44.6075 81.8321 44.138 80.75 44.138C79.6679 44.138 78.8023 44.6075 78.2071 45.5466C77.5849 46.4856 77.2874 47.7837 77.2874 49.4961C77.2874 51.1809 77.5849 52.5066 78.2071 53.4456Z" fill="white"/>
<path d="M2.84094 12.7628L0.40625 10.2771V3.6485L2.84094 1.16278H10.7131V4.14564H4.70753L3.97712 4.89135V9.03421L4.70753 9.77992H10.7131V12.7628H2.84094Z" fill="white"/>
<path d="M12.7422 12.7628V1.16278H24.1041V12.7628H20.5332V4.14564H16.3131V12.7628H12.7422Z" fill="white"/>
<path d="M26.8633 12.7628V1.16278H37.2513V4.14564H30.4342V5.55421H35.4658V8.20564H30.4342V9.77992H37.4136V12.7628H26.8633Z" fill="white"/>
<path d="M50.4786 9.77992H52.2641V15.4142H48.8555V12.7628H39.4414V1.16278H43.0123V9.77992H46.9078V1.16278H50.4786V9.77992Z" fill="white"/>
<path d="M55.9991 12.7628L53.5645 10.2771V3.6485L55.9991 1.16278H63.3032L65.7379 3.6485V10.2771L63.3032 12.7628H55.9991ZM57.8657 9.77992H61.4366L62.167 9.03421V4.89135L61.4366 4.14564H57.8657L57.1353 4.89135V9.03421L57.8657 9.77992Z" fill="white"/>
<path d="M66.793 15.4142V9.77992H68.1726L69.1194 8.45421L69.7146 1.16278H79.5345V9.77992H81.4822V15.4142H78.0737V12.7628H70.2015V15.4142H66.793ZM72.0952 9.77992H75.9636V4.14564H73.0149L72.6362 9.03421L72.0952 9.77992Z" fill="white"/>
<path d="M82.8613 12.7628V11.7685L84.755 8.81326L83.1048 7.1285V3.31707L85.2149 1.16278H94.3855V12.7628H90.8146V9.4485H88.407L86.3511 12.7628H82.8613ZM87.2438 6.5485H90.8146V4.06278H87.2438L86.6757 4.64278V5.9685L87.2438 6.5485Z" fill="white"/>
<path d="M97.1445 12.7628V1.16278H106.721V4.14564H100.715V12.7628H97.1445Z" fill="white"/>
<path d="M0.730469 32.6485V21.0485H12.0923V32.6485H8.52146V24.0313H4.30134V32.6485H0.730469Z" fill="white"/>
<path d="M14.8516 32.6485V21.0485H23.8599L25.97 23.2028V27.5942L23.8599 29.7485H18.4224V32.6485H14.8516ZM18.4224 26.7656H21.9122L22.3991 26.2685V24.5285L21.9122 24.0313H18.4224V26.7656Z" fill="white"/>
<path d="M28.0801 32.6485V21.0485H31.5698V28.6713H31.8944L35.2218 21.0485H40.2535V32.6485H36.7638V25.0256H36.4392L33.1118 32.6485H28.0801Z" fill="white"/>
<path d="M43.0137 32.6485V21.0485H46.5845V25.1913H48.0183L50.8858 21.0485H54.4567V22.0428L50.967 26.6552L54.7813 31.6542V32.6485H51.0481L48.0724 28.3399H46.5845V32.6485H43.0137Z" fill="white"/>
<path d="M64.4926 21.0485L68.821 31.6542V32.6485H65.3583L64.6549 30.7428H59.3798L58.6764 32.6485H55.2949V31.6542L59.7044 21.0485H64.4926ZM60.4889 27.7599H63.5729L62.2473 24.1971H61.8415L60.4889 27.7599Z" fill="white"/>
<path d="M70.4453 32.6485V21.0485H79.4537L81.5637 23.2028V27.5942L79.4537 29.7485H74.0162V32.6485H70.4453ZM74.0162 26.7656H77.5059L77.9928 26.2685V24.5285L77.5059 24.0313H74.0162V26.7656Z" fill="white"/>
<path d="M83.6719 32.6485V21.0485H95.0337V32.6485H91.4629V24.0313H87.2428V32.6485H83.6719Z" fill="white"/>
<path d="M105.881 21.0485L110.21 31.6542V32.6485H106.747L106.044 30.7428H100.768L100.065 32.6485H96.6836V31.6542L101.093 21.0485H105.881ZM101.878 27.7599H104.962L103.636 24.1971H103.23L101.878 27.7599Z" fill="white"/>
<path d="M113.457 32.6485V24.0313H109.318V21.0485H121.167V24.0313H117.028V32.6485H113.457Z" fill="white"/>
<path d="M125.955 32.6485V24.0313H121.816V21.0485H133.665V24.0313H129.526V32.6485H125.955Z" fill="white"/>
<path d="M134.477 32.6485V31.6542L136.37 28.699L134.72 27.0142V23.2028L136.83 21.0485H146.001V32.6485H142.43V29.3342H140.022L137.966 32.6485H134.477ZM138.859 26.4342H142.43V23.9485H138.859L138.291 24.5285V25.8542L138.859 26.4342Z" fill="white"/>
</g>
<defs>
<clipPath id="clip0_459_4107">
<rect width="146" height="58" fill="white" transform="translate(0 0.499908)"/>
</clipPath>
</defs>
</svg>
