<svg width="146" height="58" viewBox="0 0 146 58" fill="none" xmlns="http://www.w3.org/2000/svg">
<g clip-path="url(#clip0_621_533)">
<path d="M138.075 7.81616V46.98H137.859L134.234 11.7381H113.16V7.81616H138.075Z" fill="#68825A"/>
<path d="M106.288 15.66L104.99 3.20386H104.773V42.34H128.904L130.175 54.7962H130.392V15.66H106.288ZM108.615 38.4181L106.667 19.5543H126.55L128.471 38.4181H108.615Z" fill="#68825A"/>
<path d="M97.1172 50.1838V11.02H97.3336L100.959 46.2619H122.032V50.1838H97.1172Z" fill="#68825A"/>
<path d="M89.4609 58V18.8638H89.6774L93.2753 54.0781H114.376V58H89.4609Z" fill="#68825A"/>
<path d="M145.729 0V39.1362H145.54L141.915 3.9219H120.273V0H145.729Z" fill="#68825A"/>
<path d="M6.51955 55.5695C4.6259 55.5695 3.08394 54.9343 1.83954 53.6638C0.622198 52.3933 0 50.8467 0 48.9962C0 47.1457 0.622198 45.599 1.83954 44.3286C3.08394 43.0581 4.6259 42.4229 6.51955 42.4229C7.65573 42.4229 8.71076 42.699 9.68464 43.279C10.6315 43.8314 11.3889 44.6048 11.9029 45.5438L10.7938 46.2067C10.415 45.4333 9.8199 44.8257 9.06244 44.3562C8.30498 43.8867 7.43932 43.6657 6.51955 43.6657C4.97758 43.6657 3.70613 44.1905 2.70521 45.2124C1.73133 46.2343 1.21734 47.5048 1.21734 48.9962C1.21734 50.4876 1.70428 51.7581 2.70521 52.78C3.67908 53.8019 4.95053 54.3267 6.51955 54.3267C7.43932 54.3267 8.27793 54.1057 9.06244 53.6362C9.8199 53.1667 10.415 52.559 10.7938 51.7857L11.9029 52.4209C11.3889 53.3876 10.6585 54.1333 9.68464 54.7133C8.73782 55.2933 7.65573 55.5695 6.51955 55.5695Z" fill="#232726"/>
<path d="M21.5879 42.6438V43.8314H17.7736V55.3209H16.5292V43.8314H12.7148V42.6438H21.5879Z" fill="#232726"/>
<path d="M28.4588 55.5695C26.5651 55.5695 25.0231 54.9343 23.7788 53.6638C22.5344 52.3933 21.9392 50.8467 21.9392 48.9962C21.9392 47.1457 22.5614 45.599 23.7788 44.3286C25.0231 43.0581 26.5651 42.4229 28.4588 42.4229C29.5949 42.4229 30.65 42.699 31.6238 43.279C32.5707 43.8314 33.3281 44.6048 33.8421 45.5438L32.733 46.2067C32.3543 45.4333 31.7591 44.8257 31.0017 44.3562C30.2442 43.8867 29.3785 43.6657 28.4588 43.6657C26.9168 43.6657 25.6453 44.1905 24.6444 45.2124C23.6705 46.2343 23.1566 47.5048 23.1566 48.9962C23.1566 50.4876 23.6435 51.7581 24.6444 52.78C25.6183 53.8019 26.8897 54.3267 28.4588 54.3267C29.3785 54.3267 30.2171 54.1057 31.0017 53.6362C31.7591 53.1667 32.3543 52.559 32.733 51.7857L33.8421 52.4209C33.3281 53.3876 32.5977 54.1333 31.6238 54.7133C30.677 55.2933 29.622 55.5695 28.4588 55.5695Z" fill="#232726"/>
<path d="M35.5194 50.3219V49.1619H41.9307V50.3219H35.5194Z" fill="#232726"/>
<path d="M48.6133 47.919C49.6142 48.0571 50.4258 48.4438 51.075 49.079C51.7243 49.7142 52.0489 50.5704 52.0489 51.6476C52.0489 52.8628 51.6431 53.8019 50.8316 54.4923C50.02 55.1828 49.0461 55.5419 47.8829 55.5419C46.9631 55.5419 46.1245 55.3209 45.4212 54.879C44.6908 54.4371 44.1768 53.8295 43.9062 53.0009L44.9342 52.3933C45.1236 53.0285 45.5023 53.4981 46.0163 53.8295C46.5303 54.1609 47.1525 54.299 47.91 54.299C48.7756 54.299 49.4519 54.0781 50.02 53.6085C50.5611 53.139 50.8586 52.4761 50.8586 51.6476C50.8586 50.7914 50.5881 50.1561 50.02 49.6866C49.479 49.2171 48.7756 48.9961 47.91 48.9961V48.9685L47.8829 48.9961H47.5583L47.0172 48.1676L50.1012 43.859H44.2579V42.6714H51.5349V43.859L48.6133 47.919Z" fill="#232726"/>
<path d="M61.8416 53.7743C61.03 54.9619 59.8668 55.5695 58.3789 55.5695C56.8911 55.5695 55.7278 54.9619 54.9163 53.7743C54.1047 52.5867 53.6719 50.9848 53.6719 48.9962C53.6719 47.0076 54.0777 45.4057 54.9163 44.2181C55.7278 43.0305 56.8911 42.4229 58.3789 42.4229C59.8668 42.4229 61.03 43.0305 61.8416 44.2181C62.6532 45.4057 63.086 47.0076 63.086 48.9962C63.086 50.9848 62.6532 52.5867 61.8416 53.7743ZM55.809 52.9457C56.4312 53.8848 57.2698 54.3543 58.3519 54.3543C59.434 54.3543 60.2996 53.8848 60.8948 52.9457C61.517 52.0067 61.8145 50.7086 61.8145 48.9962C61.8145 47.3114 61.517 45.9857 60.8948 45.0467C60.2726 44.1076 59.434 43.6381 58.3519 43.6381C57.2698 43.6381 56.4041 44.1076 55.809 45.0467C55.1868 45.9857 54.8892 47.2838 54.8892 48.9962C54.8892 50.6809 55.2138 52.0067 55.809 52.9457Z" fill="#232726"/>
<path d="M73.0135 53.7743C72.2019 54.9619 71.0387 55.5695 69.5508 55.5695C68.0629 55.5695 66.8997 54.9619 66.0881 53.7743C65.2766 52.5867 64.8438 50.9848 64.8438 48.9962C64.8438 47.0076 65.2495 45.4057 66.0881 44.2181C66.8997 43.0305 68.0629 42.4229 69.5508 42.4229C71.0387 42.4229 72.2019 43.0305 73.0135 44.2181C73.825 45.4057 74.2579 47.0076 74.2579 48.9962C74.2579 50.9848 73.8521 52.5867 73.0135 53.7743ZM67.0079 52.9457C67.6301 53.8848 68.4687 54.3543 69.5508 54.3543C70.6329 54.3543 71.4986 53.8848 72.0937 52.9457C72.7159 52.0067 73.0135 50.7086 73.0135 48.9962C73.0135 47.3114 72.7159 45.9857 72.0937 45.0467C71.4715 44.1076 70.6329 43.6381 69.5508 43.6381C68.4687 43.6381 67.6031 44.1076 67.0079 45.0467C66.3857 45.9857 66.0881 47.2838 66.0881 48.9962C66.0881 50.6809 66.3857 52.0067 67.0079 52.9457Z" fill="#232726"/>
<path d="M84.2127 53.7743C83.4011 54.9619 82.2379 55.5695 80.75 55.5695C79.2622 55.5695 78.0989 54.9619 77.2874 53.7743C76.4758 52.5867 76.043 50.9848 76.043 48.9962C76.043 47.0076 76.4488 45.4057 77.2874 44.2181C78.0989 43.0305 79.2622 42.4229 80.75 42.4229C82.2379 42.4229 83.4011 43.0305 84.2127 44.2181C85.0243 45.4057 85.4571 47.0076 85.4571 48.9962C85.4571 50.9848 85.0513 52.5867 84.2127 53.7743ZM78.2071 52.9457C78.8293 53.8848 79.6679 54.3543 80.75 54.3543C81.8321 54.3543 82.6978 53.8848 83.2929 52.9457C83.9151 52.0067 84.2127 50.7086 84.2127 48.9962C84.2127 47.3114 83.9151 45.9857 83.2929 45.0467C82.6707 44.1076 81.8321 43.6381 80.75 43.6381C79.6679 43.6381 78.8023 44.1076 78.2071 45.0467C77.5849 45.9857 77.2874 47.2838 77.2874 48.9962C77.2874 50.6809 77.5849 52.0067 78.2071 52.9457Z" fill="#232726"/>
<path d="M2.84094 12.2628L0.40625 9.77713V3.14856L2.84094 0.662842H10.7131V3.6457H4.70753L3.97712 4.39141V8.53427L4.70753 9.27998H10.7131V12.2628H2.84094Z" fill="#232726"/>
<path d="M12.7419 12.2628V0.662842H24.1038V12.2628H20.5329V3.6457H16.3128V12.2628H12.7419Z" fill="#232726"/>
<path d="M26.8632 12.2628V0.662842H37.2512V3.6457H30.434V5.05427H35.4657V7.7057H30.434V9.27998H37.4135V12.2628H26.8632Z" fill="#232726"/>
<path d="M50.4786 9.27998H52.2641V14.9143H48.8555V12.2628H39.4414V0.662842H43.0123V9.27998H46.9078V0.662842H50.4786V9.27998Z" fill="#232726"/>
<path d="M55.9991 12.2628L53.5645 9.77713V3.14856L55.9991 0.662842H63.3032L65.7379 3.14856V9.77713L63.3032 12.2628H55.9991ZM57.8657 9.27998H61.4366L62.167 8.53427V4.39141L61.4366 3.6457H57.8657L57.1353 4.39141V8.53427L57.8657 9.27998Z" fill="#232726"/>
<path d="M66.793 14.9143V9.27998H68.1726L69.1194 7.95427L69.7146 0.662842H79.5345V9.27998H81.4822V14.9143H78.0737V12.2628H70.2015V14.9143H66.793ZM72.0952 9.27998H75.9636V3.6457H73.0149L72.6362 8.53427L72.0952 9.27998Z" fill="#232726"/>
<path d="M82.8613 12.2628V11.2686L84.755 8.31332L83.1048 6.62856V2.81713L85.2149 0.662842H94.3855V12.2628H90.8146V8.94856H88.407L86.3511 12.2628H82.8613ZM87.2438 6.04856H90.8146V3.56284H87.2438L86.6757 4.14284V5.46856L87.2438 6.04856Z" fill="#232726"/>
<path d="M97.1444 12.2628V0.662842H106.721V3.6457H100.715V12.2628H97.1444Z" fill="#232726"/>
<path d="M0.730469 32.1486V20.5486H12.0923V32.1486H8.52146V23.5314H4.30134V32.1486H0.730469Z" fill="#232726"/>
<path d="M14.8516 32.1486V20.5486H23.8599L25.97 22.7029V27.0943L23.8599 29.2486H18.4224V32.1486H14.8516ZM18.4224 26.2657H21.9122L22.3991 25.7686V24.0286L21.9122 23.5314H18.4224V26.2657Z" fill="#232726"/>
<path d="M28.0801 32.1486V20.5486H31.5698V28.1714H31.8944L35.2218 20.5486H40.2535V32.1486H36.7638V24.5257H36.4392L33.1118 32.1486H28.0801Z" fill="#232726"/>
<path d="M43.0137 32.1486V20.5486H46.5845V24.6914H48.0183L50.8858 20.5486H54.4567V21.5429L50.967 26.1552L54.7813 31.1543V32.1486H51.0481L48.0724 27.84H46.5845V32.1486H43.0137Z" fill="#232726"/>
<path d="M64.4926 20.5486L68.821 31.1543V32.1486H65.3583L64.6549 30.2429H59.3798L58.6764 32.1486H55.2949V31.1543L59.7044 20.5486H64.4926ZM60.4889 27.26H63.5729L62.2473 23.6972H61.8415L60.4889 27.26Z" fill="#232726"/>
<path d="M70.4453 32.1486V20.5486H79.4537L81.5637 22.7029V27.0943L79.4537 29.2486H74.0162V32.1486H70.4453ZM74.0162 26.2657H77.5059L77.9928 25.7686V24.0286L77.5059 23.5314H74.0162V26.2657Z" fill="#232726"/>
<path d="M83.6719 32.1486V20.5486H95.0337V32.1486H91.4629V23.5314H87.2428V32.1486H83.6719Z" fill="#232726"/>
<path d="M105.881 20.5486L110.21 31.1543V32.1486H106.747L106.044 30.2429H100.768L100.065 32.1486H96.6836V31.1543L101.093 20.5486H105.881ZM101.878 27.26H104.962L103.636 23.6972H103.23L101.878 27.26Z" fill="#232726"/>
<path d="M113.457 32.1486V23.5314H109.318V20.5486H121.167V23.5314H117.028V32.1486H113.457Z" fill="#232726"/>
<path d="M125.955 32.1486V23.5314H121.816V20.5486H133.665V23.5314H129.526V32.1486H125.955Z" fill="#232726"/>
<path d="M134.477 32.1486V31.1543L136.37 28.1991L134.72 26.5143V22.7029L136.83 20.5486H146.001V32.1486H142.43V28.8343H140.022L137.966 32.1486H134.477ZM138.859 25.9343H142.43V23.4486H138.859L138.291 24.0286V25.3543L138.859 25.9343Z" fill="#232726"/>
</g>
<defs>
<clipPath id="clip0_621_533">
<rect width="146" height="58" fill="white"/>
</clipPath>
</defs>
</svg>
