<svg width="29" height="29" viewBox="0 0 29 29" fill="none" xmlns="http://www.w3.org/2000/svg">
<path d="M13.7367 0.00422035C11.2847 0.0323176 6.01297 0.414802 3.06439 2.98253C0.8711 5.0454 0.105311 8.09531 0.0155548 11.8667C-0.0589234 15.6245 -0.148679 22.6814 7.01747 24.6029V27.5295C7.01747 27.5295 6.97259 28.7005 7.78803 28.9407C8.79253 29.2425 9.36449 28.3416 10.3193 27.3736L12.1001 25.4621C17.0033 25.8491 20.7587 24.9573 21.1913 24.8249C22.1862 24.5231 27.7902 23.8433 28.7059 16.7855C29.6455 9.49655 28.2485 4.90401 25.7268 2.82663H25.7115C24.9505 2.16136 21.8921 0.045913 15.0592 0.0223476C15.0592 0.0223476 14.5522 -0.0102814 13.7367 0.00331399V0.00422035ZM13.8208 2.0535C14.5169 2.04897 14.9399 2.07707 14.9399 2.07707C20.7234 2.09157 23.4838 3.74387 24.1351 4.30037C26.2586 6.0279 27.3529 10.1682 26.5518 16.2535C25.7908 22.1539 21.2457 22.5273 20.4045 22.782C20.0464 22.8908 16.7388 23.6648 12.5718 23.4101C12.5718 23.4101 9.46857 26.9649 8.49844 27.8803C8.34471 28.0407 8.1652 28.0878 8.05061 28.0643C7.88638 28.0262 7.83673 27.8332 7.84628 27.5685L7.87588 22.7113C1.79826 21.1161 2.15633 15.097 2.22126 11.9528C2.29574 8.80862 2.91734 6.23636 4.76784 4.49434C7.25904 2.35623 11.7354 2.06801 13.8189 2.0535H13.8208ZM14.2791 5.19677C14.2291 5.19629 14.1795 5.20521 14.1331 5.22302C14.0867 5.24084 14.0445 5.26718 14.0089 5.30055C13.9733 5.33391 13.945 5.37363 13.9257 5.41742C13.9064 5.46121 13.8963 5.5082 13.8962 5.55569C13.8962 5.75871 14.07 5.91914 14.2791 5.91914C15.2258 5.90205 16.1668 6.06304 17.0476 6.39283C17.9285 6.72261 18.7319 7.21467 19.4114 7.84062C20.7988 9.1195 21.4748 10.838 21.5006 13.0848C21.5006 13.2833 21.6696 13.4483 21.8835 13.4483V13.4338C21.9843 13.434 22.0811 13.3964 22.1529 13.3292C22.2246 13.262 22.2654 13.1705 22.2664 13.0749C22.3128 12.0173 22.1321 10.9618 21.7354 9.97254C21.3386 8.98329 20.7341 8.08096 19.9585 7.32037C18.447 5.91823 16.5316 5.19586 14.2791 5.19586V5.19677ZM9.24609 6.0279C8.97581 5.99042 8.70017 6.04191 8.46502 6.17382H8.44497C7.89904 6.47758 7.40725 6.8615 6.98787 7.31131C6.63935 7.69379 6.45029 8.08081 6.40063 8.45332C6.37103 8.67538 6.39109 8.89744 6.46079 9.10953L6.48562 9.12403C6.87806 10.2189 7.39081 11.2721 8.01719 12.2637C8.82406 13.6567 9.81704 14.945 10.9715 16.0967L11.0059 16.1438L11.0603 16.1819L11.0947 16.2199L11.1348 16.2526C12.3524 17.3516 13.713 18.2986 15.1833 19.0704C16.8639 19.9387 17.8837 20.3493 18.4957 20.5197V20.5288C18.6752 20.5804 18.8385 20.604 19.0027 20.604C19.5244 20.5677 20.0182 20.3667 20.4054 20.033C20.8771 19.6348 21.2771 19.1661 21.5894 18.6454V18.6363C21.8826 18.1124 21.7833 17.6166 21.3603 17.2813C20.5131 16.5784 19.5971 15.9541 18.6246 15.4169C17.9734 15.0815 17.3117 15.2846 17.0434 15.6245L16.4714 16.3088C16.1783 16.6486 15.6455 16.6015 15.6455 16.6015L15.6302 16.6106C11.6571 15.6471 10.5972 11.8286 10.5972 11.8286C10.5972 11.8286 10.5475 11.3093 10.9152 11.0446L11.6313 10.4972C11.9741 10.2325 12.2128 9.60531 11.8452 8.98627C11.2832 8.06192 10.6269 7.19217 9.88584 6.38954C9.72383 6.20032 9.49654 6.07158 9.24418 6.02609L9.24609 6.0279ZM14.9399 7.10466C14.4328 7.10466 14.4328 7.83156 14.9446 7.83156C15.5751 7.84127 16.1974 7.96882 16.7759 8.20691C17.3544 8.44501 17.8778 8.789 18.3162 9.2192C18.7161 9.63795 19.0234 10.1286 19.2199 10.6622C19.4164 11.1957 19.4981 11.7613 19.4601 12.3253C19.4619 12.4208 19.5029 12.5118 19.5745 12.5789C19.646 12.6459 19.7424 12.6838 19.843 12.6842L19.8583 12.7033C19.9596 12.7025 20.0566 12.664 20.1282 12.596C20.1998 12.528 20.2404 12.436 20.2412 12.3398C20.2756 10.8996 19.8039 9.69141 18.8786 8.72342C17.9486 7.75543 16.6509 7.21252 14.9943 7.10466H14.9399ZM15.5672 9.05877C15.0449 9.04427 15.0248 9.78568 15.5424 9.80018C16.8009 9.86181 17.412 10.4654 17.4922 11.7072C17.4939 11.8014 17.5345 11.8913 17.6051 11.9575C17.6758 12.0237 17.771 12.0611 17.8703 12.0616H17.8856C17.9366 12.0595 17.9867 12.0478 18.033 12.0271C18.0792 12.0064 18.1206 11.9772 18.1549 11.9412C18.1891 11.9052 18.2154 11.8631 18.2323 11.8173C18.2492 11.7715 18.2563 11.723 18.2532 11.6745C18.1634 10.0558 17.2334 9.14397 15.5825 9.05968H15.5672V9.05877Z" fill="#232726"/>
</svg>
