<svg width="29" height="29" viewBox="0 0 29 29" fill="none" xmlns="http://www.w3.org/2000/svg">
<path fill-rule="evenodd" clip-rule="evenodd" d="M21.1444 17.3783C20.7826 17.1982 19.0087 16.3306 18.6785 16.2098C18.3482 16.0902 18.1078 16.031 17.8662 16.3911C17.6258 16.7487 16.9349 17.5583 16.7249 17.7976C16.5136 18.038 16.3036 18.067 15.943 17.8882C15.5824 17.7069 14.4192 17.3287 13.0412 16.1059C11.9691 15.1537 11.2442 13.978 11.0342 13.6179C10.8241 13.2591 11.0111 13.0645 11.192 12.8857C11.3547 12.725 11.5526 12.4664 11.7335 12.2574C11.9144 12.0471 11.9739 11.8973 12.0941 11.6568C12.2155 11.4176 12.1548 11.2085 12.0638 11.0285C11.9739 10.8484 11.2527 9.08066 10.9516 8.3617C10.659 7.66208 10.3615 7.75754 10.1406 7.74545C9.9293 7.73579 9.6889 7.73337 9.4485 7.73337C9.2081 7.73337 8.81714 7.82279 8.4869 8.18287C8.15543 8.54174 7.22418 9.41053 7.22418 11.1783C7.22418 12.9449 8.51604 14.6523 8.69694 14.8927C8.87785 15.132 11.2406 18.7594 14.86 20.3145C15.722 20.6843 16.3934 20.9054 16.9167 21.0697C17.7812 21.344 18.568 21.3053 19.1896 21.2123C19.8817 21.1096 21.3241 20.3435 21.6252 19.5049C21.9251 18.6664 21.9251 17.9474 21.8352 17.7976C21.7454 17.6477 21.505 17.5583 21.1432 17.3783H21.1444ZM14.5613 26.3235H14.5564C12.4067 26.3239 10.2964 25.7488 8.44683 24.6585L8.00974 24.3999L3.46639 25.5865L4.67933 21.1785L4.394 20.7266C3.19216 18.8226 2.55614 16.6192 2.55942 14.3707C2.56185 7.78533 7.94538 2.42759 14.5661 2.42759C17.7715 2.42759 20.785 3.67217 23.0506 5.92933C24.1681 7.03686 25.0538 8.35393 25.6565 9.80433C26.2592 11.2547 26.5669 12.8097 26.5619 14.3792C26.5595 20.9646 21.176 26.3235 14.5613 26.3235ZM24.7747 4.21471C23.4369 2.87458 21.8452 1.81199 20.0918 1.08851C18.3384 0.365043 16.4582 -0.00492546 14.5601 4.95145e-05C6.60254 4.95145e-05 0.123843 6.4465 0.121415 14.3695C0.117727 16.891 0.782366 19.3689 2.04827 21.5531L0 29L7.65399 27.0014C9.77131 28.1495 12.144 28.751 14.5552 28.7511H14.5613C22.5188 28.7511 28.9975 22.3046 28.9999 14.3804C29.0058 12.4921 28.6354 10.6214 27.9101 8.87649C27.1849 7.13158 26.1192 5.5471 24.7747 4.21471Z" fill="#232726"/>
</svg>
