<svg width="215" height="95" viewBox="0 0 215 95" fill="none" xmlns="http://www.w3.org/2000/svg">
<g opacity="0.25">
<path d="M21.5632 95L0 73.2857V0H29.6494V63.1071L35.714 69.2143H57.2772L63.3418 63.1071V0H92.9912V73.2857L71.428 95H21.5632Z" fill="#B7BBBE"/>
<path d="M179.151 0L215 86.8571V95H186.159L180.364 79.3929H136.564L130.634 95H102.467V86.8571L138.99 0H179.151ZM145.863 54.9643H171.335L160.418 25.7857H157.049L145.863 54.9643Z" fill="#B7BBBE"/>
</g>
<path d="M14.6429 95L0 80.3714V31H20.134V73.5143L24.2523 77.6286H38.8952L43.0135 73.5143V31H63.1475V80.3714L48.5046 95H14.6429Z" fill="#68825A"/>
<path d="M121.656 31L146 89.5143V95H126.415L122.48 84.4857H92.7365L88.7097 95H69.5824V89.5143L94.3838 31H121.656ZM99.0512 68.0286H116.348L108.935 48.3714H106.647L99.0512 68.0286Z" fill="#68825A"/>
</svg>
