<svg width="178" height="95" viewBox="0 0 178 95" fill="none" xmlns="http://www.w3.org/2000/svg">
<g opacity="0.25">
<path d="M0 95V73.0143H26.5137V21.9857H2.69174V0H52.7582V73.0143H76.5801V95H0Z" fill="#B7BBBE"/>
<path d="M104.65 95L84.7311 74.9143V20.0857L104.65 0H158.081L178 20.0857V74.9143L158.081 95H104.65ZM118.109 73.0143H144.622L151.756 65.8214V29.1786L144.622 21.9857H118.109L110.976 29.1786V65.8214L118.109 73.0143Z" fill="#B7BBBE"/>
</g>
<path d="M0 95V80.1886H17.8744V45.8114H1.81466V31H35.5673V80.1886H51.6271V95H0Z" fill="#68825A"/>
<path d="M70.5505 95L57.1221 81.4686V44.5314L70.5505 31H106.572L120 44.5314V81.4686L106.572 95H70.5505ZM79.6238 80.1886H97.4982L102.307 75.3429V50.6571L97.4982 45.8114H79.6238L74.815 50.6571V75.3429L79.6238 80.1886Z" fill="#68825A"/>
</svg>
