<svg width="100" height="96" viewBox="0 0 100 96" fill="none" xmlns="http://www.w3.org/2000/svg">
<path opacity="0.25" d="M20.2324 95.3534L20.3789 95.5H20.5862H79.4138H79.6211L79.7676 95.3534L99.3537 75.7477L99.5 75.6012V75.3943V20.6057V20.3988L99.3537 20.2523L79.7676 0.646623L79.6211 0.5H79.4138H20.5862H20.3789L20.2324 0.646623L0.64627 20.2523L0.5 20.3988V20.6057V75.3943V75.6012L0.64627 75.7477L20.2324 95.3534ZM75.6942 67.2645L67.9379 75.0286H32.0622L24.3058 67.2645V28.7355L32.0622 20.9714H67.9379L75.6942 28.7355V67.2645Z" fill="#B7BBBE" stroke="#B7BBBE"/>
<g opacity="0.25">
<line x1="65.3107" y1="33.5187" x2="49.2211" y2="49.6083" stroke="#B7BBBE" stroke-width="4"/>
<line x1="52.1953" y1="48.7314" x2="36.1058" y2="48.7314" stroke="#B7BBBE" stroke-width="4"/>
</g>
<path d="M14.3905 95L1 81.6514V44.3486L14.3905 31H54.6095L68 44.3486V81.6514L54.6095 95H14.3905ZM22.0947 81.7429H46.9053L52.4083 76.2571V49.7429L46.9053 44.2571H22.0947L16.5917 49.7429V76.2571L22.0947 81.7429Z" fill="#68825A"/>
<line x1="45.4142" y1="53.4142" x2="34.4142" y2="64.4142" stroke="#68825A" stroke-width="4"/>
<line x1="36" y1="64" x2="25" y2="64" stroke="#68825A" stroke-width="4"/>
</svg>
